<svg xmlns="http://www.w3.org/2000/svg" id="logo" width="158.438" height="26.719"><defs><style>.cls-2{fill-rule:evenodd;fill:#11223e}</style></defs><path d="M261.926 144.146a13.138 13.138 0 0 1 2.552-4.1 12.56 12.56 0 0 1 3.86-2.859 10.931 10.931 0 0 1 4.821-1.063h13.18l.53.527v4.272a1.234 1.234 0 0 1-.1.234c-.072.129-.13.23-.161.3l-6.326 10.672a1.724 1.724 0 0 1-.365.358.915.915 0 0 1-.428.178h-5.272v-.533l4.746-8.538a3.233 3.233 0 0 0 .213-.47 1.276 1.276 0 0 0 .052-.307 2.7 2.7 0 0 0-.028-.332 5.368 5.368 0 0 1-.027-.491h-6.54a4.8 4.8 0 0 0-2.555.686 6.577 6.577 0 0 0-1.925 1.775 8.261 8.261 0 0 0-1.2 2.418 9.015 9.015 0 0 0-.4 2.617 6.389 6.389 0 0 0 .444 2.213 10.024 10.024 0 0 0 1.2 2.305 7.589 7.589 0 0 0 1.767 1.79 3.614 3.614 0 0 0 2.156.736h11.252l.53.4v4.538l-1.054.54h-10.2a10.4 10.4 0 0 1-4.783-1.1 11.512 11.512 0 0 1-3.664-2.9 13.093 13.093 0 0 1-2.356-4.15 14.593 14.593 0 0 1-.826-4.883 13 13 0 0 1 .907-4.833Z" style="fill-rule:evenodd;fill:#c93c5d" transform="translate(-261 -135.281)"/><path d="M36.25.724a2.5 2.5 0 0 1 .915 3.415L25 26.719h-5l12.835-25.08A2.5 2.5 0 0 1 36.25.724Z" class="cls-2"/><path id="이숨특별시" d="M325.442 135.285h-3.528v24.938h3.528v-24.938Zm-13.508 1.75c-3.828 0-6.617 3.445-6.59 8.859-.027 5.469 2.762 8.887 6.59 8.887 3.746 0 6.535-3.418 6.535-8.887 0-5.414-2.789-8.859-6.535-8.859Zm0 3.145c1.887 0 3.172 2.023 3.172 5.714 0 3.719-1.285 5.715-3.172 5.715-1.941 0-3.227-2-3.227-5.715 0-3.694 1.286-5.714 3.227-5.714Zm36.159 11.238h-6.918v-2.27h9.625v-2.816h-22.695v2.816h9.57v2.27h-6.945v8.476h17.363v-8.476Zm-13.918 2.762h10.5v2.92h-10.5v-2.92Zm7.082-17.829v-.82h-3.582v.82c-.027 2.625-2.9 5.387-8.449 6.043l1.258 2.707c4.252-.546 7.369-2.324 8.969-4.757 1.6 2.433 4.7 4.211 9 4.757l1.23-2.707c-5.554-.628-8.426-3.472-8.426-6.043Zm33.043 11.868h-22.75v2.734h22.75v-2.734Zm-2.789 4.375H354.12v2.761h13.863v4.813h3.528v-7.574Zm.355-8.586h-13.973v-1.5h13.18v-2.571h-13.18v-1.394h13.754v-2.707h-17.254v10.824h17.473v-2.652Zm24.21-8.723H392.6v3.172h-4.59v-2.106h-3.446v2.9h-4.894v-2.9h-3.5v11.02h11.84v-1.777h4.59v2.488h3.472v-12.8Zm0 13.727h-16.57v2.679h13.1v1.422h-13.073v6.781h17.281v-2.734h-13.781v-1.5h13.043v-6.644Zm-16.406-4.375V141.9h4.894v2.735h-4.894Zm8.34-1.668v-1.914h4.59v1.914h-4.59Zm20.272-2.051V137.2h-3.527v3.719c-.027 4.84-2.133 9.6-6.48 11.43l2.105 2.9a12 12 0 0 0 6.207-7.438 11.493 11.493 0 0 0 5.934 6.836l2.05-2.789c-4.21-1.78-6.289-6.374-6.289-10.94Zm11.157-5.633h-3.528v24.938h3.528v-24.938Z" class="cls-2" transform="translate(-261 -135.281)"/></svg>