<?xml version="1.0" encoding="utf-8"?>
<!-- Generator: Adobe Illustrator 27.9.6, SVG Export Plug-In . SVG Version: 9.03 Build 54986)  -->
<svg version="1.1" id="a" xmlns="http://www.w3.org/2000/svg" xmlns:xlink="http://www.w3.org/1999/xlink" x="0px" y="0px"
	 viewBox="0 0 120 120" style="enable-background:new 0 0 120 120;" xml:space="preserve">
<style type="text/css">
	.st0{fill:#FFFFFF;}
	.st1{fill:#E6E6E6;}
	.st2{fill:#BEBEBE;}
	.st3{fill:#C93C5D;}
	.st4{fill:#AF3152;}
	.st5{fill:#FFC700;}
	.st6{fill:#FFB200;}
	.st7{fill:#1E1E1E;}
	.st8{fill:#F7BE9F;}
	.st9{fill:#E5A98F;}
</style>
<g>
	<path class="st0" d="M52.4,12.8H19.7v76c0,2.5,2,4.5,4.5,4.5h43V12.8C67.3,12.8,52.4,12.8,52.4,12.8z"/>
	<path class="st1" d="M56.7,12.8v34.4c0,18.5-15,33.4-33.4,33.4h-3.5v8.2c0,2.5,2,4.5,4.5,4.5h43V12.8H56.7z"/>
	<path class="st2" d="M39.8,12.8v2.6c0,2.1,1.7,3.7,3.7,3.7s3.7-1.7,3.7-3.7v-2.7C47.2,12.8,39.8,12.8,39.8,12.8z"/>
	<path class="st3" d="M80.5,3.6C65.9,3.6,54,12.5,54,23.5c0,4.1,1.7,7.9,4.5,11.1l-3.1,8.8l11.7-2.7c3.9,1.7,8.4,2.7,13.3,2.7
		c14.6,0,26.5-8.9,26.5-19.9S95.1,3.6,80.5,3.6z"/>
	<path class="st4" d="M97.4,8.2c1.4,2.4,2.2,5.1,2.2,7.9c0,11-11.8,19.5-26.5,19.9c-7.9,0.2-15.3-2.2-15.3-2.2
		c0.2,0.3,0.5,0.6,0.7,0.9l-3.1,8.8l11.7-2.7c3.9,1.7,8.4,2.7,13.3,2.7c14.6,0,26.5-8.9,26.5-19.9C107,17.3,103.2,11.8,97.4,8.2
		L97.4,8.2z"/>
	<path class="st5" d="M33.7,55.1h19.6c1.1,0,2.1,0.9,2.1,2.1v19.6c0,1.1-0.9,2.1-2.1,2.1H33.7c-1.1,0-2.1-0.9-2.1-2.1V57.2
		C31.6,56,32.6,55.1,33.7,55.1z"/>
	<path class="st6" d="M53.3,55.1h-2.4v9.2c0,5.6-4.5,10.1-10.1,10.1h-9.1v2.4c0,1.2,0.9,2.1,2.1,2.1h19.6c1.2,0,2.1-0.9,2.1-2.1
		V57.2C55.4,56,54.4,55.1,53.3,55.1L53.3,55.1z"/>
	<path class="st7" d="M53.3,79.9H33.7c-1.8,0-3.2-1.4-3.2-3.2V57.2c0-1.8,1.4-3.2,3.2-3.2h19.6c1.8,0,3.2,1.4,3.2,3.2v19.6
		C56.5,78.5,55,79.9,53.3,79.9z M33.7,56.2c-0.5,0-1,0.4-1,1v19.6c0,0.5,0.4,1,1,1h19.6c0.5,0,1-0.4,1-1V57.2c0-0.5-0.4-1-1-1H33.7z
		"/>
	<path class="st7" d="M42.1,72.6c-0.3,0-0.6-0.1-0.8-0.4l-4.2-4.8c-0.4-0.5-0.3-1.1,0.1-1.5c0.5-0.4,1.1-0.3,1.5,0.1l3.3,3.8
		l6.2-8.1c0.4-0.5,1-0.6,1.5-0.2s0.6,1,0.2,1.5l-7.1,9.2C42.7,72.5,42.4,72.6,42.1,72.6L42.1,72.6L42.1,72.6z"/>
	<path class="st7" d="M36,56.2c-0.6,0-1.1-0.5-1.1-1.1v-8.8c0-4.7,3.8-8.6,8.6-8.6s8.6,3.8,8.6,8.6V50c0,0.6-0.5,1.1-1.1,1.1
		s-1.1-0.5-1.1-1.1v-3.7c0-3.5-2.9-6.4-6.4-6.4s-6.4,2.9-6.4,6.4v8.8C37.1,55.7,36.6,56.2,36,56.2z"/>
	<path class="st8" d="M81.1,85.7l-2.3,19.4l2.1,4.1l-30.5,7.2l-1.7-3.9c0,0-14-6.2-20.2-19.2H57c2.4-7.1,10.3-12.6,10.3-12.6
		c-2-2.8-3.6-11.1-3.6-11.1c-7.7,0-10.3-4.3-11.2-7.2c-0.4-1.3,0.6-2.6,1.9-2.6h14.2c0.3,0,0.7,0.2,0.8,0.5L80,80.2
		C80.9,81.9,81.3,83.8,81.1,85.7L81.1,85.7z"/>
	<path class="st8" d="M19.7,86l-4.7-3c-1.3-0.8-2-2.2-2-3.7V79c0-3.4,3.8-5.5,6.7-3.7C19.7,75.3,19.7,86,19.7,86z"/>
	<path class="st8" d="M19.7,72.1l-4.7-3c-1.3-0.8-2-2.2-2-3.7v-0.3c0-3.4,3.8-5.5,6.7-3.7C19.7,61.5,19.7,72.1,19.7,72.1z"/>
	<path class="st8" d="M19.7,58.3l-4.7-3c-1.3-0.8-2-2.2-2-3.7v-0.3c0-3.5,3.8-5.5,6.7-3.7C19.7,47.6,19.7,58.3,19.7,58.3z"/>
	<path class="st9" d="M36.5,104L57,93.3H28.6C30.6,97.6,33.5,101.2,36.5,104z"/>
	<path class="st7" d="M52.4,13.9H28.1c-0.6,0-1.1-0.5-1.1-1.1s0.5-1.1,1.1-1.1h24.3c0.6,0,1.1,0.5,1.1,1.1S53,13.9,52.4,13.9z"/>
	<path class="st7" d="M57,94.4H24.2c-3.1,0-5.6-2.5-5.6-5.6V36.3c0-0.6,0.5-1.1,1.1-1.1c0.6,0,1.1,0.5,1.1,1.1v52.5
		c0,1.9,1.5,3.4,3.4,3.4H57c0.6,0,1.1,0.5,1.1,1.1S57.6,94.4,57,94.4L57,94.4z"/>
	<path class="st7" d="M67.3,61c-0.6,0-1.1-0.5-1.1-1.1V45.7c0-0.6,0.5-1.1,1.1-1.1s1.1,0.5,1.1,1.1v14.2C68.4,60.5,67.9,61,67.3,61z
		"/>
	<path class="st7" d="M43.5,20.3c-2.7,0-4.8-2.2-4.8-4.8v-2.6c0-0.6,0.5-1.1,1.1-1.1h7.5c0.6,0,1.1,0.5,1.1,1.1v2.6
		C48.3,18.1,46.2,20.3,43.5,20.3L43.5,20.3z M40.9,13.9v1.6c0,1.4,1.2,2.6,2.6,2.6s2.6-1.2,2.6-2.6v-1.6
		C46.1,13.9,40.9,13.9,40.9,13.9z"/>
	<path class="st7" d="M50.4,117.5c-0.4,0-0.8-0.2-1-0.7l-1.5-3.5c-2.4-1.2-14.6-7.4-20.3-19.5c-0.3-0.5,0-1.2,0.5-1.5
		c0.5-0.3,1.2,0,1.5,0.5c5.9,12.4,19.5,18.6,19.6,18.6c0.2,0.1,0.5,0.3,0.6,0.6l1.7,3.9c0.2,0.6,0,1.2-0.6,1.4
		C50.7,117.5,50.6,117.5,50.4,117.5L50.4,117.5z"/>
	<path class="st7" d="M19.7,87.1c-0.2,0-0.4-0.1-0.6-0.2l-4.7-3c-1.6-1-2.5-2.7-2.5-4.6V79c0-3,2.5-5.5,5.5-5.5c1,0,2,0.3,2.9,0.9
		c0.3,0.2,0.5,0.6,0.5,0.9V86c0,0.4-0.2,0.8-0.6,1C20.1,87,19.9,87.1,19.7,87.1L19.7,87.1z M17.4,75.7c-1.6,0-3.3,1.3-3.3,3.3v0.3
		c0,1.1,0.6,2.2,1.5,2.8l3,1.9v-8C18.3,75.8,17.8,75.8,17.4,75.7L17.4,75.7z"/>
	<path class="st7" d="M19.7,73.2c-0.2,0-0.4-0.1-0.6-0.2l-4.7-3c-1.6-1-2.5-2.7-2.5-4.6v-0.3c0-3,2.5-5.5,5.5-5.5c1,0,2,0.3,2.9,0.9
		c0.3,0.2,0.5,0.5,0.5,0.9v10.6c0,0.4-0.2,0.8-0.6,1C20.1,73.2,19.9,73.2,19.7,73.2L19.7,73.2z M17.4,61.9c-1.6,0-3.3,1.3-3.3,3.3
		v0.3c0,1.1,0.6,2.2,1.5,2.8l3,1.9v-8C18.3,62,17.8,61.9,17.4,61.9L17.4,61.9z"/>
	<path class="st7" d="M19.7,59.4c-0.2,0-0.4-0.1-0.6-0.2l-4.7-3c-1.6-1-2.5-2.7-2.5-4.6v-0.3c0-3,2.5-5.5,5.5-5.5c1,0,2,0.3,2.9,0.9
		c0.3,0.2,0.5,0.5,0.5,0.9v10.6c0,0.4-0.2,0.8-0.6,1C20.1,59.3,19.9,59.4,19.7,59.4L19.7,59.4z M17.4,48c-1.6,0-3.3,1.3-3.3,3.3v0.3
		c0,1.1,0.6,2.2,1.5,2.8l3,1.9v-8C18.3,48.1,17.8,48,17.4,48L17.4,48z"/>
	<path class="st7" d="M80.9,110.3c-0.4,0-0.8-0.2-1-0.6l-2.1-4.1c-0.1-0.2-0.1-0.4-0.1-0.6L80,85.6c0.2-1.7-0.1-3.4-0.9-4.9L68.6,61
		H54.4c-0.3,0-0.5,0.1-0.7,0.4c-0.2,0.2-0.2,0.5-0.1,0.8c0.9,2.9,3.3,6.5,10.1,6.5c0.5,0,1,0.4,1.1,0.9c0.4,2.2,1.9,8.5,3.4,10.7
		c0.2,0.2,0.2,0.5,0.2,0.8c0,0.3-0.2,0.5-0.5,0.7c-0.1,0.1-10.5,7.4-10.5,15.7c0,0.6-0.5,1.1-1.1,1.1s-1.1-0.5-1.1-1.1
		c0-8,8-14.8,10.6-16.8c-1.5-2.8-2.6-7.7-3-9.7c-7.9-0.3-10.5-5.1-11.3-8c-0.3-0.9-0.1-1.9,0.5-2.7s1.5-1.2,2.5-1.2h14.2
		c0.8,0,1.4,0.4,1.8,1.1L81,79.7c1,1.9,1.4,4,1.2,6.2l-2.3,19.1l2,3.8c0.3,0.5,0.1,1.2-0.5,1.5C81.3,110.3,81.1,110.3,80.9,110.3
		L80.9,110.3z"/>
	<path class="st7" d="M55.5,44.4c-0.6,0-1.1-0.5-1.1-1.1c0-0.1,0-0.2,0.1-0.4l2.8-8.2c-2.9-3.4-4.4-7.3-4.4-11.4
		c0-11.6,12.4-21,27.6-21s27.6,9.4,27.6,21s-12.4,21-27.6,21c-4.7,0-9.3-0.9-13.4-2.6l-11.4,2.6C55.7,44.4,55.6,44.4,55.5,44.4
		L55.5,44.4z M67.2,39.6c0.2,0,0.3,0,0.4,0.1c3.9,1.7,8.3,2.6,12.9,2.6c14,0,25.4-8.4,25.4-18.8S94.5,4.7,80.5,4.7
		s-25.4,8.4-25.4,18.8c0,3.7,1.5,7.3,4.2,10.4c0.3,0.3,0.3,0.7,0.2,1.1l-2.4,6.9l9.8-2.2C67,39.6,67.1,39.6,67.2,39.6L67.2,39.6z"/>
	<path class="st0" d="M65.5,25.2c-0.6,0-1.1-0.6-1.1-1.2v-2.9c0-0.6,0.5-1.2,1.1-1.2c0.6,0,1.2,0.5,1.2,1.1v3
		C66.7,24.7,66.1,25.2,65.5,25.2L65.5,25.2z"/>
	<path class="st0" d="M65.5,25.2c-0.1,0-0.2,0-0.3-0.1l-2.9-0.9c-0.6-0.2-0.9-0.8-0.7-1.4c0,0,0,0,0,0c0.2-0.6,0.8-0.9,1.4-0.7
		l2.9,0.9c0.6,0.2,0.9,0.8,0.7,1.4C66.4,24.9,66,25.2,65.5,25.2z"/>
	<path class="st0" d="M63.7,27.7c-0.2,0-0.5-0.1-0.7-0.2c-0.5-0.4-0.6-1.1-0.2-1.6l1.8-2.5c0.4-0.5,1.1-0.6,1.6-0.2
		c0.5,0.4,0.6,1.1,0.2,1.6l-1.8,2.5C64.4,27.5,64.1,27.7,63.7,27.7L63.7,27.7z"/>
	<path class="st0" d="M67.3,27.7c-0.3,0-0.7-0.2-0.9-0.5l-1.8-2.5c-0.4-0.5-0.3-1.2,0.2-1.6c0.5-0.4,1.2-0.3,1.6,0.2l1.8,2.5
		c0.4,0.5,0.3,1.2-0.2,1.6C67.8,27.6,67.6,27.7,67.3,27.7L67.3,27.7z"/>
	<path class="st0" d="M65.5,25.2c-0.5,0-0.9-0.3-1.1-0.8c-0.2-0.6,0.1-1.2,0.7-1.4l2.8-0.9c0.6-0.2,1.3,0.1,1.5,0.7
		c0.2,0.6-0.1,1.2-0.7,1.5l-2.9,0.9C65.8,25.2,65.6,25.2,65.5,25.2L65.5,25.2z"/>
	<path class="st0" d="M75.6,25.2c-0.6,0-1.1-0.6-1.1-1.2v-2.9c0-0.6,0.5-1.2,1.1-1.2c0.6,0,1.2,0.5,1.2,1.1v3
		C76.8,24.7,76.3,25.2,75.6,25.2L75.6,25.2z"/>
	<path class="st0" d="M75.7,25.2c-0.1,0-0.2,0-0.3-0.1l-2.9-0.9c-0.6-0.2-0.9-0.8-0.7-1.4c0,0,0,0,0,0c0.2-0.6,0.8-0.9,1.4-0.7
		L76,23c0.6,0.2,0.9,0.8,0.7,1.4C76.6,24.9,76.1,25.2,75.7,25.2z"/>
	<path class="st0" d="M73.9,27.7c-0.2,0-0.5-0.1-0.7-0.2c-0.5-0.4-0.6-1.1-0.2-1.6l1.8-2.5c0.4-0.5,1.1-0.6,1.6-0.2
		c0.5,0.4,0.6,1.1,0.2,1.6l-1.8,2.5C74.6,27.5,74.2,27.7,73.9,27.7L73.9,27.7z"/>
	<path class="st0" d="M77.4,27.7c-0.3,0-0.7-0.2-0.9-0.5l-1.8-2.5c-0.4-0.5-0.3-1.2,0.2-1.6c0.5-0.4,1.2-0.3,1.6,0.2l1.8,2.5
		c0.4,0.5,0.3,1.2-0.2,1.6C77.9,27.6,77.7,27.7,77.4,27.7L77.4,27.7z"/>
	<path class="st0" d="M75.7,25.2c-0.5,0-0.9-0.3-1.1-0.8c-0.2-0.6,0.1-1.2,0.7-1.4l2.9-0.9c0.6-0.2,1.2,0.1,1.4,0.7
		c0.2,0.6-0.1,1.2-0.7,1.4L76,25.2C75.9,25.2,75.8,25.2,75.7,25.2z"/>
	<path class="st0" d="M85.5,25.2c-0.5-0.1-0.9-0.6-0.9-1.1v-3c0-0.5,0.4-1,0.9-1.1c0.7-0.2,1.4,0.4,1.4,1.1v3
		C86.9,24.8,86.3,25.4,85.5,25.2z"/>
	<path class="st0" d="M85.8,25.2c-0.1,0-0.2,0-0.3-0.1l-2.9-0.9c-0.6-0.2-0.9-0.8-0.7-1.4c0,0,0,0,0,0c0.2-0.6,0.8-0.9,1.4-0.7
		l2.9,0.9c0.6,0.2,0.9,0.8,0.7,1.4C86.7,24.9,86.2,25.2,85.8,25.2z"/>
	<path class="st0" d="M84,27.7c-0.2,0-0.5-0.1-0.7-0.2c-0.5-0.4-0.6-1.1-0.2-1.6l1.8-2.5c0.4-0.5,1.1-0.6,1.6-0.2
		c0.5,0.4,0.6,1.1,0.2,1.6l-1.8,2.5C84.7,27.5,84.3,27.7,84,27.7L84,27.7z"/>
	<path class="st0" d="M87.6,27.7c-0.3,0-0.7-0.2-0.9-0.5l-1.8-2.5c-0.4-0.5-0.3-1.2,0.2-1.6c0.5-0.4,1.2-0.3,1.6,0.2l1.8,2.5
		c0.4,0.5,0.2,1.2-0.2,1.6C88,27.6,87.8,27.7,87.6,27.7L87.6,27.7z"/>
	<path class="st0" d="M85.8,25.2c-0.5,0-0.9-0.3-1.1-0.8c-0.2-0.6,0.1-1.2,0.7-1.4l2.9-0.9c0.6-0.2,1.2,0.1,1.4,0.7
		c0.2,0.6-0.1,1.2-0.7,1.4l-2.9,0.9C86,25.2,85.9,25.2,85.8,25.2z"/>
	<path class="st0" d="M95.7,25.2c-0.5-0.1-0.9-0.6-0.9-1.1v-3c0-0.5,0.4-1,0.9-1.1c0.7-0.2,1.4,0.4,1.4,1.1v3
		C97.1,24.8,96.4,25.4,95.7,25.2z"/>
	<path class="st0" d="M95.9,25.2c-0.1,0-0.2,0-0.3-0.1l-2.9-0.9c-0.6-0.2-0.9-0.8-0.7-1.4c0,0,0,0,0,0c0.2-0.6,0.8-0.9,1.4-0.7
		l2.9,0.9c0.6,0.2,0.9,0.8,0.7,1.4C96.8,24.9,96.4,25.2,95.9,25.2z"/>
	<path class="st0" d="M94.1,27.7c-0.2,0-0.5-0.1-0.7-0.2c-0.5-0.4-0.6-1.1-0.2-1.6l1.8-2.5c0.4-0.5,1.1-0.6,1.6-0.2
		c0.5,0.4,0.6,1.1,0.2,1.6l-1.8,2.5C94.8,27.5,94.5,27.7,94.1,27.7L94.1,27.7z"/>
	<path class="st0" d="M97.7,27.7c-0.3,0-0.7-0.2-0.9-0.5L95,24.8c-0.4-0.5-0.3-1.2,0.2-1.6c0.5-0.4,1.2-0.3,1.6,0.2l1.8,2.5
		c0.4,0.5,0.2,1.2-0.2,1.6C98.2,27.6,98,27.7,97.7,27.7L97.7,27.7z"/>
	<path class="st0" d="M95.9,25.2c-0.5,0-0.9-0.3-1.1-0.8c-0.2-0.6,0.1-1.2,0.7-1.4l2.9-0.9c0.6-0.2,1.2,0.1,1.4,0.7
		c0.2,0.6-0.1,1.2-0.7,1.4l-2.9,0.9C96.2,25.2,96.1,25.2,95.9,25.2z"/>
	<path class="st7" d="M52.6,11.7H24.2c-3.1,0-5.6,2.5-5.6,5.6v52.5c0,0.6,0.5,1.1,1.1,1.1c0.6,0,1.1-0.5,1.1-1.1V17.3
		c0-1.9,1.5-3.4,3.4-3.4h28.3c0.6,0,1.1-0.5,1.1-1.1S53.2,11.7,52.6,11.7L52.6,11.7z"/>
</g>
</svg>
