<svg xmlns="http://www.w3.org/2000/svg" xml:space="preserve" id="bg" x="0" y="0" style="enable-background:new 0 0 360 900" version="1.1" viewBox="0 0 360 900"><style>.st1{fill-rule:evenodd;clip-rule:evenodd;fill:#f5f0f0}</style><path d="m221.9 367.6 251.7-251.7c15.6-15.7 40.9-15.8 56.6-.2 15.7 15.6 15.8 40.9.2 56.6l-.2.2-251.8 251.6c-15.7 15.6-41 15.4-56.6-.2-15.4-15.6-15.4-40.7.1-56.3zM310.3 417.6l69.3-69.3c3.9-3.9 10.2-4 14.1-.1s4 10.2.1 14.1l-.1.1-69.3 69.3c-3.9 3.9-10.2 4-14.1.1-3.9-3.9-4-10.2 0-14.2-.1 0 0 0 0 0z" class="st1"/><path id="Rectangle_37_copy_3" d="M278.5 568.8c55.5 0 100.5 45 100.5 100.5s-45 100.5-100.5 100.5S178 724.9 178 669.4c0-55.6 45-100.6 100.5-100.6z" style="opacity:2.000000e-02;fill-rule:evenodd;clip-rule:evenodd;fill:#11223e;enable-background:new"/><path d="M366 465.3c55.5 0 100.5 45 100.5 100.5s-45 100.5-100.5 100.5-100.5-45-100.5-100.5c-.1-55.5 45-100.5 100.5-100.5z" style="opacity:2.000000e-02;fill-rule:evenodd;clip-rule:evenodd;fill:#11223e;fill-opacity:0;stroke:#c93c5d;stroke-width:40;stroke-linejoin:round;enable-background:new"/></svg>