<svg xmlns="http://www.w3.org/2000/svg" xml:space="preserve" id="a" x="0" y="0" style="enable-background:new 0 0 360 188" version="1.1" viewBox="0 0 360 188"><style>.st0{fill:#ffcabf}</style><path d="M138-36.9c-1.2.1-2.4.5-3.4 1-5.7 2.9-9.2 10.2-7.9 16.5.5 2.5 1.8 3.3 4.2 2.4 6.9-2.6 10.8-7.6 11.4-15.8 0-3.4-1.1-4.5-4.3-4.1" class="st0"/><path d="M151.8 11.5c-3.1-1.7-4.7-1.3-6 1.8-.5 1.1-.8 2.4-.8 3.6-.1 6.7 5.1 13.7 11.8 15.9 2.6.8 4.1.1 4.4-2.5 1-7.7.9-11.6-9.4-18.8" style="fill:#ffab99"/><path d="M-58.5 43.1c-3.6 1.5-4.2 3.1-2.4 6.4.6 1.2 1.5 2.3 2.5 3.2 5.6 4.9 15 5.5 21.2 1.3 2.5-1.6 2.8-3.4.7-5.6-5.7-6.2-12.8-8.2-22-5.3" class="st0"/><path d="M-146.7 120.1c2 1.6 3.7 3 5.4 4.4 4.4 3.5 11.4 4.2 16.3 1.6 3.9-2.1 4.2-4.2 1-7.4-6.2-6-15.2-5.6-22.7 1.4" class="st0"/><path d="M-83.5 87c-3.2 3-4.6 4.7-2.8 11.6.7 1.9 1.6 2.3 3.2 1.4.6-.3 1.2-.8 1.7-1.3 2.5-2.9 2.8-7.8.8-11.2-.9-1.3-1.8-1.5-2.9-.5" class="st0"/><path d="M13.2 24.3c-5.8 5.4-8.4 8.5-5.1 21 1.3 3.5 2.9 4.2 5.9 2.6 1.1-.6 2.2-1.4 3-2.3 4.6-5.2 5.1-14.2 1.4-20.3-1.5-2.4-3.1-2.8-5.2-1" class="st0"/><path d="M6.6 84.7c-3.9-2.8-8.5-4.5-13.2-2.6-4.3 1.7-8.5 3.8-13.6 6.2 6.1 6 12.3 9 19.2 10.5 4.9 1 9.8-1.8 11.7-5.9 1.5-3.9-1.6-6.3-4.1-8.2" style="fill:#ffb5a6"/></svg>