<svg xmlns="http://www.w3.org/2000/svg" xml:space="preserve" id="a" x="0" y="0" style="enable-background:new 0 0 590 630" version="1.1" viewBox="0 0 590 630"><style>.st0{fill:#ffcabf}.st2{fill:#ffb5a6}</style><path d="M145.2 622.4c2 1.6 3.7 3 5.4 4.4 4.4 3.5 11.4 4.2 16.3 1.6 3.9-2.1 4.2-4.2 1-7.4-6.2-6-15.2-5.6-22.7 1.4" class="st0"/><path d="M208.4 589.3c-3.2 3-4.6 4.7-2.8 11.6.7 1.9 1.6 2.3 3.2 1.4.6-.3 1.2-.8 1.7-1.3 2.5-2.9 2.8-7.8.8-11.2-.9-1.3-1.8-1.5-2.9-.5" class="st0"/><path d="M519.8 181.8c-.5-1.6-1.5-2.1-3-1.4-4.5 2.2-6.8 5.8-6.7 11.5.2 2.2 1 2.9 3.2 2.4.8-.2 1.6-.4 2.2-.9 3.7-2.2 5.6-7.4 4.3-11.6" class="st0"/><path d="M444 309.8c2-1.1 2.1-2.1.5-3.7-3.1-3-7.6-2.8-11.4.7 1 .8 1.9 1.5 2.7 2.2 2.2 1.7 5.7 2.1 8.2.8" class="st0"/><path d="M496.8 272.5c-3.2 3-4.6 4.7-2.8 11.6.7 1.9 1.6 2.3 3.2 1.4.6-.3 1.2-.8 1.7-1.3 2.5-2.9 2.8-7.8.7-11.2-.8-1.3-1.7-1.5-2.8-.5" style="fill:#ffa896"/><path d="M565.4 296.7c-2.4.1-4.7.9-6 3.1-1.2 2-2.2 4.1-3.5 6.6 4.2.5 7.6-.2 10.8-1.8 2.2-1.1 3.3-3.8 2.8-5.9-.6-2.1-2.6-2.1-4.1-2" class="st0"/><path d="M430 465.4c-1.2.1-2.4.5-3.4 1-5.7 2.9-9.2 10.2-7.9 16.5.5 2.5 1.8 3.3 4.2 2.4 6.9-2.6 10.8-7.6 11.4-15.8 0-3.3-1.1-4.4-4.3-4.1" class="st0"/><path d="M423.8 392.6c7.5-4.2 9.7-12.8 5.2-21.9-2.1 1.5-3.9 2.7-5.7 3.9-4.6 3.1-7.3 9.6-6.2 15 .9 4.3 2.8 5.2 6.7 3" class="st2"/><path d="M443.8 513.9c-3.1-1.7-4.7-1.3-6 1.8-.5 1.1-.8 2.4-.8 3.6-.1 6.7 5.1 13.7 11.8 15.9 2.6.8 4.1.1 4.4-2.5.9-7.7.8-11.7-9.4-18.8" style="fill:#ffab99"/><path d="M233.5 545.4c-3.6 1.5-4.2 3.1-2.4 6.4.6 1.2 1.5 2.3 2.5 3.2 5.6 4.9 15 5.5 21.2 1.3 2.5-1.6 2.8-3.4.7-5.6-5.8-6.2-12.8-8.2-22-5.3" class="st0"/><path d="M305.2 526.7c-5.8 5.4-8.4 8.5-5.1 21 1.3 3.5 2.9 4.2 5.9 2.6 1.1-.6 2.2-1.4 3-2.3 4.6-5.2 5.1-14.2 1.4-20.3-1.5-2.5-3.2-2.9-5.2-1" class="st0"/><path d="M298.5 587.1c-3.9-2.8-8.5-4.5-13.2-2.6-4.3 1.7-8.5 3.8-13.6 6.2 6.1 6 12.3 9 19.2 10.5 4.9 1 9.8-1.8 11.7-5.9 1.6-3.9-1.5-6.3-4.1-8.2" class="st2"/></svg>