<svg xmlns="http://www.w3.org/2000/svg" xmlns:xlink="http://www.w3.org/1999/xlink" xml:space="preserve" id="a" x="0" y="0" style="enable-background:new 0 0 1920 800" version="1.1" viewBox="0 0 1920 800"><style>.st4,.st5,.st7{fill-rule:evenodd;clip-rule:evenodd;fill:#f1f5f7}.st5,.st7{fill:#f7f2f3}.st7{fill:#f5f0f0}</style><defs><path id="SVGID_1_" d="M0 0h1920v800H0z"/></defs><clipPath id="SVGID_00000079463096494255489900000011905687802906484645_"><use xlink:href="#SVGID_1_" style="overflow:visible"/></clipPath><g style="clip-path:url(#SVGID_00000079463096494255489900000011905687802906484645_)"><path d="M1737.9 560.3c92.4 0 167.3 74.9 167.3 167.3s-74.9 167.3-167.3 167.3-167.3-74.9-167.3-167.3 75-167.3 167.3-167.3z" style="opacity:2.000000e-02;fill-rule:evenodd;clip-rule:evenodd;fill:#11223e;stroke:#c93c5d;stroke-width:40;enable-background:new"/><path d="M1883.4 388c92.4 0 167.3 74.9 167.3 167.3s-74.9 167.3-167.3 167.3-167.3-74.9-167.3-167.3 75-167.3 167.3-167.3z" style="opacity:2.000000e-02;fill-rule:evenodd;clip-rule:evenodd;stroke:#c93c5d;stroke-width:40;enable-background:new"/><path d="M65.7 174c67.1 0 120.6 55.3 120.6 122.4S132.8 417 65.7 417-55.8 363.5-55.8 296.4-1.4 174 65.7 174z" style="opacity:3.000000e-02;fill-rule:evenodd;clip-rule:evenodd;stroke:#c93c5d;stroke-width:30;enable-background:new"/><path d="M144.4 376c28.3 0 51.2 23.8 51.2 52.2s-22.9 51.2-51.2 51.2-52.1-23-52.1-51.2 23.8-52.2 52.1-52.2zM68.4 813.7l142.1-142.1c11.7-11.7 30.7-11.7 42.4 0s11.7 30.7 0 42.4L110.8 856.2c-11.7 11.7-30.7 11.7-42.4 0s-11.7-30.7 0-42.5z" class="st4"/><path d="M90.2 753.5 221.7 622c2.7-2.7 7.2-2.7 9.9 0s2.7 7.2 0 9.9L100.1 763.4c-2.7 2.7-7.2 2.7-9.9 0s-2.7-7.2 0-9.9zM90.2 907.4l131.5-131.5c2.7-2.7 7.2-2.7 9.9 0s2.7 7.2 0 9.9L100.1 917.3c-2.7 2.7-7.2 2.7-9.9 0s-2.7-7.1 0-9.9z" class="st5"/><path d="m1582.9 43.1 193-193c39.6-39.6 103.9-39.6 143.5 0 39.6 39.6 39.6 103.9 0 143.5l-193 193c-39.6 39.6-103.9 39.6-143.5 0-39.6-39.6-39.6-103.8 0-143.5z" style="opacity:2.000000e-02;fill-rule:evenodd;clip-rule:evenodd;fill:#11223e;enable-background:new"/><path d="M1628 253.5 1879.8 1.7c15.6-15.6 40.9-15.6 56.6 0 15.6 15.6 15.6 40.9 0 56.6L1684.6 310c-15.6 15.6-40.9 15.6-56.6 0-15.6-15.6-15.6-40.9 0-56.5zM1732.5 292.5l69.3-69.3c3.9-3.9 10.2-3.9 14.1 0 3.9 3.9 3.9 10.2 0 14.1l-69.3 69.3c-3.9 3.9-10.2 3.9-14.1 0-3.9-3.9-3.9-10.2 0-14.1z" class="st7"/></g></svg>