<svg xmlns="http://www.w3.org/2000/svg" id="a" viewBox="0 0 100 100"><defs><clipPath id="c"><path id="d" d="M50 0c27.61 0 50 22.39 50 50s-22.39 50-50 50S0 77.61 0 50 22.39 0 50 0Z" style="stroke-width:0;fill:none"/></clipPath><style>.g,.i,.j{stroke-width:0;fill-rule:evenodd}.g{fill:#fff}.i{fill:#f8cdb0}.j{fill:#2b1604}</style></defs><path id="b" d="M50 0c27.61 0 50 22.39 50 50s-22.39 50-50 50S0 77.61 0 50 22.39 0 50 0Z" style="fill:#efefef;stroke-width:0"/><g style="clip-path:url(#c)"><path d="M68.01 75.25c1.2-2.7 4.97-.55 7.9 2.86-4.13 1-8.66-.06-8.03-2.5-.04.08-.09.16-.15.23-.78.96-2.85.67-4.62-.64-1.37-1.01-2.17-2.34-2.1-3.34-1.06.1-2.43-.94-3.3-2.59-1.02-1.94-.95-3.99.14-4.58 1.09-.59 2.8.5 3.81 2.44.65 1.24.86 2.52.64 3.44.99-.16 2.38.25 3.62 1.17 1.47 1.09 2.28 2.54 2.07 3.55v-.03H68Z" class="j"/><path d="m67.94 75.13-.17-4 3.33 1.67-2.75 2.54.24 4.05-3.27-1.59 2.62-2.67z" class="g"/><path d="M31.99 75.25c-1.2-2.7-4.97-.55-7.9 2.86 4.13 1 8.67-.06 8.03-2.5.04.08.09.16.15.23.78.96 2.85.67 4.62-.64 1.38-1.01 2.17-2.34 2.1-3.34 1.06.1 2.43-.94 3.3-2.59 1.02-1.94.95-3.99-.14-4.58-1.09-.59-2.8.5-3.82 2.44-.65 1.24-.85 2.52-.64 3.44-.99-.16-2.37.25-3.62 1.17-1.48 1.09-2.28 2.54-2.07 3.55v-.03h-.01Z" class="j"/><path d="m32.06 75.13.17-4-3.33 1.67 2.75 2.54-.23 4.05 3.26-1.59-2.62-2.67z" class="g"/><path d="M49.98 36.54c8.22 0 14.89 6.84 14.89 15.28S58.2 70.11 49.98 70.11s-14.89-9.85-14.89-18.29 6.67-15.28 14.89-15.28Z" class="j"/><path d="M30.15 94.28c.12-8-1.38-16.06 15.59-17.49v-6.48h8.68v6.48c16.98 1.43 15.47 9.5 15.59 17.51l.09 1.27c-5.75 3.77-12.62 5.96-20.01 5.96s-14.17-2.16-19.9-5.89l-.02-1.37Z" class="i"/><path d="M54.54 70.62H45.6c1.02 3.46 7.92 3.46 8.94 0Z" style="fill-rule:evenodd;fill:#eeab89;stroke-width:0"/><path d="M37.78 54.96c-2.09-.07-1.26 8.62 1.28 8.68 2.04 4.48 5.7 8.3 10.99 8.3s9-3.81 11.04-8.3c2.29 0 3.19-8.65 1.22-8.68-2.71-.03-4.38-3.36-4.71-4.77-1.8 2.27-8.08 4.19-12.04 3.59 1.09-.53 2.4-.71 3.46-1.96-1.33 1.19-5.27 1.76-7.07 1.79.29-.26 1.82-1.06 2.37-1.84-.62.68-5.48 3.21-6.55 3.18Z" class="i"/><path d="M30.15 94.28c.12-8-1.38-16.06 15.59-17.49h8.66c16.98 1.43 15.47 9.5 15.59 17.51l.09 2.27c-5.75 3.77-12.62 4.96-20.01 4.96s-14.17-1.16-19.9-4.89l-.02-2.37Z" style="fill:#e595b4;fill-rule:evenodd;stroke-width:0"/><path d="M59.38 77.5c2.78 3.63-8.76 7.52-9.33.06-.24 7.42-11.62 3.47-9.23-.07 1.44-.3 3.07-.54 4.92-.7h8.66c1.88.16 3.53.4 4.98.71Z" class="g"/><path d="M50.11 83.83c.79 0 1.43.64 1.43 1.43s-.64 1.42-1.43 1.42-1.43-.64-1.43-1.42.64-1.43 1.43-1.43Z" class="g"/><path d="M50.11 89.62c.79 0 1.43.64 1.43 1.43s-.64 1.42-1.43 1.42-1.43-.64-1.43-1.42.64-1.43 1.43-1.43Z" class="g"/></g></svg>