<svg xmlns="http://www.w3.org/2000/svg" id="a" viewBox="0 0 100 100"><defs><clipPath id="b"><circle cx="50" cy="50" r="50" style="fill:none;stroke-width:0"/></clipPath><style>.c{fill:#f9d1a4;stroke-width:0;fill-rule:evenodd}</style></defs><circle cx="50" cy="50" r="50" style="fill:#efefef;stroke-width:0"/><g style="clip-path:url(#b)"><path d="M75.54 92.02c-.15-10.07 1.74-20.22-19.62-22.01 0-.87 0-7.29.01-8.15H45.01c0 .87 0 7.29.01 8.15-21.38 1.8-19.47 11.96-19.63 22.04.71.46 1.43.9 2.16 1.33l22.79-.13h.25l22.75.13c.75-.43 1.48-.89 2.2-1.36Z" class="c"/><path d="M44.84 62.24h11.25c-1.28 4.35-9.97 4.35-11.25 0Z" style="fill:#e1a875;fill-rule:evenodd;stroke-width:0"/><path d="M65.93 42.52c1.85-.2 1.59 10.85-1.61 10.92-2.57 5.64-7.18 10.44-13.84 10.44s-11.33-4.8-13.91-10.44c-2.88 0-3.43-11.12-1.54-10.92-.66-11.9-.24-19.34 15.35-19.34s16.3 7 15.54 19.34Z" class="c"/><path d="M75.54 93.38c-.15-10.07 1.74-21.57-19.62-23.37-3.46 1.89-7.1 1.88-10.9 0C23.64 71.81 25.26 84 25.11 94.08c7.2 4.69 16.09 5.39 25.32 5.4h.07l1.12-.02h.12l.87-.03.42-.02.43-.03h.11l.74-.06.43-.04c7.64-.71 14.73-1.93 20.83-5.91Z" style="fill:#3a5c93;fill-rule:evenodd;stroke-width:0"/><path d="M61.4 33.1c-4.53 6.15-23.05 6.24-21.76 5.26l-1.59 8.52c-.02-2.72-.46-4.47-2.98-4.36-2.68-13.45-.1-20.14 15.31-20.04 15.42.1 18.65 7.45 15.57 20.04-2.52-.11-2.95 1.63-2.98 4.36L61.4 33.1Z" style="fill:#282726;fill-rule:evenodd;stroke-width:0"/></g></svg>