<svg xmlns="http://www.w3.org/2000/svg" xml:space="preserve" id="a" x="0" y="0" style="enable-background:new 0 0 184 90" version="1.1" viewBox="0 0 184 90"><style>.st2,.st4{fill-rule:evenodd;clip-rule:evenodd;fill:#f8e049}.st4{fill:#222}.st7{fill:#f23}.st7,.st9{fill-rule:evenodd;clip-rule:evenodd}.st10,.st9{fill:#fff}</style><path id="b" d="M9.6 2.5h30c2.8 0 5 2.2 5 5v30c0 2.8-2.2 5-5 5h-30c-2.8 0-5-2.2-5-5v-30c0-2.8 2.2-5 5-5z" style="fill:#f8e049"/><path d="M24.6 10.5c-7.2 0-13 4.6-13 10.3 0 3.7 2.5 7 6.2 8.8-.3 1-1 3.7-1.1 4.3-.2.7.3.7.5.5.2-.2 3.6-2.4 5-3.4.8.1 1.6.2 2.4.2 7.2 0 13-4.6 13-10.3s-5.8-10.4-13-10.4" style="fill-rule:evenodd;clip-rule:evenodd;fill:#371c1d"/><path d="M20.4 18.3c0-.3-.3-.6-.6-.6h-4.1c-.4 0-.6.4-.6.7s.3.6.6.6H17v4.6c0 .6 1.4.6 1.4 0v-4.5h1.3c.4-.1.7-.4.7-.8z" class="st2"/><path d="M22.9 18.1c-.2-.3-.5-.4-.9-.4-.3 0-.6.1-.8.4-.3.7-1.5 4.2-1.9 5.1-.3.7 1 1.2 1.2.5l.3-.9h2.5c0 .3.1.6.2.9.3.7 1.5.2 1.3-.5-.4-1-1.7-4.6-1.9-5.1zm-1.6 3.4.8-2.4.7 2.4h-1.5z" class="st2"/><path d="M28.5 22.6h-1.8v-4.4c-.1-.4-.4-.7-.8-.6-.3.1-.6.3-.6.6v5c-.1.3.1.7.4.7h2.8c.6 0 .6-1.3 0-1.3z" class="st2"/><path d="m34 23-1.9-2.5s1.3-1.4 1.8-1.9c.3-.3-.6-1.2-.9-.9L30.7 20v-2c-.1-.3-.4-.5-.7-.4-.3-.1-.6.1-.7.4v5.5c0 .5 1.4.5 1.4 0v-1.8l.4-.3 1.8 2.4c.3.5 1.4-.3 1.1-.8z" class="st2"/><path id="c" d="M54.9 2.5h30c2.8 0 5 2.2 5 5v30c0 2.8-2.2 5-5 5h-30c-2.8 0-5-2.2-5-5v-30c0-2.8 2.2-5 5-5z" style="fill:#f8cc46"/><path d="m81.5 19.2-.2-.1c-.8-.7-1.9-1.1-3-.9-.9.1-1.8.4-2.6.9 0-.4 0-.7.1-1.1 0-.4.1-.7.1-1.1 0-.3 0-.7-.2-1 0-.1-.1-.1-.2-.1-.4 0-.8.2-1.2.4l-.1.2c0 .5-.1 1.1-.2 1.6v.1c-.1 1.4-.2 2.7 0 4.1.1.2.2.3.4.4.4 0 .8-.1 1.1-.2h.1c.1 0 .2-.1.2-.2v-.3c.3-1.2 1.3-2.1 2.5-2.4.6-.1 1.2.1 1.6.5.1.6 0 1.2-.3 1.7-.4.7-1.1 1.2-1.9 1.5-.9.1-1.8.3-2.8.2l-1.1-.7c-.9-.7-1.9-1.3-3-1.8-.2-.1-.5-.3-.7-.5l-.1-.1c-.6-.5-1.7-1.2-2.6-1.8l-.5-.3v-.1l.6-.4c.4-.2.8-.5 1.2-.8 0 0 .1 0 .1-.1l1.9-1.1c1.8-.9 3.5-2 5.1-3.3l.1-.1v-.2c.1-.2.1-.4 0-.6 0-.1-.1-.1-.2-.1-1.1 0-2.2.5-3 1.4-.2.2-.4.3-.6.4l-.2.1c-1.1.6-3.6 2.2-5 3 .1-1.7.3-3.4.7-5.1V11l-.1-.3-.1-.2h-.6l-.3.1-.3.1c-.1 0-.1.1-.1.1-.7 1.9-1.1 3.9-1.3 6-1-.6-2-1.2-3-1.6h-.1c-.3-.1-.5-.2-.7-.3l-.5-.3-.7-.5h-.2c-.4.1-.8.4-1.1.7v.5c.6.6 1.3 1 2.1 1.4l1 .5 1.5.8.3.2.2.1-2.7 2-1.5 1c-.3.2-.6.3-.8.4-.3.1-.5.3-.7.5v.2l.1.1.2.1.2.1h.2c.5-.1.9-.2 1.4-.4.7-.3 2.4-1.4 3.2-1.8l.3-.2c.2 0 .3-.1.4-.2.2-.2.4-.3.7-.4l.2-.1v.1c0 1.8.1 3.6.4 5.3v.1c.2.4.3.8.4 1.2l.3 1 .1.1c.3.2.7.3 1 .3h.1l.1-.1v-1.4c-.1-1.6-.2-4-.2-5.5v-.1l1.5.9c2.1 1.3 5.2 3.3 7.1 3.9.1 0 .2 0 .3-.1l.3-.2h.1c.1-.1.2-.3.2-.4 1.9 0 3.7-.8 5-2.2.4-.5.7-1.2.7-1.9-.3-.6-.4-1.1-.7-1.4" class="st4"/><path d="M73.2 30.8h-2.4v2.3h2.4v-2.3zm-.5 1.8h-1.4v-1.3h1.4v1.3z" class="st4"/><path d="M69.9 30.8h-3.5v.5h2.9v.9H66v.5h1.9v.7h-1.5v.5h3v1.4h.5v-1.8h-1.5v-.8h1.8v-.5h-.3z" class="st4"/><path d="M71.7 33.6h-.5v1.7h3.2v-.5h-2.7z" class="st4"/><path d="M73.9 30.7h.5v3h-.5z" style="fill:#222"/><path d="M74.8 33.6h.5v1.7h3.3v-.5h-2.8v-1.2H79v-.5h-4.2z" class="st4"/><path d="M82.1 32.1h.3v.9h.5v-2.3h-.5v.9h-.3v-.9h-.5V33h.5z" class="st4"/><path d="M81.6 33.1h-.2c-.7.1-1.1.7-1 1.4.1.7.7 1.1 1.4 1 .6-.1 1-.6 1-1.2.1-.7-.5-1.2-1.2-1.2zm0 1.9c-.1 0-.1 0 0 0-.5-.1-.7-.5-.6-.9s.5-.6.9-.5c.3.1.5.4.5.7-.1.4-.4.7-.8.7z" class="st4"/><path d="M77.4 32.9c.6-.1 1-.6 1-1.2 0-.7-.6-1.3-1.3-1.2h-.2c-.7.1-1.1.8-.9 1.5.2.7.8 1.1 1.4.9zm-.9-1.4c.1-.4.5-.6.9-.5.3.1.5.4.5.7 0 .4-.4.7-.9.7h-.1c-.4-.1-.6-.5-.4-.9z" class="st4"/><path d="M81.3 32c0-.2-.1-.4-.2-.6h.3v-.5h-.9v-.4H80v.4h-.9v.5h.5c-.2.2-.2.4-.2.7.1.5.5.9 1.1.9.4 0 .8-.5.8-1zm-1 .5s-.1 0 0 0c-.3 0-.5-.3-.5-.6s.3-.4.6-.4c.2 0 .4.2.4.5s-.2.5-.5.5z" class="st4"/><path d="M60.7 30.8h-1l-2.1 2v-2h-.7v4.5h.6v-2.4l2.4 2.4h.9l-2.5-2.5z" class="st4"/><path d="M64 33c.5-.1.8-.6.8-1 0-.8-.5-1.1-1.5-1.1h-2v4.6h2.3c.7 0 1.3-.6 1.3-1.3S64.5 33 64 33zm-2.1-1.7h1.2c.7 0 .9.3.9.7v.1c-.1.4-.5.6-.8.6h-1.3v-1.4zm1.3 3.5h-1.3v-1.6h1.4c.5 0 .8.4.8.8.1.5-.1.8-.9.8z" class="st4"/><path id="d" d="M99.2 2.5h30c2.8 0 5 2.2 5 5v30c0 2.8-2.2 5-5 5h-30c-2.8 0-5-2.2-5-5v-30c0-2.8 2.2-5 5-5z" style="fill:#fff;stroke:#e5e5e5;stroke-miterlimit:10"/><path d="M128.3 19.5c-1.2-1.3-3.2-1.3-4.5-.1l-.1.1c-1.3 1.5-1.3 3.6 0 5.1 1.2 1.3 3.2 1.3 4.5.1l.1-.1c1.2-1.5 1.2-3.7 0-5.1zm-1.1 3.8c-.6.7-1.7.8-2.4.2l-.2-.2c-.6-.8-.6-1.9 0-2.7.6-.7 1.7-.8 2.4-.2l.2.2c.6.9.6 1.9 0 2.7z" class="st7"/><path d="M121.5 23.1c-.2.3-.4.5-.7.6-.2.1-.5.2-.7.2-.5 0-1-.2-1.3-.6-.4-.3-.6-.8-.6-1.3 0-.6.2-1.1.6-1.5.3-.3.7-.4 1.2-.4.2 0 .5 0 .7.1.3.1.5.3.7.5l1.1-1c-.3-.4-.6-.7-1-.9-.5-.2-1-.3-1.5-.3-.8 0-1.6.3-2.2.9-.7.7-1.1 1.7-1.1 2.6 0 .8.3 1.7.8 2.3.6.8 1.5 1.2 2.5 1.2.6 0 1.1-.1 1.6-.4.4-.3.7-.6 1-1l-1.1-1z" class="st7"/><path d="m115 18.7-1.3 2.8-1.3-2.8h-1.7l2.2 4.5v2.1h1.5v-2.1l2.3-4.5z" class="st7"/><path d="m107.4 18.7-2.3 6.6h1.5l.4-1.3h2.6l.4 1.3h1.5l-2.3-6.6h-1.8zm.2 3.8.8-2.3.8 2.3h-1.6z" class="st7"/><path d="M105.4 21.1c0-.6-.2-1.1-.5-1.5-.2-.3-.5-.5-.9-.7-.3-.1-.6-.2-1-.2h-2.8v6.6h1.5v-1.8h1.4c.4 0 .8-.1 1.1-.3.4-.2.8-.6 1-1.1.2-.3.2-.6.2-1zm-1.8.8c-.2.1-.4.1-.6.1h-1.4v-1.9h1.3c.2 0 .4 0 .6.1s.3.2.4.3c.1.2.1.3.1.5 0 .4-.1.8-.4.9z" class="st7"/><path id="e" d="M144.4 2.5h30c2.8 0 5 2.2 5 5v30c0 2.8-2.2 5-5 5h-30c-2.8 0-5-2.2-5-5v-30c0-2.8 2.2-5 5-5z" style="fill:#ff3a4a"/><path d="M148.3 12.6h-2.9v10.8h1.6v-3.3h1.5c1.3 0 2.3-1 2.3-2.3v-2.9s.2-2.3-2.5-2.3zm.9 2.6v2.2c.1.5-.3.9-.7 1H147v-4.1h1.2c.6 0 1 .4 1 .9z" class="st9"/><path d="m153.5 12.6-1.8 10.8h1.7l.3-1.9h2l.3 1.9h1.8l-1.9-10.8h-2.4zm.4 7.3.8-5 .8 5h-1.6z" class="st9"/><path d="M163.5 18.2c-1.2-1.1-2.6-1.7-2.6-2.9-.1-.6.3-1.1.8-1.2s1.1.3 1.2.8v1h1.7c-.1-.7.5-3.1-2.5-3.3-3.5-.1-3.7 3.5-2.2 5.1.7.8 2.9 1.7 2.9 3 .2.5-.1 1.1-.7 1.3-.6.2-1.1-.1-1.3-.7v-1H159c-.1.6 0 1.3.2 1.9.4.8 1.1 1.4 2 1.4 1.9.3 3.4-.9 3.3-2.7.1-.9.5-1.2-1-2.7z" class="st9"/><path d="M170.7 18.2c-1.2-1.1-2.6-1.7-2.6-2.9-.1-.6.3-1.1.8-1.2s1.1.3 1.2.8v1h1.7c0-.8.6-3.2-2.4-3.4-3.5-.1-3.7 3.5-2.2 5.1.7.8 2.9 1.7 2.9 3 .2.5-.1 1.1-.7 1.3-.6.2-1.1-.1-1.3-.7v-1h-1.7c-.1.6 0 1.3.2 1.9.4.8 1.1 1.4 2 1.4 1.9.3 3.4-.9 3.3-2.7-.1-.8.3-1.1-1.2-2.6z" class="st9"/><path d="M149.4 27.3h-1.6v-.5h-.2v.5H146v.2h3.4z" class="st10"/><path d="M145.8 29.8h1.1v1.3h.2v-1.3h1.3v1.3h.2v-1.3h1.1v-.2h-3.9z" class="st10"/><path d="M146.4 28.5c0 .4.5.7 1.3.7s1.3-.2 1.3-.7c0-.4-.5-.7-1.3-.7s-1.3.3-1.3.7zm2.4 0c0 .3-.4.5-1.1.5s-1.1-.2-1.1-.5.4-.5 1.1-.5 1.1.2 1.1.5z" class="st10"/><path d="M150.5 29.8v-2.2h1.4v-.2h-1.6V30h.3c.7 0 1.1 0 1.7-.1v-.2c-.6.1-1 .1-1.8.1z" class="st10"/><path d="M153.5 28.6h-.8v-1.7h-.2v4h.2v-2.1h.8v2.3h.2v-4.3h-.2z" class="st10"/><path d="M156.7 28.3h1V30h.2v-3.2h-.2v1.3h-1z" class="st10"/><path d="M155.5 29.7h-.3V31h2.9v-.2h-2.6z" class="st10"/><path d="M155.7 28.2c.2.5.6.9 1.1 1.1l.1-.2c-.6-.2-1.1-.8-1.1-1.3v-.3h1v-.2h-2.3v.2h1v.3c0 .7-.5 1.2-1.1 1.4l.1.2c.6-.2 1-.6 1.2-1.2z" class="st10"/><path d="M161.4 27.4h-1.2v-.6h-.2v.6h-1.2v.2h2.6z" class="st10"/><path d="M162 26.8h-.2v4.3h.2v-2.2h.8v-.2h-.8z" class="st10"/><path d="M160.2 30v-.5c.5 0 .9-.3.9-.8s-.4-.8-1-.8-1 .3-1 .8c0 .4.3.7.9.8v.5h-1.3v.2c.8 0 1.8 0 2.7-.2v-.2c-.3.1-.8.2-1.2.2zm-.9-1.3c0-.3.3-.6.8-.6s.8.2.8.6c0 .3-.3.6-.8.6s-.8-.3-.8-.6z" class="st10"/><path d="M167.5 26.8h.2V30h-.2z" class="st10"/><path d="M165.3 29.7h-.3V31h2.9v-.2h-2.6z" class="st10"/><path d="M166.5 28.2c0-.6-.5-1-1.1-1s-1.1.4-1.1 1 .5 1 1.1 1c.7 0 1.1-.4 1.1-1zm-1.9 0c0-.5.4-.8.9-.8s.9.4.9.8c0 .5-.4.8-.9.8s-.9-.3-.9-.8z" class="st10"/><path d="m168.8 28.4.1.2c.6-.1 1.4-.4 1.6-.9.2.5 1 .8 1.6.9l.1-.2c-.7-.1-1.6-.5-1.6-1.1v-.1h1.5V27h-3.2v.2h1.5v.1c0 .6-.9 1-1.6 1.1z" class="st10"/><path d="M170.5 29.6c-.9 0-1.5.3-1.5.8s.6.8 1.5.8 1.5-.3 1.5-.8-.6-.8-1.5-.8zm0 1.3c-.7 0-1.2-.2-1.2-.6s.5-.6 1.2-.6 1.2.2 1.2.6-.5.6-1.2.6z" class="st10"/><path d="M168.6 28.9h3.9v.2h-3.9z" class="st10"/><path id="f" d="M31.6 47.5h30c2.8 0 5 2.2 5 5v30c0 2.8-2.2 5-5 5h-30c-2.8 0-5-2.2-5-5v-30c0-2.8 2.2-5 5-5z" style="fill:#1e4cc6"/><path d="M45.5 70.2c-.6-.6-1.4-.9-2.3-1-2 .2-3.5 1.9-3.3 3.9.1 1.8 1.6 3.2 3.3 3.3.8 0 1.7-.3 2.3-1v1h1.6v-7.2h-1.6v1zm-.5 4.1c-.4.4-.9.6-1.5.6-.5 0-1-.2-1.4-.6-.7-.8-.7-2 0-2.9.4-.4.9-.6 1.4-.6 1.1 0 2 .9 2 2.1 0 .6-.2 1-.5 1.4z" class="st9"/><path d="M36.5 67.5h-2.9v9h1.7v-2.6h1.2c1.8-.1 3.1-1.6 3-3.4-.1-1.6-1.4-2.9-3-3zm-.1 4.8h-1.1v-3.2h1.1c.9 0 1.6.7 1.6 1.6s-.8 1.6-1.6 1.6z" class="st9"/><path d="M51.1 72.2c-1.3-.2-1.7-.5-1.7-.8s.2-.7 1.1-.7c.6 0 1.1.3 1.4.8l1.4-.7c-.7-1.1-2-1.7-3.3-1.5-1.2 0-2.2 1-2.3 2.2 0 1 1.2 1.7 2.5 1.9s1.5.6 1.5.8-.1.8-1.1.8c-.7 0-1.2-.4-1.6-1l-1.5.7c.6 1.1 1.8 1.8 3.1 1.8 1.5 0 2.8-.9 2.8-2.2s-.9-1.9-2.3-2.1z" class="st9"/><path d="M57.3 72.2c-1.3-.2-1.7-.5-1.7-.8s.2-.7 1.1-.7c.6 0 1.1.3 1.4.8l1.4-.7c-.7-1.1-2-1.7-3.3-1.5-1.2 0-2.2 1-2.3 2.2 0 1 1.2 1.7 2.5 1.9s1.5.6 1.5.8-.2.7-1.3.7c-.7 0-1.2-.4-1.6-1l-1.5.7c.6 1.1 1.8 1.8 3.1 1.8 1.5 0 2.8-.9 2.8-2.2s-.7-1.8-2.1-2z" class="st9"/><path d="m55.1 62.5-.9-2.9h-1.3v3.7h.9l-.1-3 1 3H56v-3.7h-.9z" class="st9"/><path d="m37.6 59.6-.7 3.8h1l.5-3.4.5 3.4h1l-.7-3.8z" class="st9"/><path d="m43.2 59.6-.5 2.9-.4-2.9h-1.6v3.8h.9V60l.7 3.4h.9l.6-3.4.1 3.4h.9l-.1-3.8z" class="st9"/><path d="M34.6 60.6v-.2c0-.2.2-.3.3-.2.2 0 .3.1.3.3v.3h.9v-.3c0-.6-.5-1-1.1-1h-.2c-.6-.1-1.2.3-1.3.8v.5c.2.8 1.5 1 1.7 1.5v.3c0 .2-.2.3-.4.3 0-.1-.2-.2-.2-.4v-.4h-1v.3c.2.8.9 1.2 1.7 1 .4-.1.8-.4 1-.8V62c-.2-.7-1.6-1-1.7-1.4z" class="st9"/><path d="M46.7 60.6v-.2c0-.2.2-.3.3-.2.2 0 .3.1.3.3v.3h.9v-.3c0-.6-.5-1-1.1-1h-.2c-.6-.1-1.1.2-1.3.8v.5c.1.8 1.5 1 1.6 1.5v.3c0 .2-.2.3-.4.2-.2 0-.3-.1-.4-.3v-.4h-1v.3c.2.7.9 1.2 1.7 1 .4-.1.8-.4 1-.8V62c.1-.7-1.3-1-1.4-1.4z" class="st9"/><path d="M50.9 62.4c0 .3-.2.4-.4.4s-.3-.1-.4-.3v-2.9h-.9v2.9c.1.4.4.7.8.8.7.2 1.5-.1 1.7-.8v-2.9h-.9v2.8h.1z" class="st9"/><path d="M58.3 61.3v.5h.4v.6c0 .2-.2.3-.4.3s-.3-.1-.4-.3v-2c0-.2.2-.3.4-.3s.3.1.4.3v.3h.9v-.3c-.1-.4-.4-.7-.8-.8-.7-.3-1.5.1-1.8.8v2c.1.4.4.7.8.8.7.3 1.5-.1 1.8-.8v-1.2h-1.3v.1z" class="st9"/><linearGradient id="SVGID_1_" x1="91.525" x2="91.525" y1="222.55" y2="182.55" gradientTransform="translate(0 -135.01)" gradientUnits="userSpaceOnUse"><stop offset="0" style="stop-color:#03b565"/><stop offset="1" style="stop-color:#03ec66"/></linearGradient><path d="M76.5 47.5h30c2.8 0 5 2.2 5 5v30c0 2.8-2.2 5-5 5h-30c-2.8 0-5-2.2-5-5v-30c0-2.8 2.2-5 5-5z" style="fill:url(#SVGID_1_)"/><path d="m95 67.6-6.3-9.1h-5.2v17H89v-9.1l6.3 9.1h5.2v-17H95v9.1z" class="st9"/><path id="h" d="M121.6 47.5h30c2.8 0 5 2.2 5 5v30c0 2.8-2.2 5-5 5h-30c-2.8 0-5-2.2-5-5v-30c0-2.8 2.2-5 5-5z" style="fill:#0046ff"/><path d="M124 78c.4-.2.7-.6 1-.9.1.2.2.3.4.4s.3.3.5.4.5.3.7.3c.1.1.2 0 .3-.1l.3-.6-.6-.3c-.2-.1-.4-.2-.6-.4-.2-.1-.3-.3-.4-.5s-.2-.4-.2-.6v-.9h-1.1s-.1 0-.1.1v.1c.1.1.1.1.1.2v.6c0 .2 0 .4-.1.6s-.2.4-.4.5c-.2.2-.4.3-.6.4s-.4.2-.7.3l.3.6.1.1c.1 0 .2 0 .3-.1.1 0 .2-.1.3-.2.3.1.4.1.5 0z" class="st9"/><path d="M125 80.4c-.1-.1-.1-.2-.1-.3v-1.3h-1.2s-.1 0-.1.1v.1c.1.1.1.1.1.2v1c0 .2 0 .4.1.5s.1.3.3.3c.1.1.3.1.4.2.2 0 .4.1.6 0h3.9v-.7h-3.6c-.2 0-.3-.1-.4-.1z" class="st9"/><path d="M127.8 75.2v3.9h1.1v-4.3h-1.2s-.1 0-.1.1v.1c.1 0 .1.1.2.2z" class="st9"/><path d="M132 80.4c-.1-.1-.1-.2-.1-.3v-1h-1.2s-.1 0-.1.1v.1c0 .1.1.1.1.2v.7c0 .2 0 .4.1.5.1.1.1.3.3.3.1.1.3.1.4.2.2 0 .4.1.6 0h3.8v-.7h-3.6c-.1 0-.2-.1-.3-.1z" class="st9"/><path d="M131.1 78.5c.5.2 1.1.2 1.6 0l.6-.3c.2-.1.3-.3.4-.5.1-.2.1-.4.1-.6s0-.3-.1-.5c-.1-.1-.2-.3-.3-.4h.7v-.8h-1.6v-.8h-1.2c-.1 0-.1 0-.1.1s0 .1.1.1c.1.1.1.1.1.2v.4h-1.7v.8h.7c-.1.1-.2.3-.3.4-.1.2-.1.3-.1.5s0 .4.1.6c.1.2.2.4.4.5l.6.3zm.2-2.1c.3-.3.8-.3 1.1 0 .1.2.2.4.2.6s-.1.4-.2.6c-.3.3-.8.3-1.1 0-.1-.2-.2-.4-.2-.6s.1-.4.2-.6z" class="st9"/><path d="M135.9 74.8h-1.2s-.1 0-.1.1v.1c.1.1.1.1.1.2v4h1.1v-2h.8v-.8h-.8l.1-1.6z" class="st9"/><path d="M138.3 77.2c.3.1.5.2.8.3.8.1 1.6.1 2.3 0 .3-.1.6-.2.8-.3.2-.1.4-.3.5-.5s.2-.4.2-.6-.1-.4-.2-.6c-.1-.2-.3-.4-.5-.5-.3-.1-.5-.2-.8-.3-.8-.1-1.6-.1-2.3 0-.3.1-.6.2-.8.3-.2.1-.4.3-.5.5s-.2.4-.2.6.1.4.2.6c.1.2.3.4.5.5zm.8-1.5c.7-.3 1.6-.3 2.3 0 .2.1.3.3.3.5s-.1.4-.3.5c-.8.2-1.6.2-2.3 0-.2-.1-.3-.3-.3-.5s.1-.4.3-.5z" class="st9"/><path d="M139.2 80.5h-.3c-.1-.1-.1-.2-.1-.2v-1h-1.2s-.1 0-.1.1v.1c0 .1.1.1.1.2v.9c0 .1 0 .3.1.4 0 .1.1.2.2.3.1.1.3.1.4.1h4.6v-.9h-3.7z" class="st9"/><path d="M136.9 78h6.8v.8h-6.8z" class="st10"/><path d="M146.6 78.3c.2-.1.4-.2.5-.3.1-.1.3-.3.3-.5.1-.2.1-.4.1-.6 0-.1 0-.3-.1-.4 0-.1-.1-.2-.2-.4h.5v-.8h-1.3v-.7h-1.2s-.1 0-.1.1v.1c.1.1.1.1.1.2v.3h-1.5v.8h.6c-.1.1-.1.2-.2.4 0 .1-.1.3-.1.4 0 .2 0 .4.1.6s.2.3.3.5c.2.1.3.2.5.3.8.1 1.3.1 1.7 0zm-1.2-.9c-.1-.1-.1-.2-.1-.2v-.6c0-.1.1-.2.1-.2l.2-.2c.2-.1.4-.1.6 0 .1 0 .2.1.2.2.1.1.1.2.1.2v.6c0 .1-.1.2-.1.2l-.2.2c-.2.1-.4.1-.6 0 0-.1-.1-.1-.2-.2z" class="st9"/><path d="M149.6 74.8v1.3h-.5v-1.3H148s-.1 0-.1.1v.1c0 .1.1.1.1.2v3.1h1V77h.6v1.5h1v-3.6l-1-.1c0 .1 0 0 0 0z" class="st9"/><path d="M149.9 79a5 5 0 0 0-3.8 0c-.4.2-.6.6-.6 1.1 0 .2.1.4.2.6.1.2.3.4.5.5.3.1.5.2.8.3h1c.4 0 .7 0 1.1-.1.3-.1.6-.2.8-.3.2-.1.4-.3.5-.5s.2-.4.2-.6c0-.4-.3-.8-.7-1zm-.5 1.3c-.1.1-.1.2-.2.2-.1.1-.3.1-.4.1-.4.1-.9.1-1.3 0-.2 0-.3-.1-.4-.1-.1 0-.2-.1-.2-.2-.3-.1-.3-.2-.3-.3s0-.2.1-.3.1-.2.2-.2c.1-.1.3-.1.4-.1.4-.1.9-.1 1.3 0 .2 0 .3.1.4.1.1 0 .2.1.2.2.1.1.1.2.1.3.2.1.1.2.1.3z" class="st9"/><path d="M136.6 54.5h-.4c-4.4.2-7.8 3.9-7.6 8.4.2 4.4 3.9 7.8 8.4 7.6 4.4-.2 7.8-3.9 7.6-8.4-.2-4.2-3.7-7.6-8-7.6zm-1.4 14.9h-.4c-1.1-.1-2.1-.5-2.9-1.2s-1.4-1.6-1.6-2.7c-.3-.9-.4-2 .1-1.9.3.3.5.7.6 1 .2.3.4.6.7.8.1.1.4-.6.8-1 .3-.2.5-.3.6.4.1.8-.1 1.7.1 1.7s.7-.2 1.7-.3c.4 0 .6 0 .2.6-.3.4-.6.8-1 1.1.9.8 2 .7 2 1.1 0 .3-.4.4-.9.4zm4.9-.4c-.8.5-1.7.8-2.6.8-.1 0-.2-.1-.3-.2 0-.1.1-.2.3-.2 2.4-.5 1.7-2 .8-2.8-.4-.3-3.7-3.2-3.7-3.2-3.2-2.7-2.9-4.9-2.9-4.9.2-2.6 2.5-3.3 4.2-3.1.1 0 .3.1.3.2v.1c-.1.1-.2.2-.3.2-.5 0-1 .1-1.4.3-1.4.9-1 2.6.9 4.3l.7.7s.4.3 1.1 1c1.4 1.3 2.2 2 2.2 2 2.5 2.2 1.7 4.2.7 4.8zm1.5-8.8c-.8.6-1.6.3-1.9-.8 0-.4-.4-.8-.8-.7h-.2c-.4.2-.2.9.1 1.6.3.4.2 1-.2 1.4-.2.2-.5.2-.7.2h-.1c-.5-.1-.9-.5-1-.9-.1-.3-.1-.7 0-1 .1-.7.3-1.4.6-2 .4-.9-.5-1.5-.4-1.8.2-.5.8.1 1.5.2.6 0 1 0 1.5.1.6 0 1.2.3 1.7.7.3.4-.2.8-.7.5-.4-.2-.9-.1-.6.4.2.3.6.5.9.5.5.1.9.5.8 1.1 0 .1-.2.3-.5.5z" class="st9"/></svg>