<svg xmlns="http://www.w3.org/2000/svg" xml:space="preserve" id="a" x="0" y="0" style="enable-background:new 0 0 120 90" version="1.1" viewBox="0 0 120 90"><style>.st5{fill:#1e1e1e}</style><path d="M16.8 12.6c-1.1 0-2 .9-2 2v57.6h90.3V12.6H16.8z" style="fill:#dcdcdc"/><path d="M85.2 12.6v37.3H14.8v22.3h90.3V12.6z" style="fill:#c8c8c8"/><path d="M21.4 17.9v40.7h77.2V17.9z" style="fill:#42b1fc"/><path d="M89.7 17.9v2.4c0 16.3-13.2 29.6-29.6 29.6H21.3v8.7h77.1V17.9h-8.7z" style="fill:#189fea"/><path d="M69.2 67.9c0 1.2-1 2.2-2.2 2.2H52.9c-1.2 0-2.2-1-2.2-2.2 0-1.2-1-2.2-2.2-2.2h-41c-.6 0-1.1.5-1.1 1.1V71c0 4.2 3.4 7.6 7.6 7.6h91.9c4.2 0 7.6-3.4 7.6-7.6v-4.2c0-.6-.5-1.1-1.1-1.1h-41c-1.2.1-2.2 1-2.2 2.2z" style="fill:#b4b4b4"/><path d="M14.8 67.1c-.7 0-1.3-.6-1.3-1.3V13.3c0-1.8 1.5-3.3 3.3-3.3H62c.7 0 1.3.6 1.3 1.3s-.6 1.3-1.3 1.3H16.9c-.4 0-.7.3-.7.7v52.4c-.1.8-.6 1.4-1.4 1.4z" class="st5"/><path d="M105.1 67.1c-.7 0-1.3-.6-1.3-1.3V39.6c0-.7.6-1.3 1.3-1.3.7 0 1.3.6 1.3 1.3v26.1c0 .8-.6 1.4-1.3 1.4z" class="st5"/><path d="M98.6 60H21.4c-.7 0-1.3-.6-1.3-1.3V18c0-.7.6-1.3 1.3-1.3H62c.7 0 1.3.6 1.3 1.3s-.6 1.3-1.3 1.3H22.8v38.1h74.4V35.7c0-.7.6-1.3 1.3-1.3.7 0 1.3.6 1.3 1.3v23.1c0 .6-.6 1.2-1.2 1.2z" class="st5"/><path d="M105.9 80h-92C9 80 5 76 5 71.1v-4.2c0-1.4 1.1-2.5 2.5-2.5h41c1.9 0 3.5 1.6 3.5 3.5 0 .5.4.9.9.9H67c.5 0 .9-.4.9-.9 0-1.9 1.6-3.5 3.5-3.5h41c1.4 0 2.5 1.1 2.5 2.5v4.2c-.1 4.9-4.1 8.9-9 8.9zM7.8 67.1v4c0 3.5 2.8 6.3 6.3 6.3H106c3.5 0 6.3-2.8 6.3-6.3v-4H71.4c-.5 0-.9.4-.9.9 0 1.9-1.6 3.5-3.5 3.5H52.9c-1.9 0-3.5-1.6-3.5-3.5 0-.5-.4-.9-.9-.9H7.8z" class="st5"/><path d="M105.1 67.1c.7 0 1.3-.6 1.3-1.3V13.3c0-1.8-1.5-3.3-3.3-3.3H57.8c-.7 0-1.3.6-1.3 1.3s.6 1.3 1.3 1.3H103c.4 0 .7.3.7.7v52.4c0 .8.6 1.4 1.4 1.4z" class="st5"/><path d="M98.6 60c.7 0 1.3-.6 1.3-1.3V18c0-.7-.6-1.3-1.3-1.3H57.9c-.7 0-1.3.6-1.3 1.3s.6 1.3 1.3 1.3h39.3v38.1" class="st5"/><path d="M43.4 44.4h-2.6V31.8h2.6v12.6z"/><path d="M51.3 40.3h-5.7v-2.1h5.7v2.1z"/><path d="M53.6 31.8h4.9c2.9 0 4.5 1.8 4.5 4.3s-1.7 4.3-4.6 4.3h-2.3v4.1h-2.6V31.8h.1zm4.5 6.4c1.6 0 2.3-.9 2.3-2.1s-.7-2.1-2.3-2.1h-1.8v4.3l1.8-.1z"/><path d="M67.2 44.4h-2.6V31.8h2.6v12.6z"/><path d="M79.9 44.4h-2.3l-5.5-8H72v8h-2.6V31.8h2.3l5.5 8h.1v-8h2.6v12.6z"/></svg>