<svg xmlns="http://www.w3.org/2000/svg" xmlns:xlink="http://www.w3.org/1999/xlink" xml:space="preserve" id="a" x="0" y="0" style="enable-background:new 0 0 90 90" version="1.1" viewBox="0 0 90 90"><style>.st5{fill:#1e1e1e}</style><defs><path id="SVGID_1_" d="M20.8 6h48.5v78H20.8z"/></defs><clipPath id="SVGID_00000150800874385992164840000014723636824333415359_"><use xlink:href="#SVGID_1_" style="overflow:visible"/></clipPath><g style="clip-path:url(#SVGID_00000150800874385992164840000014723636824333415359_)"><path d="M26.3 7.3h37.4c2.3 0 4.2 1.9 4.2 4.2v66.9c0 2.3-1.9 4.2-4.2 4.2H26.3c-2.3 0-4.2-1.9-4.2-4.2V11.6c0-2.4 1.9-4.3 4.2-4.3z" style="fill:#fff"/><path d="M63.7 7.3h-3.2v42.6c0 12.2-9.9 22.1-22.1 22.1H22.1v6.4c0 2.3 1.9 4.2 4.2 4.2h37.4c2.3 0 4.2-1.9 4.2-4.2V11.6c0-2.4-1.9-4.3-4.2-4.3" style="fill:#e6e6e6"/><path d="M41.5 7.3v2.5c0 1.9 1.6 3.5 3.5 3.5s3.5-1.6 3.5-3.5V7.3h-7z" style="fill:#bebebe"/><path d="M52.9 54.2H37.1c-.8 0-1.5-.7-1.5-1.5V38.9c0-.8.7-1.5 1.5-1.5h15.8c.8 0 1.5.7 1.5 1.5v13.8c.1.8-.6 1.5-1.5 1.5" style="fill:#ffc700"/><path d="M63.7 84H26.3c-3.1 0-5.6-2.5-5.6-5.6V11.6c0-3.1 2.5-5.6 5.6-5.6h37.4c3.1 0 5.6 2.5 5.6 5.6v66.9c-.1 3-2.6 5.5-5.6 5.5M26.3 8.7c-1.6 0-2.9 1.3-2.9 2.9v66.9c0 1.6 1.3 2.9 2.9 2.9h37.4c1.6 0 2.9-1.3 2.9-2.9V11.6c0-1.6-1.3-2.9-2.9-2.9H26.3z" class="st5"/><path d="M45 14.6c-2.7 0-4.8-2.2-4.8-4.8V7.3c0-.7.6-1.3 1.3-1.3h7c.7 0 1.3.6 1.3 1.3v2.5c0 2.7-2.1 4.8-4.8 4.8m-2.2-5.9v1.1c0 1.2 1 2.1 2.1 2.1s2.1-1 2.1-2.1V8.7h-4.2z" class="st5"/><path d="M52.9 55.5H37.1c-1.6 0-2.9-1.3-2.9-2.9V38.9c0-1.6 1.3-2.9 2.9-2.9h15.8c1.6 0 2.9 1.3 2.9 2.9v13.8c0 1.5-1.3 2.8-2.9 2.8M37.1 38.7c-.1 0-.2.1-.2.2v13.8c0 .1.1.2.2.2h15.8c.1 0 .2-.1.2-.2V38.9c0-.1-.1-.2-.2-.2H37.1z" class="st5"/><path d="M50.5 38.7h-11c-.7 0-1.3-.6-1.3-1.3V26.7c0-3.8 3.1-6.8 6.8-6.8s6.8 3.1 6.8 6.8v10.6c0 .8-.6 1.4-1.3 1.4M40.9 36h8.3v-9.3c0-2.3-1.9-4.1-4.2-4.1s-4.2 1.9-4.2 4.1l.1 9.3z" class="st5"/><path d="M45 48.4c-.7 0-1.3-.6-1.3-1.3v-2.7c0-.7.6-1.3 1.3-1.3.7 0 1.3.6 1.3 1.3v2.7c0 .7-.6 1.3-1.3 1.3" class="st5"/><path d="M33.1 68.9c-.7 0-1.3-.6-1.3-1.3V64c0-.7.6-1.3 1.3-1.3s1.3.6 1.3 1.3v3.6c0 .7-.6 1.3-1.3 1.3" class="st5"/><path d="M33.1 68.9c-.1 0-.3 0-.4-.1l-3.4-1.1c-.7-.2-1.1-1-.8-1.7s1-1.1 1.7-.8l3.4 1.1c.7.2 1.1 1 .9 1.7-.4.5-.9.9-1.4.9" class="st5"/><path d="M30.9 71.8c-.3 0-.5-.1-.8-.3-.6-.4-.7-1.3-.3-1.9l2.1-2.9c.4-.6 1.3-.7 1.9-.3.6.4.7 1.3.3 1.9L32 71.2c-.2.4-.6.6-1.1.6" class="st5"/><path d="M35.2 71.8c-.4 0-.8-.2-1.1-.6L32 68.3c-.4-.6-.3-1.4.3-1.9.6-.4 1.4-.3 1.9.3l2.1 2.9c.4.6.3 1.4-.3 1.9-.3.2-.6.3-.8.3" class="st5"/><path d="M33.1 68.9c-.6 0-1.1-.4-1.3-.9-.2-.7.2-1.4.9-1.7l3.4-1.1c.7-.2 1.5.2 1.7.8.2.7-.2 1.4-.8 1.7l-3.4 1.1c-.3 0-.4.1-.5.1" class="st5"/><path d="M45 68.9c-.7 0-1.3-.6-1.3-1.3V64c0-.7.6-1.3 1.3-1.3.7 0 1.3.6 1.3 1.3v3.6c0 .7-.6 1.3-1.3 1.3" class="st5"/><path d="M45 68.9c-.1 0-.3 0-.4-.1l-3.4-1.1c-.7-.2-1.1-1-.9-1.7.2-.7 1-1.1 1.7-.8l3.4 1.1c.7.2 1.1 1 .9 1.7-.2.5-.7.9-1.3.9" class="st5"/><path d="M42.9 71.8c-.3 0-.6-.1-.8-.3-.6-.4-.7-1.3-.3-1.9l2.1-2.9c.4-.6 1.3-.7 1.9-.3.6.4.7 1.3.3 1.9L44 71.2c-.3.4-.7.6-1.1.6" class="st5"/><path d="M47.1 71.8c-.4 0-.8-.2-1.1-.6l-2.1-2.9c-.4-.6-.3-1.4.3-1.9.6-.4 1.4-.3 1.9.3l2.1 2.9c.4.6.3 1.4-.3 1.9-.2.2-.5.3-.8.3" class="st5"/><path d="M45 68.9c-.6 0-1.1-.4-1.3-.9-.2-.7.2-1.4.8-1.7l3.4-1.1c.7-.2 1.5.2 1.7.8.2.7-.2 1.4-.8 1.7l-3.4 1.1c-.1 0-.3.1-.4.1" class="st5"/><path d="M56.9 68.9c-.7 0-1.3-.6-1.3-1.3V64c0-.7.6-1.3 1.3-1.3s1.3.6 1.3 1.3v3.6c.1.7-.5 1.3-1.3 1.3" class="st5"/><path d="M56.9 68.9c-.1 0-.3 0-.4-.1l-3.4-1.1c-.7-.2-1.1-1-.9-1.7s1-1.1 1.7-.8l3.4 1.1c.7.2 1.1 1 .8 1.7-.1.5-.6.9-1.2.9" class="st5"/><path d="M54.8 71.8c-.3 0-.5-.1-.8-.3-.6-.4-.7-1.3-.3-1.9l2.1-2.9c.4-.6 1.3-.7 1.9-.3.6.4.7 1.3.3 1.9l-2.1 2.9c-.3.4-.7.6-1.1.6" class="st5"/><path d="M59.1 71.8c-.4 0-.8-.2-1.1-.6l-2.1-2.9c-.4-.6-.3-1.4.3-1.9.6-.4 1.4-.3 1.9.3l2.1 2.9c.4.6.3 1.4-.3 1.9-.3.2-.6.3-.8.3" class="st5"/><path d="M56.9 68.9c-.6 0-1.1-.4-1.3-.9-.2-.7.2-1.4.8-1.7l3.4-1.1c.7-.2 1.4.2 1.7.8.2.7-.2 1.4-.8 1.7l-3.4 1.1c-.1 0-.2.1-.4.1" class="st5"/></g></svg>