<svg xmlns="http://www.w3.org/2000/svg" xmlns:xlink="http://www.w3.org/1999/xlink" xml:space="preserve" id="img" x="0" y="0" style="enable-background:new 0 0 100 100" version="1.1" viewBox="0 0 100 100"><style>.st2,.st4{fill-rule:evenodd;clip-rule:evenodd;fill:#f2d6c0}.st4{fill:#946832}</style><path id="box" d="M50 0c27.6 0 50 22.4 50 50s-22.4 50-50 50S0 77.6 0 50 22.4 0 50 0z" style="fill:#efefef"/><defs><path id="SVGID_1_" d="M50 0c27.6 0 50 22.4 50 50s-22.4 50-50 50S0 77.6 0 50 22.4 0 50 0z"/></defs><clipPath id="SVGID_00000093881852351907805340000018059895384033415840_"><use xlink:href="#SVGID_1_" style="overflow:visible"/></clipPath><g style="clip-path:url(#SVGID_00000093881852351907805340000018059895384033415840_)"><path d="M25.3 93.5c.2-10.2-1.8-20.4 19.8-22.2v-8.2H56.2v8.2c21.6 1.8 19.6 12 19.8 22.2-.7.5-1.4.9-2.1 1.3l-23.1-.1h-.3l-23 .1c-.7-.4-1.4-.9-2.2-1.3z" class="st2"/><path d="M56.3 63.4H45c1.3 4.4 10.1 4.4 11.3 0z" style="fill-rule:evenodd;clip-rule:evenodd;fill:#d8b79c"/><path d="M35 43.5c-1.9-.2-1.6 11 1.6 11 2.6 5.7 7.2 10.5 14 10.5 6.7 0 11.4-4.8 14-10.5 2.9 0 3.5-11.2 1.6-11 .7-12 .2-19.5-15.5-19.5C35 23.9 34.3 31 35 43.5z" class="st2"/><path d="M50.6 55.6c-1-2.4-5.4.4-7.2 2.2 2.3.7 8.7 1.3 7.2-2.2z" class="st4"/><path d="M50.6 55.6c1-2.4 5.4.4 7.2 2.2-2.3.7-8.7 1.3-7.2-2.2z" class="st4"/><path d="M38 47.9c0-2.7-.5-4.5-3-4.4-2.7-8.6 0-15.7 7.8-19.6 2.5-1.2 5.2-.9 7.8-.7 2.6-.2 5.3-.5 7.8.7 7.8 3.9 10.2 10.7 7.8 19.6-2.5-.1-3 1.7-3 4.4-.7-5.4-1.5-11-5.7-13.6-1.1-.7-3.8 1.9-6.9 1.9-3.1 0-5.5-2.7-6.9-1.9-4.1 2.6-5 8.1-5.7 13.6z" class="st4"/><path d="M25 93.3c0-10.4-.8-20.5 20.1-22.4l5.6 5.5 5.5-5.5c20.9 1.9 20.1 12 20.1 22.4-7.3 4.9-16.1 7.7-25.6 7.7S32.4 98.2 25 93.3z" style="fill-rule:evenodd;clip-rule:evenodd;fill:#d0a905"/><path d="M25 93.3c0-10.4-.8-20.5 20.1-22.4l5.6 28.6 5.5-28.6c20.9 1.9 20.1 12 20.1 22.4-7.3 4.9-16.1 7.7-25.6 7.7S32.4 98.2 25 93.3z" style="fill-rule:evenodd;clip-rule:evenodd;fill:#330"/><path d="m50.7 74.1 5.5-5.6 1.2 2.5-1.2 10.3-5.5-4.7-5.4 4.7L43.8 71l1.4-2.5z" style="fill-rule:evenodd;clip-rule:evenodd;fill:#fc0"/><path d="m52.5 44.2 7.9-.3c.7 0 1.3.7 1.3 1.5l-.2 3.7c0 .8-.6 1.5-1.3 1.5h-7.5c-.7 0-1.2-.7-1.3-1.5l-.2-2.4c-.4-.2-.9-.2-1.3 0l-.2 2.4c-.1.8-.6 1.5-1.3 1.5H41c-.7 0-1.3-.7-1.3-1.5l-.2-3.7c0-.8.6-1.5 1.3-1.5l7.9.3c.7 0 1.4.7 1.3 1.5v.2c.4-.1.8-.1 1.2 0v-.2c-.1-.8.6-1.4 1.3-1.5zm-3.8.9c.3 0 .6.2.6.6l-.3 3.4c0 .4-.2.8-.6.8H41c-.3 0-.6-.4-.6-.7l-.2-3.7c0-.4.3-.7.6-.6l7.9.2zm3.8 0c-.3 0-.6.2-.6.6l.3 3.4c0 .4.2.8.6.8h7.5c.3 0 .6-.4.6-.7l.2-3.7c0-.4-.3-.7-.6-.6l-8 .2z" style="fill-rule:evenodd;clip-rule:evenodd"/></g></svg>