<svg xmlns="http://www.w3.org/2000/svg" xml:space="preserve" id="btn_print" x="0" y="0" style="enable-background:new 0 0 40 40" version="1.1" viewBox="0 0 40 40"><style>.st0{fill-rule:evenodd;clip-rule:evenodd;fill:#11223e}</style><path d="M27.7 15.1h-3V11c0-.3-.2-.5-.5-.5h-8.5c-.3 0-.5.2-.5.5v4.1h-3c-.7 0-1.3.6-1.3 1.3V24c0 .7.6 1.3 1.3 1.3H15V29c0 .3.2.5.5.5h8.8c.3 0 .5-.2.5-.5v-3.8h2.8c.7 0 1.3-.6 1.3-1.3v-7.6c.1-.7-.5-1.2-1.2-1.2zm-11.4-3.6h7.5v3.6h-7.5v-3.6zm7.6 17h-7.8v-7h7.8v7zm4.1-4.6c0 .1-.1.3-.3.3h-2.8v-2.8h.6c.2 0 .4.2.4.4 0 .3.2.5.5.5s.5-.2.5-.5c0-.8-.6-1.4-1.4-1.4h-11c-.8 0-1.4.6-1.4 1.4 0 .3.2.5.5.5s.5-.2.5-.5c0-.2.2-.4.4-.4h.6v2.8h-2.8c-.2 0-.3-.1-.3-.3v-7.6c0-.2.1-.3.3-.3h15.5c.2 0 .3.1.3.3v7.6z" class="st0"/><path d="M19.2 26.6h1.6c.3 0 .5-.2.5-.5s-.2-.5-.5-.5h-1.6c-.3 0-.5.2-.5.5s.2.5.5.5zM19.2 24.3h1.6c.3 0 .5-.2.5-.5s-.2-.5-.5-.5h-1.6c-.3 0-.5.2-.5.5s.2.5.5.5z" class="st0"/></svg>