<svg xmlns="http://www.w3.org/2000/svg" xml:space="preserve" id="Layer_1" x="0" y="0" style="enable-background:new 0 0 14 14" version="1.1" viewBox="0 0 14 14"><style>.st0{fill-rule:evenodd;clip-rule:evenodd;fill:#11223e}</style><path d="M4 0H2C.9 0 0 .9 0 2v2c0 1.1.9 2 2 2h2c1.1 0 2-.9 2-2V2c0-1.1-.9-2-2-2zM12 0h-2C8.9 0 8 .9 8 2v2c0 1.1.9 2 2 2h2c1.1 0 2-.9 2-2V2c0-1.1-.9-2-2-2zM4 8H2c-1.1 0-2 .9-2 2v2c0 1.1.9 2 2 2h2c1.1 0 2-.9 2-2v-2c0-1.1-.9-2-2-2zM12 8h-2c-1.1 0-2 .9-2 2v2c0 1.1.9 2 2 2h2c1.1 0 2-.9 2-2v-2c0-1.1-.9-2-2-2z" class="st0"/></svg>