<svg xmlns="http://www.w3.org/2000/svg" width="20" height="20"><path d="M1437.95 71a10.005 10.005 0 0 1-7.81 8.763L1430 80h-4l-.14-.238a10.005 10.005 0 0 1-7.81-8.762h-.05v-2h.05a10.005 10.005 0 0 1 7.81-8.762L1426 60h4l.14.237a10.005 10.005 0 0 1 7.81 8.763h.05v2h-.05Zm-13.3 6.232a20.478 20.478 0 0 1-1.61-6.232h-2.97a7.98 7.98 0 0 0 4.58 6.232ZM1420.07 69h2.97a20.479 20.479 0 0 1 1.61-6.232 7.98 7.98 0 0 0-4.58 6.232Zm6.87 8.9a5.73 5.73 0 0 0 2.12 0 21.371 21.371 0 0 0 1.9-6.9h-5.92a21.371 21.371 0 0 0 1.9 6.9ZM1428 62a7.975 7.975 0 0 0-1.06.1 21.375 21.375 0 0 0-1.9 6.9h5.92a21.375 21.375 0 0 0-1.9-6.9 7.975 7.975 0 0 0-1.06-.1Zm3.35.767a20.772 20.772 0 0 1 1.61 6.233h2.97a7.98 7.98 0 0 0-4.58-6.233Zm1.61 8.233a20.478 20.478 0 0 1-1.61 6.232 7.98 7.98 0 0 0 4.58-6.232h-2.97Z" data-name="Rectangle 4 copy" style="fill-rule:evenodd" transform="translate(-1418 -60)"/></svg>