<svg xmlns="http://www.w3.org/2000/svg" xml:space="preserve" id="Layer_1" x="0" y="0" style="enable-background:new 0 0 16 11" version="1.1" viewBox="0 0 16 11"><style>.st0{fill-rule:evenodd;clip-rule:evenodd}</style><path d="M15.9 5.1C14.2 2.4 11.3 0 8 0 4.7 0 1.8 2.4.1 5.1c-.1.2-.1.6 0 .8C1.8 8.6 4.7 11 8 11c3.3 0 6.2-2.4 7.9-5.1.1-.2.1-.6 0-.8zM8 9.8c-2.8 0-5.2-2.1-6.7-4.3C2.8 3.2 5.2 1.2 8 1.2c2.8 0 5.3 2.1 6.7 4.3-1.4 2.3-3.9 4.3-6.7 4.3z" class="st0"/><path d="M8 2.4c-1.8 0-3.2 1.4-3.2 3.1 0 1.7 1.4 3.1 3.1 3.1 1.7 0 3.2-1.4 3.2-3.1 0-1.7-1.4-3.1-3.1-3.1zm.1 5.1c-1.1 0-2-.8-2-1.9 0-1.1.8-2 1.9-2 1.1 0 2 .9 2 2 0 1-.9 1.8-1.9 1.9z" class="st0"/></svg>