<svg xmlns="http://www.w3.org/2000/svg" xml:space="preserve" id="Layer_1" x="0" y="0" style="enable-background:new 0 0 14 13.6" version="1.1" viewBox="0 0 14 13.6"><style>.st0{fill-rule:evenodd;clip-rule:evenodd;fill:#bababa}</style><path d="M13.2 8.3c-.5 0-.8.3-.9.8V12H1.6V1.6h2.7c.4 0 .8-.4.8-.8S4.8 0 4.4 0H1.6C.8 0 0 .7 0 1.6V12c0 .9.8 1.6 1.6 1.6h10.7c.9 0 1.6-.7 1.6-1.6V9.1c.1-.4-.3-.8-.7-.8z" class="st0"/><path d="M12.4 0H8.2c-.5 0-.8.4-.8.8s.4.8.8.8h3L6 6.6c-.3.4-.3.9 0 1.2.2.1.4.2.6.2.2 0 .4-.1.6-.2l5.2-5v2.9c0 .4.4.8.8.8s.8-.4.8-.8V1.6c0-.9-.8-1.6-1.6-1.6z" class="st0"/></svg>