<svg xmlns="http://www.w3.org/2000/svg" xml:space="preserve" id="전체보기_버튼_copy" x="0" y="0" style="enable-background:new 0 0 17 17" version="1.1" viewBox="0 0 17 17"><style>.st0{fill-rule:evenodd;clip-rule:evenodd;fill:#c93c5d}</style><path d="M6 0H2C.9 0 0 .9 0 2v4c0 1.1.9 2 2 2h4c1.1 0 2-.9 2-2V2c0-1.1-.9-2-2-2zM15 0h-4C9.9 0 9 .9 9 2v4c0 1.1.9 2 2 2h4c1.1 0 2-.9 2-2V2c0-1.1-.9-2-2-2zM6 9H2c-1.1 0-2 .9-2 2v4c0 1.1.9 2 2 2h4c1.1 0 2-.9 2-2v-4c0-1.1-.9-2-2-2z" class="st0"/><path id="Rectangle_14_copy_4" d="M11 9h4c1.1 0 2 .9 2 2v4c0 1.1-.9 2-2 2h-4c-1.1 0-2-.9-2-2v-4c0-1.1.9-2 2-2z" style="fill:#222384"/></svg>