<svg xmlns="http://www.w3.org/2000/svg" xml:space="preserve" id="Layer_1" x="0" y="0" style="enable-background:new 0 0 14 14" version="1.1" viewBox="0 0 14 14"><style>.st0{fill-rule:evenodd;clip-rule:evenodd;fill:#c93c5d}</style><path d="m12.9 1.9-.7-.7C10.7-.3 8.3-.3 6.8 1.1L4.8 3l1.4 1.4 1.9-1.9c.7-.7 1.9-.7 2.6 0l.7.7c.7.7.7 1.9 0 2.6l-1.8 2L11 9.1l1.9-1.9c1.5-1.4 1.5-3.9 0-5.3zM7.8 9.6l-1.9 1.9c-.7.7-1.9.7-2.6 0l-.7-.7c-.7-.7-.7-1.9 0-2.6l1.9-1.9-.8-.8-.7-.7-1.9 1.9c-1.5 1.5-1.4 3.9.1 5.4l.7.7c1.5 1.5 3.9 1.5 5.4.1L9.1 11l-.7-.7-.6-.7z" class="st0"/><path d="m6.8 8.6 1.8-1.8L10.3 5 9 3.6 7.2 5.4 5.4 7.2 3.6 9 5 10.4z" class="st0"/></svg>