<svg xmlns="http://www.w3.org/2000/svg" xml:space="preserve" id="Layer_1" x="0" y="0" style="enable-background:new 0 0 15 13" version="1.1" viewBox="0 0 15 13"><style>.st0{fill-rule:evenodd;clip-rule:evenodd;fill:#515151}</style><path d="m14.5 10.4-4-4 3.9-3.9c.6-.6.6-1.5 0-2.1-.6-.6-1.5-.6-2.1 0l-5 5c-.5.6-.5 1.6.1 2.1 0 0 .1 0 .1.1l4.9 4.9c.6.6 1.5.6 2.1 0s.6-1.5 0-2.1z" class="st0"/><path d="m3.6 6.5 3.9-3.9c.6-.6.6-1.6 0-2.2C6.9-.1 6-.2 5.4.4l-5 5C-.2 6-.2 7 .4 7.5c0 0 .1 0 .1.1l4.9 4.9c.6.6 1.5.6 2.1 0s.6-1.5 0-2.1L3.6 6.5z" class="st0"/></svg>