<svg xmlns="http://www.w3.org/2000/svg" id="a" viewBox="0 0 47 47"><defs><style>.b,.d{fill:#11223e;stroke-width:0;fill-rule:evenodd}.d{fill:#c93c5d}</style></defs><path d="M41.34 7.93h-2.97V7.5c0-.8-.64-1.44-1.42-1.44h-.77v-.27c0-1.53-1.23-2.78-2.74-2.78S30.7 4.26 30.7 5.79v.27h-.77c-.78 0-1.42.65-1.42 1.44v.43h-2.97c-1.47 0-2.66 1.21-2.66 2.7v2.21c0 .4.32.72.71.72s.71-.32.71-.72v-2.21c0-.7.56-1.26 1.24-1.26h2.97v.43c0 .8.64 1.44 1.42 1.44h7.01c.78 0 1.42-.65 1.42-1.44v-.43h2.97c.69 0 1.24.56 1.24 1.26v21.9c0 .7-.56 1.26-1.24 1.26h-9.6c-.39 0-.71.32-.71.72s.32.72.71.72h9.6c1.47 0 2.66-1.21 2.66-2.7V10.62c0-1.49-1.19-2.7-2.66-2.7Zm-9.22-2.15c0-.74.59-1.34 1.32-1.34s1.32.6 1.32 1.34v.27h-2.64v-.27Zm4.83 4.03h-7.02V7.49h7.02V9.8Z" class="b"/><path d="M26.78 21.87V11.61c0-.4-.32-.72-.71-.72s-.71.32-.71.72v10.26c0 .4.32.72.71.72s.71-.32.71-.72ZM31.36 29.39h7.34c.39 0 .71-.32.71-.72s-.32-.72-.71-.72h-7.34c-.39 0-.71.32-.71.72s.32.72.71.72ZM39.4 26.39c0-.4-.32-.72-.71-.72h-8.46c-.39 0-.71.32-.71.72s.32.72.71.72h8.46c.39 0 .71-.32.71-.72ZM28.55 23.51H38.7c.39 0 .71-.32.71-.72s-.32-.72-.71-.72H28.55c-.39 0-.71.32-.71.72s.32.72.71.72ZM28.55 21.23H38.7c.39 0 .71-.32.71-.72s-.32-.72-.71-.72H28.55c-.39 0-.71.32-.71.72s.32.72.71.72ZM28.55 15.35H38.7c.39 0 .71-.32.71-.72s-.32-.72-.71-.72H28.55c-.39 0-.71.32-.71.72s.32.72.71.72ZM28.55 17.63H38.7c.39 0 .71-.32.71-.72s-.32-.72-.71-.72H28.55c-.39 0-.71.32-.71.72s.32.72.71.72Z" class="b"/><path d="M31.74 32.25h9.07c.39 0 .71-.32.71-.72V11.6c0-.4-.32-.72-.71-.72s-.71.32-.71.72v19.21h-8.37c-.39 0-.71.32-.71.72s.32.72.71.72ZM37.1 38.78H5.57C4.15 38.78 3 39.95 3 41.39S4.15 44 5.57 44H37.1c1.42 0 2.57-1.17 2.57-2.61s-1.15-2.61-2.57-2.61Zm0 3.79H5.57c-.64 0-1.15-.53-1.15-1.17s.52-1.17 1.15-1.17H37.1c.64 0 1.16.53 1.16 1.17s-.52 1.17-1.16 1.17Z" class="b"/><path d="M23.54 24.15h-8.92c-3.3 0-5.99 2.73-5.99 6.08v7.08c0 .77.3 1.5.84 2.05.54.55 1.26.85 2.02.85H19c.07 0 .15 0 .22-.01h7.46c.76 0 1.48-.3 2.02-.85s.84-1.28.84-2.05v-7.08c0-3.35-2.69-6.08-5.99-6.08Zm4.57 13.16a1.452 1.452 0 0 1-1.44 1.46h-5.33c.1-.2.17-.42.21-.65.1-.54.02-1.08-.21-1.56 1.79 0 3.97.01 3.97.01.38 0 .69-.31.71-.69l.14-3.85c.02-.4-.29-.73-.68-.74-.39-.03-.72.3-.73.69l-.11 3.15s-4.11-.01-5.26-.01h-.03l-5.83.02-.11-3.15c-.01-.4-.34-.72-.73-.69-.39.01-.7.35-.68.74l.14 3.85c.01.39.33.69.71.69l6.24-.02h.22c.28.05.52.21.69.45.18.25.24.55.19.86-.08.48-.52.84-1.03.91H11.5c-.38 0-.74-.15-1.02-.43a1.47 1.47 0 0 1-.42-1.03v-7.08c0-2.56 2.05-4.64 4.57-4.64h8.92c2.52 0 4.57 2.08 4.57 4.64v7.08ZM19.09 22.98c2.85 0 5.17-2.36 5.17-5.25s-2.32-5.25-5.17-5.25-5.17 2.36-5.17 5.25 2.32 5.25 5.17 5.25Zm0-9.07c2.07 0 3.76 1.71 3.76 3.82s-1.68 3.81-3.76 3.81-3.76-1.71-3.76-3.81 1.68-3.82 3.76-3.82Z" class="d"/></svg>