<svg xmlns="http://www.w3.org/2000/svg" id="a" viewBox="0 0 47 47"><defs><style>.b{fill:#11223e;stroke-width:0;fill-rule:evenodd}</style></defs><path d="M32.17 3H14.83c-1.84 0-3.33 1.53-3.33 3.4v34.18c0 1.88 1.5 3.4 3.33 3.4h17.34c1.84 0 3.33-1.53 3.33-3.4V6.41c0-1.88-1.5-3.4-3.33-3.4Zm-14 1.36h10.67v1.91c0 .23-.18.41-.4.41h-9.87c-.22 0-.4-.18-.4-.41V4.36Zm16.01 36.23c0 1.13-.9 2.04-2 2.04H14.83c-1.1 0-2-.92-2-2.04V6.41c0-1.13.9-2.04 2-2.04h2v1.91c0 .98.78 1.77 1.73 1.77h9.87c.96 0 1.73-.79 1.73-1.77V4.37h2c1.1 0 2 .92 2 2.04v34.18Z" class="b"/><path d="M29.37 38.09H17.63c-.37 0-.67.3-.67.68s.3.68.67.68h11.74c.37 0 .67-.3.67-.68s-.3-.68-.67-.68ZM29.37 33.19H17.63c-.37 0-.67.31-.67.68s.3.68.67.68h11.74c.37 0 .67-.3.67-.68s-.3-.68-.67-.68Z" class="b"/><path d="m32.97 19.45-.03-.23a9 9 0 0 0-.25-1.17v-.04c-.9-3.18-3.35-5.67-6.45-6.62-.03-.01-.05-.04-.07-.04-.19-.05-.38-.08-.57-.12-.21-.05-.42-.11-.63-.14-.44-.07-.89-.11-1.33-.11-.04 0-.08-.01-.12-.01s-.08.01-.11.01c-.44 0-.89.04-1.33.11-.22.03-.42.09-.63.14-.19.04-.38.07-.57.12-.03 0-.05.03-.07.04-3.1.95-5.55 3.44-6.45 6.62v.04a9 9 0 0 0-.25 1.17l-.03.23c-.05.41-.09.83-.09 1.26s.04.84.09 1.26l.03.23c.06.4.14.79.25 1.18v.04c.9 3.18 3.35 5.67 6.46 6.62.02.01.04.03.07.04.18.05.37.08.55.12.22.05.43.11.65.14.48.08.96.12 1.45.12s.96-.05 1.44-.12c.22-.03.44-.09.65-.14.18-.04.37-.07.55-.12.03 0 .05-.03.07-.04 3.1-.95 5.55-3.44 6.46-6.62v-.04a9 9 0 0 0 .28-1.4c.05-.41.09-.83.09-1.25s-.04-.84-.09-1.25Zm-2.04-2.33c-.99-.27-2.1-.49-3.28-.64-.15-1.21-.36-2.35-.63-3.36a8.41 8.41 0 0 1 3.92 4Zm-9.38-4.55.39-.09c.16-.03.32-.07.48-.09.33-.04.65-.07.99-.08h.18c.33 0 .66.03.98.07.16.02.33.06.49.09l.39.09c.36 1.08.64 2.36.83 3.77-.91-.08-1.83-.13-2.78-.13s-1.88.05-2.78.13c.19-1.41.47-2.7.83-3.77Zm-6.04 10.07c-.07-.28-.11-.55-.15-.83 0-.05-.02-.1-.02-.15a7.733 7.733 0 0 1 0-1.92c0-.05.02-.1.02-.15.04-.28.08-.55.15-.83 0-.02.01-.04.02-.06 1.05-.37 2.32-.65 3.7-.85-.07.92-.12 1.88-.12 2.84s.04 1.92.12 2.84c-1.38-.19-2.64-.48-3.7-.85 0-.02-.01-.04-.02-.06Zm.57 1.65c.99.27 2.1.49 3.28.64.15 1.21.36 2.35.63 3.36a8.41 8.41 0 0 1-3.92-4Zm3.28-7.81c-1.18.15-2.29.37-3.28.64.81-1.75 2.2-3.17 3.92-4-.27 1.01-.48 2.15-.63 3.36Zm6.1 12.36-.39.09c-.16.03-.32.07-.49.09-.34.05-.68.08-1.02.08h-.11c-.35 0-.69-.03-1.02-.08-.16-.02-.32-.06-.49-.09l-.39-.09c-.36-1.08-.64-2.36-.83-3.77.91.08 1.83.13 2.78.13s1.88-.05 2.78-.13c-.19 1.41-.47 2.7-.83 3.77Zm.96-5.15c-.95.09-1.92.15-2.92.15s-1.98-.06-2.92-.15c-.09-.97-.15-1.96-.15-2.98s.06-2.02.15-2.98c.95-.09 1.92-.15 2.92-.15s1.97.06 2.92.15c.09.97.15 1.96.15 2.98s-.06 2.02-.15 2.98Zm.59 4.6c.27-1.01.48-2.15.63-3.36 1.18-.15 2.29-.37 3.28-.64a8.323 8.323 0 0 1-3.92 4Zm4.66-6.62s-.02.09-.02.14c-.04.28-.09.57-.15.85 0 .02 0 .03-.01.05-1.05.37-2.32.65-3.7.85.08-.92.12-1.88.12-2.84s-.04-1.92-.12-2.84c1.38.19 2.64.48 3.7.85 0 .02 0 .03.01.05.07.28.12.56.15.84 0 .05.02.09.02.14a7.733 7.733 0 0 1 0 1.92Z" style="fill:#c93c5d;fill-rule:evenodd;stroke-width:0"/></svg>