<svg xmlns="http://www.w3.org/2000/svg" xml:space="preserve" style="enable-background:new 0 0 30 30" viewBox="0 0 30 30"><path d="M23 9.7c0-.2-.1-.4-.3-.4-.7-.2-1.2-.9-1.2-1.7v-.1c0-.7.5-1.3 1.2-1.6.2 0 .3-.1.3-.3v-.2c0-.2-.2-.4-.4-.4H9.7C8.3 5 7.1 6.1 7 7.5V20.3C7 21.8 8.2 23 9.7 23h12.9c.2 0 .4-.2.4-.4V9.7zM9.7 5.9h11.6c-.3.4-.6.8-.6 1.3h-5.8c-.2 0-.4.2-.4.4s.2.4.4.4h5.8c.1.5.3 1 .7 1.4H9.3c-.1 0-.1 0-.2-.1h-.2c-.5-.3-1-.9-1-1.6v-.1c.1-1 .9-1.7 1.8-1.7zm0 16.2c-1 0-1.8-.8-1.8-1.7V9.6l.1.1c.1.1.2.1.3.2 0 0 .1 0 .1.1.1.1.2.1.4.2.1 0 .3.1.4.1h1.2v5c0 .2.1.3.2.4.1.1.3.1.5 0l1.7-1.2 1.7 1.2c.1.1.2.1.3.1.1 0 .1 0 .2-.1s.2-.2.2-.4v-5H22v11.8H9.7z" style="fill-rule:evenodd;clip-rule:evenodd;fill:#fff"/></svg>