<svg xmlns="http://www.w3.org/2000/svg" xml:space="preserve" id="그룹_1" x="0" y="0" style="enable-background:new 0 0 30 30" version="1.1" viewBox="0 0 30 30"><style>.st0{fill-rule:evenodd;clip-rule:evenodd;fill:#c93c5d}</style><path d="M15 20.6zM14 20.2H7.4c-.2 0-.4.2-.4.4s.2.4.4.4H14c.2 0 .4-.2.4-.4s-.2-.4-.4-.4zM22.6 20.2H16c-.2 0-.4.2-.4.4s.2.4.4.5h6.6c.2 0 .4-.2.4-.4 0-.3-.2-.5-.4-.5z" class="st0"/><path d="M22.6 9H16c-.4 0-.7.2-1 .4-.2-.2-.6-.4-1-.4H7.4c-.2 0-.4.2-.4.4v9.8c0 .2.2.4.4.4H14c.3 0 .6.2.6.6 0 .2.1.3.3.3h.2c.2 0 .4-.2.4-.4 0-.3.3-.5.6-.6h6.6c.2 0 .4-.2.4-.4V9.4c-.1-.2-.2-.4-.5-.4zm-8 9.9c-.2-.1-.4-.1-.6-.1H7.8v-9H14c.3 0 .6.3.6.6v8.5zm7.6-.1H16c-.2 0-.4 0-.6.1v-8.5c0-.3.3-.6.6-.6h6.2v9z" class="st0"/><path d="M9.6 12.4h2.7c.2 0 .4-.2.4-.4s-.2-.4-.4-.4H9.6c-.2 0-.4.2-.4.4s.2.4.4.4zM9.6 14.5h2.7c.2 0 .4-.2.4-.4s-.2-.4-.4-.5H9.6c-.2 0-.4.2-.4.4 0 .3.2.5.4.5zM12.3 15.7H9.6c-.2 0-.4.2-.4.4s.2.4.4.4h2.7c.2 0 .4-.2.4-.4.1-.2-.1-.3-.4-.4zM17.6 12.4h2.7c.2 0 .4-.2.4-.4s-.2-.4-.4-.4h-2.7c-.2 0-.4.2-.4.4s.2.4.4.4zM17.6 14.5h2.7c.2 0 .4-.2.4-.4s-.2-.4-.4-.5h-2.7c-.2 0-.4.2-.4.4 0 .3.2.5.4.5zM17.6 16.6h2.7c.2 0 .4-.2.4-.4s-.2-.4-.4-.4h-2.7c-.2 0-.4.2-.4.4s.2.4.4.4z" class="st0"/></svg>