<?xml version="1.0" encoding="utf-8"?>
<!-- Generator: Adobe Illustrator 27.9.6, SVG Export Plug-In . SVG Version: 9.03 Build 54986)  -->
<svg version="1.1" id="그룹_1" xmlns="http://www.w3.org/2000/svg" xmlns:xlink="http://www.w3.org/1999/xlink" x="0px" y="0px"
	 viewBox="0 0 30 30" style="enable-background:new 0 0 30 30;" xml:space="preserve">
<style type="text/css">
	.st0{fill-rule:evenodd;clip-rule:evenodd;fill:#FFFFFF;}
</style>
<path class="st0" d="M14,20.2H7.4c-0.2,0-0.4,0.2-0.4,0.4S7.2,21,7.4,21H14c0.2,0,0.4-0.2,0.4-0.4S14.2,20.2,14,20.2z M22.6,20.2H16
	c-0.2,0-0.4,0.2-0.4,0.4s0.2,0.4,0.4,0.5h6.6c0.2,0,0.4-0.2,0.4-0.4C23,20.4,22.8,20.2,22.6,20.2z"/>
<path class="st0" d="M22.6,9H16c-0.4,0-0.7,0.2-1,0.4C14.8,9.2,14.4,9,14,9H7.4C7.2,9,7,9.2,7,9.4v9.8c0,0.2,0.2,0.4,0.4,0.4H14
	c0.3,0,0.6,0.2,0.6,0.6c0,0.2,0.1,0.3,0.3,0.3h0.2c0.2,0,0.4-0.2,0.4-0.4c0-0.3,0.3-0.5,0.6-0.6h6.6c0.2,0,0.4-0.2,0.4-0.4V9.4
	C23,9.2,22.9,9,22.6,9z M14.6,18.9c-0.2-0.1-0.4-0.1-0.6-0.1H7.8v-9H14c0.3,0,0.6,0.3,0.6,0.6V18.9z M22.2,18.8H16
	c-0.2,0-0.4,0-0.6,0.1v-8.5c0-0.3,0.3-0.6,0.6-0.6h6.2V18.8z"/>
<path class="st0" d="M9.6,12.4h2.7c0.2,0,0.4-0.2,0.4-0.4s-0.2-0.4-0.4-0.4H9.6c-0.2,0-0.4,0.2-0.4,0.4S9.4,12.4,9.6,12.4z
	 M9.6,14.5h2.7c0.2,0,0.4-0.2,0.4-0.4s-0.2-0.4-0.4-0.5H9.6c-0.2,0-0.4,0.2-0.4,0.4C9.2,14.3,9.4,14.5,9.6,14.5z M12.3,15.7H9.6
	c-0.2,0-0.4,0.2-0.4,0.4s0.2,0.4,0.4,0.4h2.7c0.2,0,0.4-0.2,0.4-0.4C12.8,15.9,12.6,15.8,12.3,15.7z M17.6,12.4h2.7
	c0.2,0,0.4-0.2,0.4-0.4s-0.2-0.4-0.4-0.4h-2.7c-0.2,0-0.4,0.2-0.4,0.4S17.4,12.4,17.6,12.4z M17.6,14.5h2.7c0.2,0,0.4-0.2,0.4-0.4
	s-0.2-0.4-0.4-0.5h-2.7c-0.2,0-0.4,0.2-0.4,0.4C17.2,14.3,17.4,14.5,17.6,14.5z M17.6,16.6h2.7c0.2,0,0.4-0.2,0.4-0.4
	s-0.2-0.4-0.4-0.4h-2.7c-0.2,0-0.4,0.2-0.4,0.4S17.4,16.6,17.6,16.6z"/>
</svg>
