<svg xmlns="http://www.w3.org/2000/svg" id="a" viewBox="0 0 47 47"><defs><style>.b{fill:#fff;stroke-width:0;fill-rule:evenodd}</style></defs><path d="M27.43 34.45c-.38 0-.69.33-.69.74s.31.74.69.74h2.38c.38 0 .69-.33.69-.74s-.31-.74-.69-.74h-2.38ZM36.95 34.45h-2.38c-.38 0-.69.33-.69.74s.31.74.69.74h2.38c.38 0 .69-.33.69-.74s-.31-.74-.69-.74Z" class="b"/><path d="M42.81 34.45H41.7c-.38 0-.69.33-.69.74s.31.74.69.74h.41v2.41c0 1.76-1.35 3.2-3.01 3.2H21.25c.09-.11.16-.23.24-.35.03-.05.06-.09.09-.14.11-.18.2-.36.28-.56.02-.05.05-.1.07-.16.08-.2.13-.4.18-.61.01-.06.03-.11.04-.17.05-.27.08-.54.08-.82v-2.8h.41c.38 0 .69-.33.69-.74s-.31-.74-.69-.74h-1.11c-.38 0-.69.33-.69.74v3.54c0 .19-.02.38-.05.55-.24 1.25-1.28 2.21-2.56 2.25h-.02c-.67 0-1.31-.28-1.8-.8-.53-.55-.83-1.32-.83-2.1V11.36c0-.32-.04-.62-.11-.92v-.03c-.14-.61-.39-1.18-.76-1.65h19.21c1.34 0 2.43 1.16 2.43 2.59v20.41c0 .41.31.73.69.73s.69-.33.69-.73v-20.4c0-2.24-1.71-4.06-3.82-4.06H11.79c-.38 0-.69.33-.69.74s.31.73.69.73c.86 0 1.62.48 2.05 1.2H6.99c-1.16 0-2.11-1.01-2.11-2.25s.95-2.25 2.11-2.25h29.38v.44c0 .41.31.73.69.73s.69-.33.69-.73V4.73c0-.41-.31-.74-.69-.74H6.99c-1.93 0-3.49 1.67-3.49 3.72s1.57 3.72 3.49 3.72h7.23v27.19c0 1.17.46 2.32 1.25 3.14.76.79 1.74 1.22 2.77 1.22h20.88c2.42 0 4.39-2.1 4.39-4.67v-3.14c0-.41-.31-.74-.69-.74Z" class="b"/><path d="M34.01 30.5c-.32.52-.71.82-1.15.9-.08.01-.16.02-.24.02-.6 0-1.11-.41-1.53-.74-.19-.15-.6-.47-.71-.45-.02 0-.11.06-.24.27-.32.52-.71.82-1.16.9-.71.13-1.29-.34-1.77-.72-.2-.16-.56-.46-.7-.45-.38.04-.71-.26-.75-.67-.03-.4.25-.76.63-.8.66-.06 1.19.36 1.66.73.19.15.59.47.7.45.02 0 .11-.06.24-.27.32-.52.71-.82 1.15-.9.7-.13 1.3.34 1.77.72.19.15.59.47.7.45.02 0 .11-.06.24-.27.21-.34.64-.43.96-.2.32.22.4.68.19 1.02Zm-1.44-4.84H19.48c-.38 0-.69-.33-.69-.73s.31-.74.69-.74h13.09c.38 0 .69.33.69.74s-.31.73-.69.73Zm0-2.79H19.48c-.38 0-.69-.33-.69-.73s.31-.74.69-.74h13.09c.38 0 .69.33.69.74s-.31.73-.69.73Zm0-2.79H19.48c-.38 0-.69-.33-.69-.74s.31-.74.69-.74h13.09c.38 0 .69.33.69.74s-.31.74-.69.74Zm-3.72-3.03h-9.36c-.38 0-.69-.33-.69-.74s.31-.74.69-.74h9.36c.38 0 .69.33.69.74s-.31.74-.69.74Z" style="fill:#fff;fill-rule:evenodd;stroke-width:0"/></svg>