<svg xmlns="http://www.w3.org/2000/svg" xml:space="preserve" id="그룹_2" x="0" y="0" style="enable-background:new 0 0 30 30" version="1.1" viewBox="0 0 30 30"><style>.st0{fill-rule:evenodd;clip-rule:evenodd;fill:#c93c5d}</style><path d="m21.9 19.1-1.1-2.3V8.7c0-.2-.2-.4-.4-.4H8.8c-.2 0-.4.2-.4.4v8.1l-1.3 2.3c0 .1-.1.1-.1.2v1.3c0 .2.2.4.4.4h14.1c.2 0 .4-.2.4-.4v-1.5zm-13.8-.2.9-1.6h11.1l.8 1.6H8.1zm1.1-9.8H20v7.4H9.2V9.1zm-1.3 11v-.5h13.3v.5H7.9z" class="st0"/><path d="M10.5 15.8h1.8c.2 0 .4-.2.4-.4V12c0-.2-.2-.4-.4-.4h-1.8c-.2 0-.4.2-.4.4v3.4c0 .2.2.4.4.4zm.4-3.4h1V15h-1v-2.6zM13.6 15.8h1.8c.2 0 .4-.2.4-.4v-4.5c0-.2-.2-.4-.4-.4h-1.8c-.2 0-.4.2-.4.4v4.5c0 .2.2.4.4.4zm.5-4.5h1V15h-1v-3.7zM16.7 15.8h1.8c.2 0 .4-.2.4-.4V12c0-.2-.2-.4-.4-.4h-1.8c-.2 0-.4.2-.4.4v3.4c0 .2.2.4.4.4zm.4-3.4h1V15h-1v-2.6z" class="st0"/></svg>