<svg xmlns="http://www.w3.org/2000/svg" xml:space="preserve" id="그룹_8" x="0" y="0" style="enable-background:new 0 0 30 30" version="1.1" viewBox="0 0 30 30"><style>.st0{fill-rule:evenodd;clip-rule:evenodd;fill:#fff}</style><path d="M12.1 8.5c-2.5 1.6-3.3 4.9-1.7 7.4.3.6.6 1.3.9 2 .1.3.3.6.4.9.2.4.5.7.9.9V21c0 .6.4 1.1.9 1.3v.3c0 .8.6 1.4 1.4 1.4.8 0 1.4-.6 1.4-1.4v-.3c.5-.2.9-.7.9-1.3v-1.2c.4-.2.7-.5.9-1 .1-.3.3-.6.4-1 .3-.7.6-1.4.9-2 1.1-1.7 1.1-4 0-5.7-1.4-2.4-4.8-3.2-7.3-1.6zm3.4 14.1c0 .3-.3.5-.6.5s-.5-.3-.5-.6v-.2h1.1v.3zm-.9-1.1c.1-.1.2-.2.4-.2s.3.1.4.2h-.8zm1.9-.5c0 .1-.1.3-.1.4-.2-.6-.7-1-1.3-1-.6 0-1.1.4-1.3 1-.1-.1-.1-.2-.1-.4v-1h3v1zm-2.8-1.8c.1-.1.2-.1.3-.1h1.9c.1 0 .2.1.3.1h-2.5zm5.1-3.7c-.4.7-.7 1.4-1 2.1-.1.3-.3.6-.4.9-.1.2-.2.3-.3.4-.2-.4-.7-.7-1.2-.7H14c-.5 0-1 .3-1.2.7-.1-.1-.3-.2-.3-.4-.1-.3-.3-.6-.4-.9-.3-.7-.6-1.4-1-2.1-.5-.7-.7-1.5-.7-2.4 0-2.5 2-4.6 4.5-4.6s4.5 2 4.5 4.5c.1.9-.1 1.7-.6 2.5zM15 6.8c.2 0 .4-.2.4-.4v-2c0-.2-.2-.4-.4-.4s-.4.2-.4.4v2c0 .3.2.4.4.4zM10.4 8.1c.1 0 .1 0 .2-.1.2-.1.3-.4.2-.6l-1-1.7c-.1-.2-.4-.3-.6-.1-.2.1-.3.3-.1.6l1 1.7c0 .1.2.2.3.2zM20.8 5.6c-.2-.1-.5 0-.6.2l-1 1.7c-.1.2 0 .5.2.6.1 0 .1.1.2.1.2 0 .3-.1.4-.2l1-1.7c.1-.4 0-.6-.2-.7z" class="st0"/></svg>