<?xml version="1.0" encoding="UTF-8"?><svg id="a" xmlns="http://www.w3.org/2000/svg" viewBox="0 0 34 34.01"><defs><style>.b{fill-rule:evenodd;}.b,.c{fill:#fff;stroke-width:0px;}.c{opacity:0;}</style></defs><rect class="c" y="0" width="34" height="34"/><path class="b" d="m21.96,24.13l3.53-3.55c2.27-2.28,3.52-5.3,3.52-8.53s-1.25-6.25-3.52-8.53c-2.27-2.28-5.28-3.53-8.49-3.53s-6.22,1.25-8.49,3.53c-2.27,2.28-3.52,5.3-3.52,8.53s1.25,6.25,3.52,8.53c.08.08,1.75,1.76,3.53,3.55-3.11.91-5.04,2.6-5.04,4.6,0,3.01,4.3,5.28,10,5.28s10-2.27,10-5.28c0-1.99-1.93-3.69-5.04-4.6Zm-12.2-4.79c-1.93-1.94-3-4.53-3-7.28s1.07-5.33,3-7.28c1.94-1.95,4.51-3.02,7.25-3.02s5.31,1.07,7.25,3.02c1.93,1.95,3,4.53,3,7.28s-1.07,5.34-3,7.28l-4.34,4.36c-.42,0-.78.3-.85.72,0,.04,0,.08,0,.13l-2.06,2.07c-.49-.49-1.23-1.24-2.06-2.07,0-.04.01-.08,0-.13-.07-.43-.44-.72-.85-.72-2.05-2.06-4.25-4.27-4.34-4.36Zm7.25,12.9c-4.86,0-8.24-1.85-8.24-3.51,0-1.28,1.96-2.55,4.73-3.14,1.56,1.57,2.89,2.9,2.89,2.9.17.17.39.26.62.26s.46-.09.62-.26l2.89-2.9c2.78.6,4.73,1.86,4.73,3.14,0,1.66-3.39,3.51-8.24,3.51Z"/><path class="b" d="m21.62,11.78c0-2.56-2.07-4.64-4.62-4.64s-4.62,2.08-4.62,4.64,2.07,4.64,4.62,4.64,4.62-2.08,4.62-4.64Zm-7.48,0c0-1.59,1.28-2.87,2.86-2.87s2.86,1.29,2.86,2.87-1.28,2.87-2.86,2.87-2.86-1.29-2.86-2.87Z"/></svg>