<svg xmlns="http://www.w3.org/2000/svg" xml:space="preserve" id="그룹_6" x="0" y="0" style="enable-background:new 0 0 30 30" version="1.1" viewBox="0 0 30 30"><style>.st0{fill-rule:evenodd;clip-rule:evenodd;fill:#fff}</style><path d="M10.8 12.9c-.2 0-.5.2-.5.4v.4c0 .2.2.4.5.4.2 0 .4-.2.4-.4v-.4c0-.2-.1-.4-.4-.4z" class="st0"/><path d="M24.6 9.8c-1 0-1.9.6-2.2 1.5-.9-.8-2.1-1.3-3.4-1.3h-3.5c-.4-1.2-1.6-2-2.9-2h-.3c-.1 0-.3.2-.3.4v1.7c-1.8.3-3.3 1.5-4 3.2h-.7c-.7 0-1.3.5-1.3 1.2V16c0 .7.6 1.2 1.3 1.2h.8c.6 1.3 1.8 2.3 3.1 2.7v.8c0 .7.6 1.2 1.3 1.2h.9c.7 0 1.3-.5 1.3-1.2v-.5h2.5v.5c0 .7.6 1.2 1.3 1.2h.9c.7 0 1.3-.5 1.3-1.2V20c2.1-.7 3.6-2.6 3.6-4.9 0-1.2-.5-2.3-1.2-3.2.1-.7.7-1.3 1.4-1.3.2 0 .5-.2.5-.4s-.2-.4-.4-.4zm-4.5 9.4c-.2 0-.3.2-.3.4v1.1c0 .2-.2.4-.4.4h-.9c-.2 0-.4-.2-.4-.4v-1c0-.2-.2-.4-.5-.4h-3.4c-.2 0-.5.2-.5.4v1c0 .2-.2.4-.4.4h-.9c-.2 0-.4-.2-.4-.4v-1.1c0-.2-.1-.4-.3-.4-1.4-.3-2.5-1.3-3-2.6-.1-.2-.2-.3-.4-.3h-1c-.2 0-.4-.2-.4-.4v-1.5c0-.2.2-.4.4-.4h1c.2 0 .4-.1.4-.3.5-1.6 2-2.8 3.7-2.9.2 0 .4-.2.4-.4V8.9c.9.1 1.7.8 1.9 1.7 0 .2.2.4.4.3H19c2.4 0 4.3 1.9 4.3 4.2.1 2-1.3 3.7-3.2 4.1z" class="st0"/><path d="M18.5 11.5h-1.8c-.2 0-.4.2-.4.4s.2.4.4.4h1.8c.2 0 .3 0 .4-.1.2-.1.3-.4.2-.6s-.4-.2-.6-.1z" class="st0"/></svg>