<?xml version="1.0" encoding="utf-8"?>
<!-- Generator: Adobe Illustrator 27.9.6, SVG Export Plug-In . SVG Version: 9.03 Build 54986)  -->
<svg version="1.1" id="a" xmlns="http://www.w3.org/2000/svg" xmlns:xlink="http://www.w3.org/1999/xlink" x="0px" y="0px"
	 viewBox="0 0 34 34" style="enable-background:new 0 0 34 34;" xml:space="preserve">
<style type="text/css">
	.st0{fill:#FFFFFF;fill-opacity:0;}
	.st1{fill-rule:evenodd;clip-rule:evenodd;fill:#B1C3DD;}
	.st2{fill-rule:evenodd;clip-rule:evenodd;fill:#B23959;}
	.st3{fill-rule:evenodd;clip-rule:evenodd;fill:#11223E;}
</style>
<rect class="st0" width="34" height="34"/>
<path class="st1" d="M1,25.6h6.1v4.7H1V25.6z"/>
<path class="st2" d="M17.4,3.6c2.2,0,2.9,2.5,2.9,4.4s-0.8,2.6-2.9,2.6S13.5,9.9,13.5,8S15.2,3.6,17.4,3.6z"/>
<path class="st1" d="M13.9,25.7H20v4.7h-6.1C13.9,30.4,13.9,25.7,13.9,25.7z"/>
<path class="st1" d="M27,25.6h6.1v4.7H27C27,30.4,27,25.6,27,25.6z"/>
<g>
	<path class="st3" d="M29.6,15.4H17.9v-4c2.1-0.4,3.7-2.2,3.7-4.4c0-2.4-2-4.4-4.6-4.4s-4.6,2-4.6,4.4c0,2.2,1.6,4,3.7,4.4v4H4.4
		c-0.5,0-0.9,0.4-0.9,0.9v5.2c0,0.5,0.4,0.9,0.9,0.9s0.9-0.4,0.9-0.9v-4.3h10.8v4.3c0,0.5,0.4,0.9,0.9,0.9s0.9-0.4,0.9-0.9v-4.3
		h10.8v4.3c0,0.5,0.4,0.9,0.9,0.9s0.9-0.4,0.9-0.9v-5.2C30.5,15.7,30.1,15.4,29.6,15.4z M17,9.7c-1.6,0-2.8-1.2-2.8-2.7
		s1.3-2.7,2.8-2.7s2.8,1.2,2.8,2.7S18.5,9.7,17,9.7z"/>
	<path class="st3" d="M7.6,25.4c0-0.5-0.4-0.9-0.9-0.9H1.4c-0.5,0-0.9,0.4-0.9,0.9v5.2c0,0.1,0,0.1,0,0.1c0.1,0.4,0.4,0.7,0.9,0.7
		h5.4c0.4,0,0.8-0.3,0.8-0.7c0,0,0-0.1,0-0.1V25.4z M2.3,26.3h3.6v3.5H2.3V26.3z"/>
	<path class="st3" d="M20.6,25.4c0-0.5-0.4-0.9-0.9-0.9h-5.4c-0.5,0-0.9,0.4-0.9,0.9v5.2c0,0.1,0,0.1,0,0.1c0.1,0.4,0.4,0.7,0.9,0.7
		h5.4c0.4,0,0.8-0.3,0.9-0.7c0,0,0-0.1,0-0.1C20.6,30.6,20.6,25.4,20.6,25.4z M15.2,26.3h3.6v3.5h-3.6
		C15.2,29.8,15.2,26.3,15.2,26.3z"/>
	<path class="st3" d="M33.5,25.4c0-0.5-0.4-0.9-0.9-0.9h-5.4c-0.5,0-0.9,0.4-0.9,0.9v5.2c0,0.1,0,0.1,0,0.1c0.1,0.4,0.4,0.7,0.9,0.7
		h5.4c0.4,0,0.8-0.3,0.8-0.7c0,0,0-0.1,0-0.1V25.4z M28.1,26.3h3.6v3.5h-3.6V26.3z"/>
</g>
</svg>
