<svg xmlns="http://www.w3.org/2000/svg" viewBox="0 0 47 47"><path d="M43.77 29.03H11.3L8.81 5.86C8.63 4.23 7.21 3 5.49 3H2.66C1.2 3 0 4.14 0 5.54s1.19 2.54 2.66 2.54h.42l1.21 19.27c.02.36.34.63.73.62.38-.02.67-.33.65-.7L4.43 7.38c-.02-.35-.32-.62-.69-.62H2.67c-.71 0-1.28-.55-1.28-1.22s.57-1.22 1.28-1.22H5.5c1.01 0 1.84.72 1.94 1.68l2.48 23.03H8.25c-1.78 0-3.23 1.38-3.23 3.08s1.45 3.08 3.23 3.08h3.15l1.01 3.44c-.46.57-.75 1.27-.75 2.04 0 1.84 1.56 3.33 3.49 3.33s3.49-1.49 3.49-3.33c0-.77-.29-1.47-.75-2.04l.99-3.44h14.28l.99 3.44c-.46.57-.75 1.27-.75 2.04 0 1.84 1.56 3.33 3.49 3.33s3.49-1.49 3.49-3.33c0-.77-.29-1.47-.75-2.04l1.01-3.44h3.15c1.78 0 3.23-1.38 3.23-3.08s-1.45-3.08-3.23-3.08ZM15.14 42.69c-1.16 0-2.11-.9-2.11-2.01s.95-2.01 2.11-2.01 2.11.9 2.11 2.01-.95 2.01-2.11 2.01Zm1.57-4.97c-.47-.23-1-.37-1.57-.37s-1.1.14-1.57.38l-.74-2.52h4.61l-.73 2.52Zm20.17 4.97c-1.16 0-2.11-.9-2.11-2.01s.95-2.01 2.11-2.01 2.11.9 2.11 2.01-.95 2.01-2.11 2.01Zm1.57-4.97c-.47-.23-1-.38-1.57-.38s-1.1.14-1.57.37l-.73-2.52h4.61l-.74 2.52Zm5.32-3.84H8.24c-1.02 0-1.85-.79-1.85-1.77s.83-1.77 1.85-1.77h35.53c1.02 0 1.85.79 1.85 1.77s-.83 1.77-1.85 1.77Z" style="fill-rule:evenodd;stroke-width:0;fill:#fff"/><path d="M38.31 9.09H16.14c-.38 0-.69.29-.69.66v19.86c0 .36.31.66.69.66h22.17c.38 0 .69-.29.69-.66V9.74c0-.36-.31-.66-.69-.66Zm-12.47 1.32h2.76v3.23h-2.76v-3.23Zm11.78 18.54H16.83V10.4h7.63v3.89c0 .36.31.66.69.66h4.14c.38 0 .69-.29.69-.66V10.4h7.63v18.54Z" style="fill:#fff;fill-rule:evenodd;stroke-width:0"/></svg>