<?xml version="1.0" encoding="UTF-8"?><svg id="a" xmlns="http://www.w3.org/2000/svg" viewBox="0 0 34 34"><defs><style>.b{fill:rgba(255,255,255,0);}.b,.c{stroke-width:0px;}.c{fill:#fff;fill-rule:evenodd;}</style></defs><rect class="b" width="34" height="34"/><path class="c" d="m28.9,2H5.1c-2,0-3.6,1.6-3.6,3.5v16c0,1.9,1.6,3.5,3.6,3.5h6.1v6.1c0,.3.2.7.5.8.1,0,.2.1.4.1s.5-.1.6-.2l7.1-6.7h9.2c2,0,3.6-1.6,3.6-3.5V5.6c-.1-2-1.7-3.6-3.7-3.6Zm0,21.3h-9.6c-.2,0-.4.1-.6.2l-5.8,5.5v-4.9c0-.5-.4-.9-.9-.9h-7c-1,0-1.8-.8-1.8-1.8V5.4c0-1,.8-1.8,1.8-1.8h23.9c1,0,1.8.8,1.8,1.8v16h0c0,1.1-.8,1.9-1.8,1.9Z"/><path class="c" d="m19.5,12.2h0c.9-.7,1.5-1.7,1.5-2.8,0-2-1.7-3.6-3.7-3.6s-3.7,1.6-3.7,3.6c0,1.2.6,2.2,1.5,2.8-2.5,1.1-4.3,4.2-4.4,7.8,0,.2.1.5.2.6.2.2.4.3.6.3h11.5c.2,0,.5-.1.6-.3.2-.2.3-.4.2-.6,0-3.7-1.8-6.7-4.3-7.8Zm-2.2-4.8c1.1,0,1.9.8,1.9,1.9s-.9,1.9-1.9,1.9-1.9-.8-1.9-1.9.8-1.9,1.9-1.9Zm-4.8,11.7c.4-3.2,2.4-5.7,4.8-5.7s4.4,2.5,4.8,5.7h-9.6Z"/></svg>