<?xml version="1.0" encoding="utf-8"?>
<!-- Generator: Adobe Illustrator 27.9.6, SVG Export Plug-In . SVG Version: 9.03 Build 54986)  -->
<svg version="1.1" id="a" xmlns="http://www.w3.org/2000/svg" xmlns:xlink="http://www.w3.org/1999/xlink" x="0px" y="0px"
	 viewBox="0 0 34 34" style="enable-background:new 0 0 34 34;" xml:space="preserve">
<style type="text/css">
	.st0{fill:#FFFFFF;fill-opacity:0;}
	.st1{fill-rule:evenodd;clip-rule:evenodd;fill:#B1C3DD;}
	.st2{fill-rule:evenodd;clip-rule:evenodd;fill:#B23959;}
	.st3{fill-rule:evenodd;clip-rule:evenodd;fill:#11223E;}
</style>
<rect class="st0" width="34" height="34"/>
<g>
	<path class="st1" d="M7.4,13.1h20.1c3.1,0,4.9,2.7,4.9,4v9c0,3.1-1.8,4-4.9,4H7.4c-2.2,0-4.9-0.9-4.9-4v-9
		C2.5,15.8,5.2,13.1,7.4,13.1z"/>
	<path class="st2" d="M10.6,4h12.9c2.2,0,3.1,1.8,3.1,3.1v19c0,3.1-0.9,4-3.1,4H10.6c-1.3,0-3.1-0.9-3.1-4v-19C7.5,5.8,9.2,4,10.6,4
		z"/>
</g>
<g>
	<path class="st3" d="M30,12.4h-2.6v-7C27.4,4.1,26.4,3,25,3H9.9C8.6,3,7.5,4.1,7.5,5.4v7H4.9c-1.3,0-2.4,1.1-2.4,2.4v13.8
		c0,1.3,1.1,2.4,2.4,2.4h25.2c1.3,0,2.4-1.1,2.4-2.4V14.8C32.5,13.5,31.4,12.4,30,12.4L30,12.4z M4.8,29.2c-0.4,0-0.6-0.3-0.6-0.6
		V14.8c0-0.4,0.3-0.6,0.6-0.6h2.6v14.5c0,0.2,0,0.4,0.1,0.6L4.8,29.2L4.8,29.2z M25.7,28.6c0,0.4-0.3,0.6-0.6,0.6H9.9
		c-0.4,0-0.6-0.3-0.6-0.6V5.4c0-0.3,0.3-0.7,0.6-0.7H25c0.4,0,0.6,0.3,0.6,0.7V28.6z M30.7,28.6c0,0.4-0.3,0.6-0.6,0.6h-2.7
		c0.1-0.2,0.1-0.4,0.1-0.6V14.1H30c0.4,0,0.6,0.3,0.6,0.6V28.6L30.7,28.6z"/>
	<path class="st3" d="M19.8,14.2h-4.7c-0.5,0-0.9,0.4-0.9,0.9s0.4,0.9,0.9,0.9h4.7c0.5,0,0.9-0.4,0.9-0.9S20.3,14.2,19.8,14.2z"/>
	<path class="st3" d="M19.8,8.6h-4.7c-0.5,0-0.9,0.4-0.9,0.9s0.4,0.9,0.9,0.9h4.7c0.5,0,0.9-0.4,0.9-0.9S20.3,8.6,19.8,8.6z"/>
</g>
</svg>
