<svg xmlns="http://www.w3.org/2000/svg" id="a" viewBox="0 0 47 47"><defs><style>.b,.d{fill:#fff;stroke-width:0;fill-rule:evenodd}.d{fill:#fff}</style></defs><path d="M15.97 28.76H9.61c-.45 0-.82.34-.82.76v5.9c0 .42.36.76.82.76h6.36c.45 0 .82-.34.82-.76v-5.9c0-.42-.36-.76-.82-.76Zm-.82 5.9h-4.73v-4.39h4.73v4.39ZM16.78 8.97c0-.42-.36-.76-.82-.76H9.6c-.45 0-.82.34-.82.76v5.9c0 .42.36.76.82.76h6.36c.45 0 .82-.34.82-.76v-5.9Zm-1.63 5.15h-4.73V9.73h4.73v4.39ZM16.78 19.24c0-.42-.36-.76-.82-.76H9.6c-.45 0-.82.34-.82.76v5.9c0 .42.36.76.82.76h6.36c.45 0 .82-.34.82-.76v-5.9Zm-1.63 5.15h-4.73V20h4.73v4.39Z" class="b"/><path d="M39.78 12.93s-.01-.06-.02-.09a.734.734 0 0 0-.2-.34L30.1 3.73a.803.803 0 0 0-.37-.18c-.04 0-.07-.01-.1-.02-.04 0-.07-.02-.11-.02H5.32c-.45 0-.82.34-.82.76v38.48c0 .42.36.76.82.76h16.49c.45 0 .82-.34.82-.76s-.36-.76-.82-.76H6.13V5.02h22.58v8.01c0 .42.36.76.82.76h8.64v11.83c0 .42.36.76.82.76s.82-.34.82-.76V13.03s-.02-.06-.02-.1Zm-9.43-.66V6.09l6.67 6.18h-6.67Z" class="b"/><path d="M22.15 34.15h-3c-.45 0-.81.34-.81.76s.36.76.81.76h3c.45 0 .82-.34.82-.76s-.36-.76-.82-.76ZM22.15 30.5h-3c-.45 0-.81.34-.81.76s.36.76.81.76h3c.45 0 .82-.34.82-.76s-.36-.76-.82-.76ZM32.68 20.23H19.15c-.45 0-.81.34-.81.76s.36.76.81.76h13.53c.45 0 .81-.34.81-.76s-.36-.76-.81-.76ZM19.15 11.47h6.37c.45 0 .82-.34.82-.76s-.36-.76-.82-.76h-6.37c-.45 0-.81.34-.81.76s.36.76.81.76ZM19.15 15.12h6.37c.45 0 .82-.34.82-.76s-.36-.76-.82-.76h-6.37c-.45 0-.81.34-.81.76s.36.76.81.76ZM32.68 23.88H19.15c-.45 0-.81.34-.81.76s.36.76.81.76h13.53c.45 0 .81-.34.81-.76s-.36-.76-.81-.76Z" class="b"/><path d="M42.2 28.52a.87.87 0 0 0-1.04 0l-6.95 5.33-5.31-1.5c-.35-.1-.73.03-.92.32-.2.29-.16.66.08.91l6.51 6.68c.16.16.38.25.61.25h.09c.26-.03.49-.17.62-.38l6.51-10.65c.19-.32.12-.72-.19-.95Zm-7.18 9.95-3.77-3.87 2.91.82c.26.08.55.02.76-.14l3.87-2.97-3.77 6.16Z" class="d"/><path d="M39.02 38.04c-.45 0-.82.34-.82.76v3.06H26.33V30.85H36c.45 0 .82-.34.82-.76s-.36-.76-.82-.76H25.52c-.45 0-.82.34-.82.76v12.52c0 .42.36.76.82.76h13.5c.45 0 .82-.34.82-.76v-3.82c0-.42-.36-.76-.82-.76Z" class="d"/></svg>