<svg xmlns="http://www.w3.org/2000/svg" xml:space="preserve" id="그룹_4" x="0" y="0" style="enable-background:new 0 0 30 30" version="1.1" viewBox="0 0 30 30"><style>.st0{fill-rule:evenodd;clip-rule:evenodd;fill:#c93c5d}</style><path d="M25.3 16.2c0-2-1.6-3.6-3.6-3.6-.6 0-1.1.1-1.5.4l-2.9-4.3h2c.2 0 .5-.2.5-.5 0-.2-.2-.4-.5-.4h-2.8c-.2 0-.3.1-.4.2-.1.1-.1.3 0 .5l1 1.4h-5.8c-.1 0-.1 0-.2.1l-.1.1-1.2 2.6c-.3-.1-.7-.2-1.1-.2-2 0-3.6 1.6-3.6 3.6s1.6 3.6 3.6 3.6c1.8 0 3.3-1.4 3.5-3.1h3c.1 0 .1 0 .2-.1l.1-.1s.1 0 .1-.1l2.3-5.3 1.5 2.3c-.8.7-1.3 1.7-1.3 2.8 0 2 1.6 3.6 3.6 3.6 2 .2 3.6-1.5 3.6-3.5zM8.6 19c-1.5 0-2.7-1.2-2.7-2.7s1.2-2.7 2.7-2.7c.2 0 .5 0 .7.1l-1.1 2.5c-.1.1 0 .3 0 .4.1.1.2.2.4.2h2.7C11 18 9.9 19 8.6 19zm1.5-5c.6.4 1.1 1.1 1.2 1.9h-2l.8-1.9zm2.1 1.9c-.1-1.1-.8-2.1-1.7-2.7l.8-1.9 1.3 2 1.7 2.6h-2.1zm2.8-.5-3-4.6h5l-2 4.6zm9.4.9c0 1.5-1.2 2.7-2.7 2.7S19 17.7 19 16.2c0-.8.4-1.5.9-2l1.6 2.3c.1.1.2.2.4.2.1 0 .2 0 .3-.1.2-.1.3-.4.1-.6l-1.6-2.3c.3-.1.7-.2 1.1-.2 1.4 0 2.6 1.2 2.6 2.8zM21.8 16.8z" class="st0"/></svg>