<svg xmlns="http://www.w3.org/2000/svg" id="a" viewBox="0 0 47 47"><defs><style>.b,.d{fill:#11223e;stroke-width:0;fill-rule:evenodd}.d{fill:#ca3a5b}</style></defs><path d="M40.98 13.59s0-.06-.02-.09a.683.683 0 0 0-.18-.32L29.94 2.71a.697.697 0 0 0-.33-.17c-.03 0-.06-.01-.09-.02-.03 0-.06-.02-.09-.02H6.74c-.41 0-.74.32-.74.71v40.57c0 .4.33.71.74.71h33.52c.41 0 .74-.32.74-.71V13.69s-.01-.06-.02-.09ZM30.16 4.93l8.11 7.83.21.2h-8.32V4.94Zm9.36 38.14H7.48V3.93h21.2v9.76c0 .4.33.71.74.71h10.1v28.67Z" class="b"/><path d="M10.59 9.53h14.44c.41 0 .74-.32.74-.71s-.33-.71-.74-.71H10.59c-.41 0-.74.32-.74.71s.33.71.74.71ZM10.59 13.42h14.44c.41 0 .74-.32.74-.72s-.33-.71-.74-.71H10.59c-.41 0-.74.32-.74.71s.33.72.74.72ZM9.99 16.75c0 .44.33.8.73.8h24.74c.41 0 .73-.36.73-.8s-.33-.8-.73-.8H10.73c-.41 0-.73.36-.73.8ZM35.47 19.91H10.73c-.41 0-.73.36-.73.8s.33.8.73.8h24.74c.41 0 .73-.36.73-.8s-.33-.8-.73-.8ZM35.46 23.88h-12.8c-.41 0-.75.33-.75.75s.33.75.75.75h12.8c.41 0 .74-.34.74-.75s-.33-.75-.74-.75ZM35.46 27.94h-12.8c-.41 0-.75.33-.75.75s.33.75.75.75h12.8c.41 0 .74-.33.74-.75s-.33-.75-.74-.75ZM35.49 31.8h-8.88c-.4 0-.72.33-.72.75s.32.75.72.75h8.88c.4 0 .72-.33.72-.75s-.32-.75-.72-.75ZM35.49 35.87h-8.88c-.4 0-.72.33-.72.75s.32.75.72.75h8.88c.4 0 .72-.33.72-.75s-.32-.75-.72-.75Z" class="b"/><path d="M19.31 31.99h-5.94c-2.35 0-4.26 1.84-4.26 4.11v4.4c0 .39.33.71.74.71h12.97c.41 0 .74-.32.74-.71v-4.4c0-2.27-1.91-4.11-4.25-4.11Zm2.78 7.8h-1.64v-2.31c0-.39-.33-.71-.74-.71s-.74.32-.74.71v2.31h-5.26v-2.31c0-.39-.33-.71-.74-.71s-.74.32-.74.71v2.31h-1.64V36.1c0-1.48 1.24-2.68 2.78-2.68h5.94c1.53 0 2.78 1.2 2.78 2.68v3.69ZM16.34 31.23c2.17 0 3.94-1.71 3.94-3.8s-1.77-3.8-3.94-3.8-3.94 1.71-3.94 3.8 1.77 3.8 3.94 3.8Zm0-6.18c1.36 0 2.46 1.07 2.46 2.38s-1.1 2.38-2.46 2.38-2.46-1.07-2.46-2.38 1.1-2.38 2.46-2.38Z" class="d"/></svg>