<?xml version="1.0" encoding="utf-8"?>
<!-- Generator: Adobe Illustrator 27.9.6, SVG Export Plug-In . SVG Version: 9.03 Build 54986)  -->
<svg version="1.1" id="a" xmlns="http://www.w3.org/2000/svg" xmlns:xlink="http://www.w3.org/1999/xlink" x="0px" y="0px"
	 viewBox="0 0 34 34" style="enable-background:new 0 0 34 34;" xml:space="preserve">
<style type="text/css">
	.st0{fill:#FFFFFF;fill-opacity:0;}
	.st1{fill-rule:evenodd;clip-rule:evenodd;fill:#B1C3DD;}
	.st2{fill-rule:evenodd;clip-rule:evenodd;fill:#C93C5D;}
	.st3{fill-rule:evenodd;clip-rule:evenodd;fill:#11223E;}
</style>
<rect class="st0" width="34" height="34"/>
<g>
	<path class="st1" d="M28.5,2.7H4.9c-1.5,0-2.6,1.2-2.6,2.6v16.2c0,1.5,1.2,2.6,2.6,2.6h6.9v7l7.2-7h9.5c1.5,0,2.6-1.2,2.6-2.6V5.4
		C31.1,3.9,29.9,2.7,28.5,2.7L28.5,2.7z"/>
	<path class="st2" d="M11.2,20.1c0.1-4.1,2.6-7.4,5.6-7.4s5.6,3.3,5.6,7.4C22.5,20.1,11.2,20.1,11.2,20.1z M16.9,12.2
		c-1.5,0-2.8-1.2-2.8-2.7s1.2-2.7,2.8-2.7s2.8,1.2,2.8,2.7S18.4,12.2,16.9,12.2z"/>
</g>
<g>
	<path class="st3" d="M28.9,2H5.1c-2,0-3.6,1.6-3.6,3.5v16c0,1.9,1.6,3.5,3.6,3.5h6.1v6.1c0,0.3,0.2,0.7,0.5,0.8
		c0.1,0,0.2,0.1,0.4,0.1c0.2,0,0.5-0.1,0.6-0.2l7.1-6.7h9.2c2,0,3.6-1.6,3.6-3.5v-16C32.5,3.6,30.9,2,28.9,2z M28.9,23.3h-9.6
		c-0.2,0-0.4,0.1-0.6,0.2l-5.8,5.5v-4.9c0-0.5-0.4-0.9-0.9-0.9h-7c-1,0-1.8-0.8-1.8-1.8v-16c0-1,0.8-1.8,1.8-1.8h23.9
		c1,0,1.8,0.8,1.8,1.8v16l0,0C30.7,22.5,29.9,23.3,28.9,23.3z"/>
	<path class="st3" d="M19.5,12.2L19.5,12.2c0.9-0.7,1.5-1.7,1.5-2.8c0-2-1.7-3.6-3.7-3.6c-2,0-3.7,1.6-3.7,3.6
		c0,1.2,0.6,2.2,1.5,2.8c-2.5,1.1-4.3,4.2-4.4,7.8c0,0.2,0.1,0.5,0.2,0.6c0.2,0.2,0.4,0.3,0.6,0.3H23c0.2,0,0.5-0.1,0.6-0.3
		c0.2-0.2,0.3-0.4,0.2-0.6C23.8,16.3,22,13.3,19.5,12.2z M17.3,7.4c1.1,0,1.9,0.8,1.9,1.9s-0.9,1.9-1.9,1.9s-1.9-0.8-1.9-1.9
		S16.2,7.4,17.3,7.4z M12.5,19.1c0.4-3.2,2.4-5.7,4.8-5.7c2.4,0,4.4,2.5,4.8,5.7H12.5z"/>
</g>
</svg>
