<svg xmlns="http://www.w3.org/2000/svg" xml:space="preserve" style="enable-background:new 0 0 30 30" viewBox="0 0 30 30"><path d="M20 11.8c0-1.3-1.1-2.3-2.4-2.3h-2.2V7.3c0-.3.2-.5.5-.5h3.2c.2 0 .4-.2.4-.4s-.2-.4-.4-.4H16c-.8 0-1.4.6-1.4 1.3v2.2h-2.2c-1.3 0-2.4 1-2.4 2.3v5.3c.1 2.7 2.3 4.8 5 4.8 2.7.1 4.9-2.1 5-4.8v-5.3zm-2.4-1.4c.8 0 1.5.6 1.5 1.4v1.1h-3.7v-2.5h2.2zm-5.2 0h2.2v2.5h-3.7v-1.1c0-.8.7-1.4 1.5-1.4zm6.7 6.8c-.1 2.1-1.8 3.8-3.9 3.9-2.3.1-4.2-1.7-4.3-3.9v-3.4h8.2v3.4z" style="fill-rule:evenodd;clip-rule:evenodd;fill:#c93c5d"/></svg>