<?xml version="1.0" encoding="UTF-8"?><svg id="a" xmlns="http://www.w3.org/2000/svg" viewBox="0 0 34 34"><defs><style>.b{fill:rgba(255,255,255,0);}.b,.c{stroke-width:0px;}.c{fill:#fff;fill-rule:evenodd;}</style></defs><rect class="b" width="34" height="34"/><path class="c" d="m30.05,12.37h-2.62v-6.96c0-1.33-1.07-2.42-2.39-2.42h-15.17c-1.32,0-2.4,1.08-2.4,2.42v6.96h-2.62c-1.32,0-2.39,1.09-2.39,2.42v13.8c0,1.33,1.07,2.42,2.39,2.42h25.21c1.32,0,2.4-1.08,2.4-2.42v-13.8c0-1.33-1.07-2.42-2.4-2.42h-.01ZM4.84,29.24c-.36,0-.64-.29-.64-.65v-13.8c0-.36.29-.65.64-.65h2.62v14.46c0,.23.04.44.1.65h-2.72Zm20.83-.65c0,.35-.3.65-.65.65h-15.17c-.35,0-.65-.3-.65-.65V5.41c0-.35.3-.65.65-.65h15.17c.35,0,.65.3.65.65v23.18Zm5.02,0c0,.36-.29.65-.65.65h-2.72c.06-.21.1-.42.1-.65v-14.46h2.62c.35,0,.65.3.65.65v13.8h0Z"/><path class="c" d="m19.8,14.24h-4.7c-.48,0-.87.4-.87.88s.39.88.87.88h4.7c.48,0,.88-.4.88-.88s-.39-.88-.88-.88Z"/><path class="c" d="m19.8,8.62h-4.7c-.48,0-.87.4-.87.88s.39.88.87.88h4.7c.48,0,.88-.39.88-.88s-.39-.88-.88-.88Z"/></svg>