<svg xmlns="http://www.w3.org/2000/svg" xml:space="preserve" id="그룹_4" x="0" y="0" style="enable-background:new 0 0 30 30" version="1.1" viewBox="0 0 30 30"><style>.st0{fill-rule:evenodd;clip-rule:evenodd;fill:#c93c5d}</style><path d="M23 13.7v-3.1c0-.8-.7-1.4-1.4-1.3h-3.3c0-.1.1-.1.1-.2V7.3c0-.8-.7-1.4-1.4-1.3h-3.9c-.8 0-1.4.6-1.4 1.3V9c0 .1 0 .2.1.2H8.4c-.8.1-1.4.7-1.4 1.4v9c0 .2 0 .4.1.5.1.2.2.3.3.4.1.1.3.2.4.3.2.2.4.2.6.2h13.2c.2 0 .4 0 .6-.1.2-.1.3-.2.4-.3.1-.1.2-.3.3-.4.1-.2.1-.4.1-.6v-5.9zM12.5 9V7.3c0-.3.2-.5.5-.5h3.9c.3 0 .5.2.5.5V9c0 .1 0 .2.1.2h-5.1c.1 0 .1-.1.1-.2zm9.6 10.6v.2c-.1.1-.1.2-.1.2s-.1.1-.2.1H8.2c-.1 0-.1-.1-.2-.1 0 0-.1-.1-.1-.2v-5.7h3.3c.2 0 .4-.2.4-.4s-.2-.4-.4-.4H7.9v-2.7c0-.3.2-.5.5-.5h13.2c.3 0 .5.2.5.5v2.7h-3.3c-.2 0-.4.2-.4.4s.2.4.4.4h3.3v5.5z" class="st0"/><path d="M15 11.9c-.7 0-1.2.5-1.2 1.1v2.2c0 .6.5 1.1 1.1 1.1h.1c.6 0 1.1-.5 1.1-1.1V13c.1-.6-.5-1.1-1.1-1.1zm.3 3.3c0 .1-.1.3-.3.2-.1 0-.3-.1-.3-.2V13c0-.1.1-.3.3-.2.1 0 .3.1.3.2v2.2z" class="st0"/></svg>