<svg xmlns="http://www.w3.org/2000/svg" id="a" viewBox="0 0 47 47"><defs><style>.d{stroke-width:0;fill-rule:evenodd;fill:#fff}</style></defs><path d="M37.95 33.42h-1.46V3.78c0-.43-.37-.78-.82-.78H4.32c-.45 0-.82.35-.82.78v34.74c0 2.81 2.2 5.2 5.02 5.46.18.02.35.02.53.02h28.89c3.07 0 5.56-2.37 5.56-5.29s-2.49-5.29-5.56-5.29Zm0 9.02H12.99c.12-.11.21-.25.32-.37.1-.11.21-.22.3-.34.14-.19.26-.4.37-.61.05-.1.12-.2.17-.3.12-.27.21-.55.28-.83.02-.06.05-.12.06-.18.08-.35.12-.71.12-1.09 0-1.46-.62-2.77-1.62-3.73h2.83c.45 0 .82-.35.82-.78s-.37-.78-.82-.78H9.06c-.45 0-.82.35-.82.78s.37.78.82.78c2.16 0 3.92 1.67 3.92 3.73 0 .26-.03.52-.09.77-.01.04-.03.08-.04.12-.05.2-.11.4-.2.59-.03.08-.08.14-.12.21-.08.15-.16.29-.26.43-.06.09-.14.16-.21.24-.1.11-.19.22-.3.32-.09.08-.19.15-.28.22-.11.08-.22.17-.34.24-.11.07-.23.12-.35.18-.11.05-.23.11-.35.15-.12.05-.25.08-.38.11s-.26.06-.39.08c-.13.02-.26.03-.39.04-.2.01-.4.02-.61 0-1.98-.18-3.53-1.9-3.53-3.91V4.56h29.72v28.86h-15.8c-.45 0-.82.35-.82.78s.37.78.82.78h18.9c2.16 0 3.92 1.67 3.92 3.73s-1.76 3.73-3.92 3.73Z" style="fill-rule:evenodd;stroke-width:0;fill:#fff"/><path d="M31.99 22.51h-2.83c-.45 0-.82.35-.82.78s.37.78.82.78h2.01v6.34H19.61v-6.34h6.47c.45 0 .82-.35.82-.78s-.37-.78-.82-.78h-7.29c-.45 0-.82.35-.82.78v7.9c0 .43.37.78.82.78h13.2c.45 0 .82-.35.82-.78v-7.9c0-.43-.37-.78-.82-.78ZM8.43 19.77h22.82c.45 0 .82-.35.82-.78s-.37-.78-.82-.78H8.43c-.45 0-.82.35-.82.78s.37.78.82.78ZM8.43 16.26h22.82c.45 0 .82-.35.82-.78s-.37-.78-.82-.78H8.43c-.45 0-.82.35-.82.78s.37.78.82.78ZM8.43 12.75h22.82c.45 0 .82-.35.82-.78s-.37-.78-.82-.78H8.43c-.45 0-.82.35-.82.78s.37.78.82.78ZM8.43 9.24h22.82c.45 0 .82-.35.82-.78s-.37-.78-.82-.78H8.43c-.45 0-.82.35-.82.78s.37.78.82.78ZM15.32 21.72H8.43c-.45 0-.82.35-.82.78s.37.78.82.78h6.89c.45 0 .82-.35.82-.78s-.37-.78-.82-.78ZM15.32 25.24H8.43c-.45 0-.82.35-.82.78s.37.78.82.78h6.89c.45 0 .82-.35.82-.78s-.37-.78-.82-.78ZM15.32 28.75H8.43c-.45 0-.82.35-.82.78s.37.78.82.78h6.89c.45 0 .82-.35.82-.78s-.37-.78-.82-.78Z" class="d"/></svg>