<svg xmlns="http://www.w3.org/2000/svg" xml:space="preserve" id="그룹_7" x="0" y="0" style="enable-background:new 0 0 30 30" version="1.1" viewBox="0 0 30 30"><style>.st0{fill:#c93c5d}</style><path d="M12.6 16.2v2.3c0 .2.2.4.4.4h4.8c.2 0 .4-.2.4-.4v-2.3c0-.8-.6-1.5-1.4-1.7.5-.4.7-1.1.6-1.7-.2-.9-.9-1.5-1.7-1.7-.7-.1-1.3.1-1.8.6-.5.4-.7 1.1-.6 1.7.1.4.3.8.6 1.1-.7.2-1.2.8-1.3 1.7zm2.1-3.9c.2-.2.5-.3.8-.3h.2c.5.1.9.5 1 .9.1.4-.1.7-.3 1-.3.3-.7.4-1 .3-.5-.1-.9-.4-1-.9-.1-.4 0-.8.3-1zm-1.2 3.9c0-.6.5-1 1-1h1.9c.6 0 1 .4 1 1v1.9h-3.9v-1.9zM8.5 11.9v6.2c0 .2.2.4.4.4s.4-.2.4-.4v-6.2c0-.2-.2-.4-.4-.4-.1 0-.3.2-.4.4zM18.8 20.8h-6.5c-.2 0-.4.2-.4.4s.2.4.5.4h6.5c.2 0 .4-.2.4-.4s-.2-.4-.5-.4zM21.6 11.9v6.2c0 .2.2.4.4.4s.4-.2.4-.4v-6.2c0-.2-.2-.4-.4-.4-.1 0-.4.2-.4.4zM18.8 8.4h-6.6c-.2 0-.4.2-.4.5 0 .2.2.4.5.4h6.5c.3.1.5-.2.5-.4 0-.3-.2-.5-.5-.5zM8.7 10.7H9c.5 0 1-.2 1.4-.5.4-.4.6-1 .6-1.6-.3-.8-.9-1.5-1.7-1.6-.6-.1-1.3.1-1.7.5-.5.5-.7 1.1-.6 1.6.2.9.8 1.5 1.7 1.6zm-.5-2.5c.2-.2.5-.4.8-.3h.2c.4 0 .7.4.8.8.1.3 0 .6-.3.9-.2.2-.6.3-.9.2-.4 0-.8-.3-.9-.8 0-.3.1-.6.3-.8zM22 10.7zM21.7 10.7h.3c.5 0 1-.2 1.4-.5.4-.4.6-1 .5-1.6-.2-.8-.8-1.4-1.6-1.6-.6-.1-1.2.1-1.7.5-.4.4-.7 1-.5 1.6.2.9.8 1.5 1.6 1.6zm-.4-2.5c.2-.2.5-.4.7-.3h.2c.4.1.8.4.9.8 0 .3-.1.6-.3.9-.2.2-.6.3-.9.3-.5-.1-.8-.4-.9-.9-.1-.3.1-.6.3-.8zM9.3 19.3c-.6-.1-1.2.1-1.7.5-.4.4-.6 1-.5 1.6.2.8.8 1.4 1.6 1.5H9c.5 0 1-.2 1.4-.6.4-.4.6-1 .5-1.6-.2-.7-.8-1.3-1.6-1.4zm.4 2.5c-.2.2-.6.3-.9.3-.4-.1-.8-.4-.9-.8 0-.3.1-.6.3-.9.2-.2.5-.3.8-.3h.2c.4.1.8.4.9.8 0 .4-.2.7-.4.9zM22 23zM22.4 19.3c-.6-.1-1.2.1-1.7.5-.4.4-.6 1-.5 1.6.2.8.8 1.4 1.6 1.5h.3c.5 0 1-.2 1.4-.5.4-.4.6-1 .5-1.6-.2-.8-.8-1.4-1.6-1.5zm.4 2.5c-.2.2-.6.3-.9.3-.4-.1-.8-.4-.9-.8 0-.3.1-.6.3-.9.2-.2.5-.3.7-.3h.2c.4.1.8.4.9.8 0 .4-.1.7-.3.9z" class="st0"/></svg>