<?xml version="1.0" encoding="UTF-8"?><svg id="a" xmlns="http://www.w3.org/2000/svg" viewBox="0 0 34 34"><defs><style>.b{fill:rgba(255,255,255,0);}.b,.c{stroke-width:0px;}.c{fill:#fff;fill-rule:evenodd;}</style></defs><rect class="b" width="34" height="34"/><path class="c" d="m29.6,15.36h-11.72v-4.04c2.1-.4,3.69-2.21,3.69-4.37,0-2.45-2.05-4.45-4.57-4.45s-4.57,2-4.57,4.45c0,2.16,1.59,3.97,3.69,4.37v4.04H4.4c-.49,0-.88.38-.88.86v5.2c0,.48.39.86.88.86s.88-.39.88-.86v-4.34h10.84v4.34c0,.48.4.86.88.86s.88-.39.88-.86v-4.34h10.84v4.34c0,.48.4.86.88.86s.88-.39.88-.86v-5.2c0-.48-.4-.86-.88-.86Zm-12.6-5.68c-1.55,0-2.8-1.23-2.8-2.73s1.26-2.73,2.8-2.73,2.8,1.22,2.8,2.73-1.26,2.73-2.8,2.73Z"/><path class="c" d="m7.64,25.41c0-.48-.39-.86-.88-.86H1.39c-.49,0-.88.39-.88.86v5.23c0,.07,0,.12.03.15.08.4.42.71.85.71h5.37c.43,0,.78-.31.85-.71.02-.03.03-.08.03-.15v-5.23Zm-5.37.86h3.6v3.51h-3.6v-3.51Z"/><path class="c" d="m20.57,25.41c0-.48-.39-.86-.88-.86h-5.37c-.49,0-.88.39-.88.86v5.23c0,.07.01.12.03.15.08.4.42.71.85.71h5.37c.43,0,.78-.31.85-.71.02-.03.03-.08.03-.15,0,0,0-5.23,0-5.23Zm-5.37.86h3.6v3.51h-3.6s0-3.51,0-3.51Z"/><path class="c" d="m33.49,25.41c0-.48-.39-.86-.88-.86h-5.37c-.49,0-.88.39-.88.86v5.23c0,.07.01.12.03.15.08.4.42.71.85.71h5.37c.43,0,.78-.31.85-.71.02-.03.03-.08.03-.15v-5.23Zm-5.37.86h3.6v3.51h-3.6v-3.51Z"/></svg>