<svg xmlns="http://www.w3.org/2000/svg" id="a" viewBox="0 0 47 47"><defs><style>.b,.d{fill:#fff;stroke-width:0;fill-rule:evenodd}.d{fill:#fff}</style></defs><path d="M21.41 27.59c.43 0 .77-.33.77-.74v-1.7c0-.41-.35-.74-.77-.74s-.77.33-.77.74v.96h-2.36c-.43 0-.77.33-.77.74s.35.74.77.74h3.13Z" class="b"/><path d="M44.86 33.27v-5.03c0-.85-.17-1.66-.48-2.41 0-.01-.01-.02-.02-.04-.92-2.18-3.04-3.77-5.57-4.04-.38-5-4.75-8.96-10.07-8.96h-6.65c-.43 0-.77.33-.77.74s.34.74.77.74h.15v7.44h-8.2c-.43 0-.77.33-.77.74s.34.74.77.74h9.88v9.99H3.68v-1.56H6.4c1.4 0 2.54-1.09 2.54-2.42S7.8 26.78 6.4 26.78H3.93c.66-2.06 2.65-3.58 5.02-3.58.43 0 .77-.33.77-.74 0-.83.13-1.65.38-2.43.13-.39-.1-.8-.51-.92-.41-.12-.84.09-.96.48-.23.71-.37 1.43-.43 2.17-3.09.32-5.55 2.64-5.98 5.56-.02.06-.04.12-.04.19v.21c-.01.17-.05.34-.05.52v5.03c-1.22.3-2.14 1.35-2.14 2.61 0 1.49 1.27 2.71 2.83 2.71h4.29c-.05.28-.08.56-.08.84 0 2.79 2.38 5.06 5.3 5.06s5.3-2.27 5.3-5.06c0-.28-.03-.56-.08-.84h11.91c-.05.28-.08.56-.08.84 0 2.79 2.38 5.06 5.3 5.06s5.3-2.27 5.3-5.06c0-.28-.03-.56-.08-.84h4.29c1.56 0 2.83-1.21 2.83-2.71 0-1.26-.91-2.32-2.14-2.61ZM3.73 28.25H6.4c.55 0 .99.43.99.95s-.45.95-.99.95H3.73v-1.9Zm39.38-1.35c.13.43.21.88.21 1.34v1.07h-2.51c.12-1.21 1.07-2.19 2.29-2.42Zm-.62-1.35c-1.85.5-3.23 2.11-3.23 4.04v.47c0 .41.35.74.77.74h3.29v2.39H25.43V23.2h12.61c1.87 0 3.51.94 4.45 2.35Zm-18.73-3.82v-7.44h4.96c4.46 0 8.13 3.28 8.52 7.44H23.76Zm-11.42 21.3c-2.07 0-3.76-1.61-3.76-3.59 0-.28.04-.56.11-.84h7.3c.07.28.11.56.11.84 0 1.98-1.68 3.59-3.75 3.59Zm22.33 0c-2.07 0-3.76-1.61-3.76-3.59 0-.28.04-.56.11-.84h7.3c.07.28.11.56.11.84 0 1.98-1.68 3.59-3.76 3.59Zm9.5-5.9H2.83c-.71 0-1.29-.55-1.29-1.23s.58-1.23 1.29-1.23h41.34c.71 0 1.29.55 1.29 1.23s-.58 1.23-1.29 1.23Z" class="b"/><path d="M28.15 27.59h3.13c.43 0 .77-.33.77-.74s-.34-.74-.77-.74h-2.35v-.96c0-.41-.35-.74-.77-.74s-.77.33-.77.74v1.7c0 .41.34.74.77.74Z" class="b"/><path d="M12.84 2.5c-4.35 0-7.88 3.59-7.88 8.01s3.54 8.01 7.88 8.01 7.88-3.59 7.88-8.01-3.54-8.01-7.88-8.01Zm0 14.65c-3.61 0-6.54-2.98-6.54-6.64s2.93-6.64 6.54-6.64 6.54 2.98 6.54 6.64-2.93 6.64-6.54 6.64Z" class="d"/><path d="m15.24 7.47-3.01 4.13-1.85-1.93a.769.769 0 0 0-1.13 0c-.31.33-.31.85 0 1.18l2.5 2.6c.15.16.35.24.57.24h.05c.23-.02.44-.14.58-.33l3.57-4.89c.27-.37.2-.89-.15-1.17a.774.774 0 0 0-1.12.16Z" class="d"/></svg>