<svg xmlns="http://www.w3.org/2000/svg" xml:space="preserve" id="그룹_2" x="0" y="0" style="enable-background:new 0 0 30 30" version="1.1" viewBox="0 0 30 30"><style>.st0{fill-rule:evenodd;clip-rule:evenodd;fill:#c93c5d}</style><path d="M21.7 18.2h-.6v-5.7h.7c.3.1.7-.1.8-.4.1-.3 0-.7-.3-.9l-6.5-5.9c-.5-.5-1.3-.5-1.8 0l-6.5 5.9c-.3.2-.4.6-.3.9.1.3.5.5.8.4h.7v5.7h-.4c-.7 0-1.3.6-1.3 1.3v.2c0 .7.6 1.3 1.3 1.3h13.5c.7 0 1.3-.6 1.3-1.3v-.2c-.1-.7-.7-1.3-1.4-1.3zm-2.5-.2v-5.1h1.1V18h-1.1zm-.8.2h-2v-5.7h2v5.7zm-4-5.4h1.1V18h-1.1v-5.2zm.2-6.8c.2-.2.5-.2.7 0l6.3 5.7H8.4L14.6 6zm-3.8 6.8V18H9.7v-5.1h1.1zm.8-.2h2v5.7h-2v-5.7zm10.6 7.1c0 .2-.2.4-.4.4H8.3c-.2 0-.4-.2-.4-.4v-.2c0-.2.2-.4.4-.4h13.5c.2 0 .4.2.4.4v.2z" class="st0"/><path d="M16.6 9.4c0-.8-.7-1.5-1.5-1.5s-1.5.7-1.5 1.5.7 1.5 1.5 1.5c.9 0 1.5-.7 1.5-1.5zm-.8 0c0 .3-.3.6-.6.6s-.6-.3-.6-.6.3-.6.6-.6.6.3.6.6z" class="st0"/></svg>