<svg xmlns="http://www.w3.org/2000/svg" id="a" viewBox="0 0 47 47"><defs><style>.b,.d{fill:#11223e;stroke-width:0;fill-rule:evenodd}.d{fill:#c93c5d}</style></defs><path d="M8.05 14.17c-.45 0-.82.32-.82.72v16.83c0 .69.63 1.25 1.4 1.25h29.72c.77 0 1.4-.56 1.4-1.25V14.89c0-.4-.37-.72-.82-.72s-.82.32-.82.72v16.62H8.87V14.89c0-.4-.37-.72-.82-.72Z" class="b"/><path d="M38.65 9.74c-.45 0-.82.33-.82.73s.37.73.82.73c1.49 0 2.71 1.08 2.71 2.4v19.24c0 1.32-1.21 2.4-2.71 2.4H8.35c-1.49 0-2.71-1.08-2.71-2.4V13.59c0-1.32 1.21-2.4 2.71-2.4h3.98c.45 0 .82-.33.82-.73s-.36-.73-.82-.73H8.35c-2.4 0-4.34 1.73-4.34 3.85v19.24c0 2.12 1.95 3.85 4.34 3.85h5.7c-.79 1.36-1.25 2.85-1.37 4.37H8.77c-.45 0-.82.32-.82.73s.37.73.82.73h29.49c.45 0 .82-.32.82-.73s-.37-.73-.82-.73h-3.95c-.12-1.52-.58-3.01-1.37-4.37h5.7c2.39 0 4.34-1.73 4.34-3.85V13.59c0-2.12-1.95-3.85-4.34-3.85ZM14.3 41.06c.12-1.4.58-2.77 1.36-4l.23-.37H31.1l.23.37c.78 1.23 1.24 2.6 1.36 4H14.3Z" class="b"/><path d="M35.71 4.49H15.74c-.45 0-.82.32-.82.72v21.41c0 .68-.62 1.23-1.39 1.23s-1.39-.55-1.39-1.23V15.7c0-.4-.37-.72-.82-.72s-.82.32-.82.72v10.92c0 1.48 1.36 2.68 3.02 2.68h19.97c1.67 0 3.02-1.2 3.02-2.68V5.22c0-.4-.37-.72-.82-.72Zm-.82 22.14c0 .68-.62 1.23-1.39 1.23H16.22c.22-.37.34-.79.34-1.23V5.94h18.33v20.69Z" class="d"/><path d="M18.94 25.84h13.39c.45 0 .82-.33.82-.72s-.37-.73-.82-.73H18.94c-.45 0-.82.33-.82.73s.37.72.82.72ZM18.94 23.05h13.39c.45 0 .82-.33.82-.73s-.37-.73-.82-.73H18.94c-.45 0-.82.32-.82.73s.37.73.82.73ZM18.94 20.27h13.39c.45 0 .82-.32.82-.73s-.37-.73-.82-.73H18.94c-.45 0-.82.33-.82.73s.37.73.82.73ZM18.94 17.48h13.39c.45 0 .82-.32.82-.72s-.37-.73-.82-.73H18.94c-.45 0-.82.33-.82.73s.37.72.82.72ZM18.94 14.69h13.39c.45 0 .82-.33.82-.72s-.37-.73-.82-.73H18.94c-.45 0-.82.32-.82.73s.37.72.82.72ZM18.94 11.9h8.62c.45 0 .82-.33.82-.73s-.37-.73-.82-.73h-8.62c-.45 0-.82.32-.82.73s.37.73.82.73ZM18.94 9.12h8.62c.45 0 .82-.32.82-.73s-.37-.72-.82-.72h-8.62c-.45 0-.82.32-.82.72s.37.73.82.73Z" class="d"/></svg>