<svg xmlns="http://www.w3.org/2000/svg" viewBox="0 0 47 47"><path d="m40.28 10.52-7.43-7.31a.734.734 0 0 0-.52-.21H16.72c-1.81 0-3.4 1.16-3.98 2.81a4.205 4.205 0 0 0-3 2.68c-1.87.44-3.24 2.09-3.24 4.02v27.34c0 2.29 1.89 4.15 4.22 4.15h19.55c1.84 0 3.4-1.18 3.97-2.8 1.43-.33 2.56-1.35 3.02-2.68 1.87-.44 3.23-2.08 3.23-4.02V11.03c0-.19-.08-.38-.22-.51Zm-7.26 29.32c0 .15-.02.29-.04.43-.04.09-.06.18-.06.28a2.744 2.744 0 0 1-2.64 1.99H10.72c-1.52 0-2.75-1.21-2.75-2.7V12.51c0-1.34 1.02-2.5 2.37-2.68.12-.02.25-.03.38-.03h14.87v3.16c0 2.29 1.89 4.15 4.22 4.15h3.21v22.73Zm-5.96-26.88v-2.14l4.84 4.76.08.08h-2.17c-1.51 0-2.75-1.21-2.75-2.7Zm8.96 24.2c0 1.06-.62 1.98-1.53 2.42v-23.2s-.01-.06-.02-.09c0-.03 0-.06-.02-.09a.715.715 0 0 0-.18-.33l-7.43-7.31a.82.82 0 0 0-.33-.18c-.03 0-.06-.01-.09-.02-.03 0-.06-.02-.1-.02H11.41a2.76 2.76 0 0 1 2.3-1.23h15.3l7 6.88v23.15Zm3-2.68c0 1.06-.62 1.98-1.54 2.42V13.71c0-.19-.08-.38-.21-.51l-7.43-7.31a.734.734 0 0 0-.52-.21H14.41a2.76 2.76 0 0 1 2.3-1.23h15.3l7 6.88v23.16Z" style="fill-rule:evenodd;stroke-width:0;fill:#fff"/><path d="M29.52 29.89H11.16a.72.72 0 1 1 0-1.44h18.36c.41 0 .74.32.74.72s-.33.72-.74.72Zm0-3.86H11.16a.72.72 0 1 1 0-1.44h18.36c.41 0 .74.32.74.72s-.33.72-.74.72Zm0-3.86H11.16a.72.72 0 1 1 0-1.44h18.36c.41 0 .74.32.74.72s-.33.72-.74.72Zm-7.57-3.86H11.16a.72.72 0 1 1 0-1.44h10.79c.41 0 .74.32.74.72s-.33.72-.74.72Zm0-3.86H11.16a.72.72 0 1 1 0-1.44h10.79c.41 0 .74.32.74.72s-.33.72-.74.72ZM11.16 32.3h18.36c.41 0 .74.32.74.72s-.33.72-.74.72H11.16a.72.72 0 1 1 0-1.44Zm8.68 5.43h8.99c.41 0 .74.32.74.72s-.33.72-.74.72h-8.99c-.41 0-.74-.32-.74-.72s.33-.72.74-.72Z" style="fill:#fff;fill-rule:evenodd;stroke-width:0"/></svg>