<svg xmlns="http://www.w3.org/2000/svg" xml:space="preserve" id="그룹_3" x="0" y="0" style="enable-background:new 0 0 30 30" version="1.1" viewBox="0 0 30 30"><style>.st0{fill-rule:evenodd;clip-rule:evenodd;fill:#c93c5d}</style><path d="M14.1 15.6c.6-.5.9-1.3.9-2.2 0-1.6-1.3-3-3-2.9-1.6 0-3 1.3-2.9 3 0 .8.4 1.6.9 2.1-1.1.3-2 1.4-2 2.7v4.3c0 .2.2.4.4.4h7.3c.2 0 .4-.2.4-.4v-4.3c.1-1.3-.8-2.4-2-2.7zm-2-4.2c1.1 0 2 .9 2 2.1 0 1.1-.9 2-2.1 2-1.1 0-2-.9-2-2.1 0-1.1 1-2 2.1-2zm3.2 10.7H8.9v-3.8c0-1 .8-1.8 1.8-1.8h2.8c1 0 1.8.8 1.8 1.8v3.8zM19.6 6.3c-2.2 0-4 1.8-4 4V15c0 .2.1.4.3.4h.2c.1 0 .3-.1.3-.2l1.2-1.5c.6.3 1.3.5 2 .5 2.2 0 4-1.8 4-4 0-2.1-1.8-3.8-4-3.9zm0 7.1c-.6 0-1.3-.2-1.8-.6-.2-.1-.5-.1-.6.1l-.7.8v-3.4c0-1.7 1.4-3.1 3.1-3.1 1.6.1 2.8 1.3 2.9 2.9.1 1.7-1.2 3.2-2.9 3.3z" class="st0"/></svg>