<svg xmlns="http://www.w3.org/2000/svg" id="a" viewBox="0 0 47 47"><defs><style>.b,.d{fill:#11223e;stroke-width:0;fill-rule:evenodd}.d{fill:#c93c5d}</style></defs><path d="M40.84 11.01h-1.05V9.83c0-1.29-1.06-2.33-2.37-2.33s-2.37 1.05-2.37 2.33v1.18h-2.23V9.83c0-1.29-1.06-2.33-2.37-2.33s-2.36 1.05-2.36 2.33v1.18h-2.23V9.83c0-1.29-1.06-2.33-2.37-2.33s-2.37 1.05-2.37 2.33v1.18h-2.23V9.83c0-1.29-1.06-2.33-2.37-2.33s-2.37 1.05-2.37 2.33v1.18h-2.23V9.83c0-1.29-1.06-2.33-2.37-2.33S7.18 8.55 7.18 9.83v1.18H6.12c-1.74 0-3.16 1.4-3.16 3.11v22.27c0 1.72 1.42 3.11 3.16 3.11H40.8c1.74 0 3.16-1.4 3.16-3.11V14.12c0-1.72-1.42-3.11-3.16-3.11Zm-4.42-1.18c0-.54.45-.98 1-.98s1 .44 1 .98v2.37a1 1 0 0 1-2 0V9.83Zm-13.92 0c0-.54.45-.98 1-.98s1 .44 1 .98v2.37a1 1 0 0 1-2 0V9.83Zm-6.96 0c0-.54.45-.98 1-.98s1 .44 1 .98v2.37a1 1 0 0 1-2 0V9.83Zm-6.96 0c0-.54.45-.98 1-.98s1 .44 1 .98v2.37a1 1 0 0 1-2 0V9.83Zm34.05 26.55c0 .97-.81 1.77-1.79 1.77H6.16c-.99 0-1.79-.79-1.79-1.77V14.12c0-.97.8-1.77 1.79-1.77h1.07c.08 1.21 1.1 2.18 2.35 2.18s2.27-.97 2.35-2.18h2.26c.08 1.21 1.1 2.18 2.35 2.18s2.27-.97 2.35-2.18h2.26c.08 1.21 1.1 2.18 2.35 2.18s2.27-.97 2.35-2.18h2.93c.38 0 .68-.3.68-.67V9.83c0-.54.45-.98 1-.98s1 .44 1 .98v1.85c0 .37.31.67.68.67h2.93c.08 1.21 1.1 2.18 2.35 2.18s2.27-.97 2.35-2.18h1.07c.99 0 1.79.79 1.79 1.77v22.27Z" class="b"/><path d="M39.51 32.55c-.38 0-.68.3-.68.67v1.25H34.9v-2.5h.98c.38 0 .68-.3.68-.67s-.31-.67-.68-.67h-1.66c-.38 0-.68.3-.68.67v3.85c0 .37.31.67.68.67h5.29c.38 0 .68-.3.68-.67v-1.92c0-.37-.31-.67-.68-.67ZM30.67 32.55c-.38 0-.68.3-.68.67v1.25h-3.93v-2.5h.98c.38 0 .68-.3.68-.67s-.31-.67-.68-.67h-1.66c-.38 0-.68.3-.68.67v3.85c0 .37.31.67.68.67h5.29c.38 0 .68-.3.68-.67v-1.92c0-.37-.31-.67-.68-.67ZM21.84 32.55c-.38 0-.68.3-.68.67v1.25h-3.93v-2.5h.98c.38 0 .68-.3.68-.67s-.31-.67-.68-.67h-1.66c-.38 0-.68.3-.68.67v3.85c0 .37.31.67.68.67h5.29c.38 0 .68-.3.68-.67v-1.92c0-.37-.31-.67-.68-.67ZM21.84 25.26c-.38 0-.68.3-.68.67v1.25h-3.93v-2.5h.98c.38 0 .68-.3.68-.67s-.31-.67-.68-.67h-1.66c-.38 0-.68.3-.68.67v3.85c0 .37.31.67.68.67h5.29c.38 0 .68-.3.68-.67v-1.92c0-.37-.31-.67-.68-.67ZM21.84 17.98c-.38 0-.68.3-.68.67v1.25h-3.93v-2.5h.98c.38 0 .68-.3.68-.67s-.31-.67-.68-.67h-1.66c-.38 0-.68.3-.68.67v3.85c0 .37.31.67.68.67h5.29c.38 0 .68-.3.68-.67v-1.92c0-.37-.31-.67-.68-.67ZM13 32.55c-.38 0-.68.3-.68.67v1.25H8.39v-2.5h.98c.38 0 .68-.3.68-.67s-.31-.67-.68-.67H7.71c-.38 0-.68.3-.68.67v3.85c0 .37.31.67.68.67H13c.38 0 .68-.3.68-.67v-1.92c0-.37-.31-.67-.68-.67ZM13 25.26c-.38 0-.68.3-.68.67v1.25H8.39v-2.5h.98c.38 0 .68-.3.68-.67s-.31-.67-.68-.67H7.71c-.38 0-.68.3-.68.67v3.85c0 .37.31.67.68.67H13c.38 0 .68-.3.68-.67v-1.92c0-.37-.31-.67-.68-.67ZM13 17.98c-.38 0-.68.3-.68.67v1.25H8.39v-2.5h.98c.38 0 .68-.3.68-.67s-.31-.67-.68-.67H7.71c-.38 0-.68.3-.68.67v3.85c0 .37.31.67.68.67H13c.38 0 .68-.3.68-.67v-1.92c0-.37-.31-.67-.68-.67Z" class="b"/><path d="M39.68 25.26c-.38 0-1.58.3-1.58.67v1.25h-3.03v-2.5h.98c.38 0 .68-.3.68-.67s-.31-.67-.68-.67h-1.66c-.38 0-.68.3-.68.67v3.85c0 .37.31.67.68.67h5.29c.38 0 .68-.3.68-.67v-1.92c0-.37-.31-.67-.68-.67ZM39.68 17.98c-.38 0-1.58.3-1.58.67v1.25h-3.03v-2.5h.98c.38 0 .68-.3.68-.67s-.31-.67-.68-.67h-1.66c-.38 0-.68.3-.68.67v3.85c0 .37.31.67.68.67h5.29c.38 0 .68-.3.68-.67v-1.92c0-.37-.31-.67-.68-.67ZM30.84 25.26c-.38 0-.68.3-.68.67v1.25h-3.93v-2.5h.98c.38 0 .68-.3.68-.67s-.31-.67-.68-.67h-1.66c-.38 0-.68.3-.68.67v3.85c0 .37.31.67.68.67h5.29c.38 0 .68-.3.68-.67v-1.92c0-.37-.31-.67-.68-.67ZM30.84 17.98c-.38 0-.68.3-.68.67v1.25h-3.93v-2.5h.98c.38 0 .68-.3.68-.67s-.31-.67-.68-.67h-1.66c-.38 0-.68.3-.68.67v3.85c0 .37.31.67.68.67h5.29c.38 0 .68-.3.68-.67v-1.92c0-.37-.31-.67-.68-.67Z" class="d"/></svg>