<svg xmlns="http://www.w3.org/2000/svg" xml:space="preserve" id="그룹_3" x="0" y="0" style="enable-background:new 0 0 30 30" version="1.1" viewBox="0 0 30 30"><style>.st0{fill-rule:evenodd;clip-rule:evenodd;fill:#fff}</style><path d="m17.5 17.6 1.8-1.8c1.1-1.1 1.8-2.7 1.8-4.3 0-1.6-.6-3.1-1.8-4.3-1.1-1.1-2.6-1.8-4.2-1.8S12 6 10.9 7.2C9.6 8.4 9 9.9 9 11.5c0 1.6.6 3.1 1.8 4.3l1.8 1.8C11 18 10 18.9 10 19.9c0 1.5 2.1 2.6 5 2.6 2.8 0 5-1.1 5-2.6 0-1-1-1.9-2.5-2.3zm-6.1-2.4c-1-1-1.5-2.3-1.5-3.6s.5-2.7 1.5-3.6c1-1 2.3-1.5 3.6-1.5 1.4 0 2.7.5 3.6 1.5 1 1 1.5 2.3 1.5 3.6s-.5 2.7-1.5 3.6l-2.2 2.2c-.2 0-.4.1-.4.4v.1l-1 1-1-1v-.1c0-.2-.2-.4-.4-.4l-2.2-2.2zm3.6 6.4c-2.4 0-4.1-.9-4.1-1.8 0-.6 1-1.3 2.4-1.6.8.8 1.4 1.5 1.4 1.5.1.1.2.1.3.1.1 0 .2 0 .3-.1l1.4-1.5c1.4.3 2.4.9 2.4 1.6 0 .9-1.7 1.8-4.1 1.8z" class="st0"/><path d="M17.3 11.4c0-1.3-1-2.3-2.3-2.3-1.3 0-2.3 1-2.3 2.3 0 1.3 1 2.3 2.3 2.3 1.3 0 2.3-1 2.3-2.3zm-3.7 0c0-.8.6-1.4 1.4-1.4.8 0 1.4.6 1.4 1.4 0 .8-.6 1.4-1.4 1.4-.8 0-1.4-.6-1.4-1.4z" class="st0"/></svg>