<svg xmlns="http://www.w3.org/2000/svg" xml:space="preserve" id="사진" x="0" y="0" style="enable-background:new 0 0 30 30" version="1.1" viewBox="0 0 30 30"><style>.st0{fill-rule:evenodd;clip-rule:evenodd;fill:#009da5}</style><path d="M20.3 18h-9.8l2.6-3.9 2.2 2.6c.1.1.2.2.4.2.1 0 .3-.1.4-.2l1.1-1.3 1.4 1.7c.2.2.5.2.7.1.2-.2.2-.4.1-.6l-1.9-2.1c-.1-.1-.2-.2-.4-.2-.1 0-.3.1-.4.2l-1.1 1.3-2.2-2.7c-.1-.1-.2-.2-.4-.2s-.3.1-.4.2l-3.5 5.1c-.1.1-.1.3 0 .5s.2.3.4.2h10.7c.3 0 .5-.2.5-.5s-.1-.4-.4-.4zM17.9 13.2c.6 0 1-.5 1-1 0-.6-.5-1-1-1-.6 0-1 .5-1 1 0 .6.4 1 1 1z" class="st0"/><path d="M21.6 8.5H8.4c-1.1 0-1.9.8-1.9 1.9v9.2c0 1.1.9 1.9 1.9 1.9h13.1c.9 0 1.7-.7 1.9-1.6v-9.6c.1-1-.8-1.8-1.8-1.8zm.9 11.1c0 .5-.4.9-1 .9H8.4c-.5 0-1-.4-1-.9v-9.2c0-.5.4-1 1-.9h13.1c.5 0 1 .4 1 .9v9.2z" class="st0"/></svg>