<svg xmlns="http://www.w3.org/2000/svg" xml:space="preserve" id="pdf" x="0" y="0" style="enable-background:new 0 0 30 30" version="1.1" viewBox="0 0 30 30"><style>.st1{fill:#b30b00}</style><g id="PDF-2" style="enable-background:new"><path d="M6.3 11.5h2.5c1.6 0 2.5 1 2.5 2.3s-.8 2.3-2.5 2.3H7.4v2.4H6.3v-7zm2.4 3.6c1 0 1.5-.6 1.5-1.4 0-.8-.4-1.4-1.5-1.4H7.4v2.8h1.3zM12.4 18.5v-7h2.4c2.1 0 3.3 1.3 3.3 3.5s-1.2 3.5-3.4 3.5h-2.3zm2.3-.9c1.6 0 2.4-.9 2.4-2.6s-.8-2.6-2.3-2.6h-1.2v5.2h1.1zM19.3 11.5h4.4v.9h-3.3v2.1h3v.9h-3v3.1h-1.1v-7z" class="st1"/></g></svg>