<svg xmlns="http://www.w3.org/2000/svg" xml:space="preserve" id="한컴" x="0" y="0" style="enable-background:new 0 0 30 30" version="1.1" viewBox="0 0 30 30"><style>.st0{fill:#007ab7}</style><path d="M13.4 7.5c.3.1.6.2.9.2v.1h.3v.1h.3V8h.2v.1h.2V8l.3.1v.1h.2l.1.2.3.1c.1.1.1.2.2.2.4.2.7.5 1 .9h.2c-.6-1.3-1.3-3-3.2-3v.1l-.4.1v.1h-.2c0 .1 0 .1-.1.2h-.2c0-.1 0 .1-.1.2h-.1c.1.2 0 .1.1.2z" class="st0"/><path d="M19.8 11.4c-.2-.4-.6-.7-1.1-.7v-.1h-.8c0-.1 0-.1-.1-.2h-.1v-.2c-.2-.1-.3-.3-.5-.4 0-.1 0-.1-.1-.2h-.2c-.1-.1-.2-.2-.2-.3h-.2c0-.1 0-.1-.1-.2-.1 0-.2-.1-.3-.1 0-.1 0-.1-.1-.2h-.2v.1l-.3-.1v-.1l-.4-.1h-.2v-.1l-.7-.1v-.1h-1.5v.1H12v.1h-.3v.1c-.1 0-.2.1-.3.1v.1h-.2l-.1.2c-.5.4-.7 1.1-.5 1.7l1.7-.2v-.1h1.5v.1h.6c.2.1.5.2.8.2v.2c-.4.1-.7.1-1.1.2V11h-.2v.1h-.2v.1h-.2v.1h-.2v.1h-.2l-.1.2-.3.1c-.1.1-.1.2-.2.2h-.2c-.1.1-.1.2-.2.2-.1.1-.2.2-.3.2v.2c-.1.1-.2.1-.2.2v.2h-.1c-.1.2-.1.3-.2.5h-.1l-.1.6c-.2.9-.1 1.8.4 2.6l.4.3c.1.1.1.2.2.2l.4-.1.1.2h.2v.1h.2v.1h.2v.1h.8v.1c.5-.1 1-.2 1.5-.2v-.1h.2v-.1c.1 0 .2-.1.3-.1V17l.3-.1c1.6-.9 2.4-2.8 2-4.6.5 0 1 .2 1.3.5h.1c.4-.5.3-1 .1-1.4zm-4.4 4.2c-.4.2-.9.2-1.3 0-.2-.1-.4-.2-.5-.3-.2-.4-.2-.9-.2-1.4h.1v-.2h.1v-.2h.1v-.2c.1 0 .1-.1.2-.1V13h.1c.1-.1.2-.2.2-.3h.2c.1-.1.1-.2.2-.2s.2-.1.3-.1v-.1h.2v-.1h.2v-.1c.3 0 .5-.1.8-.2h.4c.2.2.3.5.4.7v.6c.1 1.2-.5 2.1-1.5 2.4zM14.5 18.8zM14.2 19.2c-.1 0-.1.1-.2.1v.2h-.1v.6c.1.1.2.4.3.5.1.1.3.2.4.2.3 0 .5 0 .8-.2.1 0 .2-.1.2-.2h.1v-.2c.1 0 .1-.1.2-.1V20h.1c0-.2 0-.5-.2-.6-.1-.2-.2-.4-.5-.5-.3-.1-.6-.1-.8-.1-.1.1-.2.2-.3.2v.2zM10 19.3v-.1z" class="st0"/><path d="M19.4 21.7h-.6v.1h-.5v.1h-.8v.1H14.2v-.1H13v-.1h-.3v-.1h-.2v-.1c-.1 0-.2-.1-.2-.1-.2-.8-.3-1.5-.2-2.3h-2c0 .8.1 1.5.2 2.2v.3h.1v.2h.1v.4h.1v.2h.1c.1.1.1.2.2.3.3.1.4.2.7.3h.4v.1h.5v.1h.8v.1H15l3.1-.1v-.1l1.4-.1c.1-.5.2-.9.4-1.4v-.4c-.2.3-.3.2-.5.4z" class="st0"/></svg>