<svg xmlns="http://www.w3.org/2000/svg" id="a" viewBox="0 0 472.32 314.9"><defs><style>.e{fill:#272525;stroke:#272525;stroke-width:.31px}</style></defs><path d="M0 0h472.32v314.9H0z" style="fill:#fff;stroke-width:0"/><path d="m384.29 103.66-10.67 7.45-43.8-68.68 10.66-7.45 43.81 68.68zM390.1 99.61l10.66-7.45-19.83-31.09-10.66 7.45 19.83 31.09zM356.96 23.48l-10.67 7.45 19.83 31.08 10.66-7.45-19.82-31.08zM357.12 122.63l10.67-7.45-19.83-31.08-10.67 7.45 19.83 31.08zM323.99 46.5l-10.67 7.45 19.82 31.09 10.67-7.45-19.82-31.09zM115.28 192.26l-10.67 7.44 43.8 68.68 10.67-7.44-43.8-68.68zM82.31 215.28l-10.67 7.45 43.8 68.68 10.67-7.45-43.8-68.68zM159.05 53.84l-10.74-7.5-43.81 68.71 10.73 7.52 43.82-68.73zM126.04 30.79l-10.67-7.45-43.78 68.67 10.66 7.45 43.79-68.67zM142.45 42.25l-10.67-7.45L88 103.47l10.67 7.45 43.78-68.67zM98.8 203.76l-10.67 7.45 19.84 31.09 10.66-7.44-19.83-31.1zM142.6 272.44l-19.82-31.07-10.66 7.45 19.82 31.07 10.66-7.45zM400.8 222.62l-10.74-7.5-19.88 31.18 10.74 7.5 19.88-31.18zM346.25 283.84l10.73 7.51 19.83-31.11-10.74-7.49-19.82 31.09zM313.33 260.79l10.67 7.45 19.8-31.05-10.67-7.44-19.8 31.04zM367.78 199.57l-10.66-7.45-19.88 31.18 10.67 7.45 19.87-31.18zM329.75 272.25l10.67 7.45 19.79-31.05-10.67-7.45-19.79 31.05zM384.2 211.03l-10.67-7.45-19.88 31.18 10.67 7.45 19.88-31.18z" class="e"/><path d="M171.22 156.6s7.69 13.38 23.22 17.13c0 0 9.32 3.23 20.68-.34 0 0 9.5-2.5 17-10.65 0 0 .93-.81 4.04-5.3 0 0 2.63-4.03 5.16-6.42 0 0 6.43-6.78 15.35-9.38 0 0 8.38-3.16 18.32-1.28 0 0 9.99 1.33 18.12 8.62 0 0 8.48 6.63 12.13 17.64 0 0 3.65 9.53 2.1 19.32 0 0-.58 8.05-4.78 15.24 0 0-.91 1.69-1.66 2.89 8.74-13.26 13.88-29.33 13.88-46.66 0-45.43-35.2-82.25-78.6-82.25-27.04 0-50.89 14.29-65.03 36.05-1.6 2.56-6.83 11.88-6.44 23.98 0 0-.13 11.05 6.52 21.42Z" style="stroke-width:0;fill:#cb2229"/><path d="M300.26 204.99c.21-.31.43-.62.63-.93.75-1.2 1.66-2.89 1.66-2.89 4.19-7.19 4.78-15.24 4.78-15.24 1.56-9.79-2.1-19.32-2.1-19.32-3.65-11.01-12.13-17.64-12.13-17.64-8.14-7.29-18.12-8.62-18.12-8.62-9.94-1.89-18.32 1.28-18.32 1.28-8.91 2.6-15.35 9.38-15.35 9.38-2.53 2.4-5.16 6.42-5.16 6.42-3.12 4.49-4.04 5.3-4.04 5.3-7.5 8.16-17 10.65-17 10.65-11.35 3.57-20.68.34-20.68.34-15.52-3.75-23.22-17.13-23.22-17.13-6.65-10.37-6.52-21.42-6.52-21.42-.39-12.1 4.84-21.42 6.44-23.98-8.56 13.17-13.57 29.08-13.57 46.21 0 45.43 35.19 82.25 78.6 82.25 26.35 0 49.66-13.59 63.92-34.41l.04-.1.14-.16Z" style="fill:#33348d;stroke-width:0"/></svg>