<svg xmlns="http://www.w3.org/2000/svg" xml:space="preserve" id="iocn" x="0" y="0" style="enable-background:new 0 0 116 116" version="1.1" viewBox="0 0 116 116"><style>.st0{fill-rule:evenodd;clip-rule:evenodd;fill:#c93c5d}</style><path d="m91.9 26.8-3.2-3.2c-1.4-1.4-3.8-1.4-5.2 0l-3 3-.4-.4c-.3-.3-.7-.3-1 0l-2.3 2.3c-.3.3-.3.7 0 1l.4.4-23.6 23.7-.2.2-3.2 8v.1l-1.8 4.7c-.1.3 0 .6.2.8.1.1.3.2.5.2h.3l12.5-5.3c.1 0 .2-.1.2-.2l23.6-23.7.4.4c.1.1.3.2.5.2s.4-.1.5-.2l2.3-2.3c.3-.3.3-.7 0-1l-.4-.4 3-3c1.4-1.5 1.4-3.8-.1-5.3zM50.4 65.6l.8-2.2 1.3 1.3-2.1.9zm3.4-1.6-2.1-2.1 2.6-6.6 1.8 1.8 2.5 2.5 1.7 1.7-6.5 2.7zm7.7-3.4L60 59.1l2.9-2.9c.3-.3.3-.7 0-1-.3-.3-.7-.3-1 0L59 58.1l-1.4-1.5L79 35.1c.3-.3.3-.7 0-1s-.7-.3-1 0L56.6 55.6l-1.5-1.5 23.1-23.2 6.4 6.4-23.1 23.3zm29.4-29.5-3 3-2.5-2.5c-.3-.3-.7-.3-1 0-.3.3-.3.7 0 1l3.5 3.5-1.3 1.3-.4-.4-7.8-7.9 1.3-1.3 1.9 1.9c.3.3.7.3 1 0 .3-.3.3-.7 0-1l-1-1 3-3c.9-.9 2.4-.9 3.3 0l3.2 3.2c.4.4.7 1 .7 1.6-.2.6-.5 1.2-.9 1.6z" class="st0"/><path d="M65.7 52.4c.1.1.3.2.5.2s.4-.1.5-.2l14.8-14.8c.3-.3.3-.7 0-1s-.7-.3-1 0L65.7 51.4c-.2.3-.2.7 0 1z" class="st0"/><path d="M92.8 83.8c0-.4-.3-.7-.7-.7H74.6V58.6c0-.4-.3-.7-.7-.7s-.7.3-.7.7v24.5h-13c-.4 0-.7.3-.7.7 0 4.6-3.8 8.4-8.4 8.4-1.4 0-2.8-.4-4-1-2.7-1.5-4.4-4.3-4.4-7.4V44.2c0-3.6-1.9-6.7-4.8-8.4h27.8c.4 0 .7-.3.7-.7s-.3-.7-.7-.7H32.6c-5.3.1-9.6 4.4-9.6 9.8 0 .4.3.7.7.7h17.5v38.8c0 5.2 4 9.5 9.1 9.8H83c5.4.1 9.8-4.3 9.8-9.7zM24.4 43.5c.3-4.1 3.6-7.4 7.7-7.7h1c4.2.1 7.8 3.4 8.1 7.7H24.4zM83 92.2H56.1c2.6-1.6 4.5-4.4 4.7-7.7h30.6c-.4 4.3-4 7.7-8.4 7.7z" style="fill-rule:evenodd;clip-rule:evenodd;fill:#11223e"/></svg>