<svg xmlns="http://www.w3.org/2000/svg" xml:space="preserve" id="Layer_1" x="0" y="0" style="enable-background:new 0 0 116 116" version="1.1" viewBox="0 0 116 116"><style>.st0,.st1{fill-rule:evenodd;clip-rule:evenodd;fill:#11223e}.st1{fill:#c93c5d}</style><path d="M27.4 75.9c.4 0 .8-.4.8-.8v-4.2c0-2.1 1.7-3.8 3.8-3.8h25.2v8c0 .4.4.8.8.8s.8-.4.8-.8v-8H84c2.1 0 3.8 1.7 3.8 3.8v4.2c0 .4.4.8.8.8s.8-.4.8-.8v-4.2c0-3-2.4-5.4-5.4-5.4H58.8v-11c0-.4-.4-.8-.8-.8s-.8.4-.8.8v10.9H32c-3 0-5.4 2.4-5.4 5.4V75c0 .5.4.9.8.9zM30.2 77.2h-5.6c-1.7 0-3.1 1.4-3.1 3.1v5.6c0 1.7 1.4 3.1 3.1 3.1h5.6c1.7 0 3.1-1.4 3.1-3.1v-5.6c0-1.7-1.4-3.1-3.1-3.1zm1.5 8.7c0 .9-.7 1.5-1.5 1.5h-5.6c-.9 0-1.5-.7-1.5-1.5v-5.6c0-.9.7-1.5 1.5-1.5h5.6c.9 0 1.5.7 1.5 1.5v5.6zM60.8 77.2h-5.5c-1.7 0-3.1 1.4-3.1 3.1v5.6c0 1.7 1.4 3.1 3.1 3.1h5.5c1.7 0 3.1-1.4 3.2-3.1v-5.6c-.1-1.7-1.5-3.1-3.2-3.1zm1.5 8.7c0 .9-.7 1.5-1.5 1.5h-5.5c-.9 0-1.5-.7-1.5-1.5v-5.6c0-.9.7-1.5 1.5-1.5h5.5c.9 0 1.5.7 1.5 1.5v5.6zM91.3 77.2h-5.5c-1.7 0-3.1 1.4-3.1 3.1v5.6c0 1.7 1.4 3.1 3.1 3.1h5.6c1.7 0 3.1-1.4 3.1-3.1v-5.6c0-1.7-1.4-3.1-3.2-3.1zm1.6 8.7c0 .9-.7 1.5-1.5 1.5h-5.5c-.9 0-1.5-.7-1.5-1.5v-5.6c0-.9.7-1.5 1.5-1.5h5.5c.9 0 1.5.7 1.5 1.5v5.6z" class="st0"/><path d="M58 26.5c-8 0-14.4 6.5-14.4 14.4 0 8 6.5 14.4 14.4 14.4s14.4-6.5 14.4-14.4S65.9 26.5 58 26.5zM70.8 41c0 7.1-5.7 12.8-12.8 12.8S45.2 48.1 45.2 41 50.9 28.2 58 28.2c7.1 0 12.8 5.7 12.8 12.8zM58 21.6c.4 0 .8-.4.8-.8v-7c0-.4-.4-.8-.8-.8s-.8.4-.8.8v7c0 .4.4.8.8.8zM72.8 26.9zM77.8 22.3c.3-.3.3-.8 0-1.1-.3-.3-.8-.3-1.1 0l-4.3 4.4c-.2.2-.2.4-.2.6 0 .4.4.8.8.8.2 0 .4-.1.6-.2l4.2-4.5zM85.1 40.1h-7c-.4 0-.8.4-.8.8s.4.8.8.8h7c.4 0 .8-.4.8-.8s-.3-.8-.8-.8zM43.2 26.9zM43.7 25.5l-4.3-4.4c-.3-.3-.8-.3-1.1 0s-.3.8 0 1.1l4.3 4.4c.1.2.4.2.6.2.2 0 .4-.1.6-.2.3-.2.3-.8-.1-1.1zM37.9 40.1h-7c-.4 0-.8.4-.8.8s.4.8.8.8h7c.4 0 .8-.4.8-.8s-.4-.8-.8-.8z" class="st1"/></svg>