<?xml version="1.0" encoding="utf-8"?>
<!-- Generator: Adobe Illustrator 27.9.6, SVG Export Plug-In . SVG Version: 9.03 Build 54986)  -->
<svg version="1.1" id="patco" xmlns="http://www.w3.org/2000/svg" xmlns:xlink="http://www.w3.org/1999/xlink" x="0px" y="0px"
	 viewBox="0 0 40 40" style="enable-background:new 0 0 40 40;" xml:space="preserve">
<style type="text/css">
	.st0{fill:#FFFFFF;}
	.st1{fill-rule:evenodd;clip-rule:evenodd;fill:#FF2233;}
</style>
<path id="box" class="st0" d="M5,0h30c2.8,0,5,2.2,5,5v30c0,2.8-2.2,5-5,5H5c-2.8,0-5-2.2-5-5V5C0,2.2,2.2,0,5,0z"/>
<g>
	<path class="st1" d="M34.1,17c-1.2-1.3-3.2-1.3-4.5-0.1c0,0-0.1,0.1-0.1,0.1c-1.3,1.5-1.3,3.6,0,5.1c1.2,1.3,3.2,1.3,4.5,0.1
		c0,0,0.1-0.1,0.1-0.1C35.3,20.6,35.3,18.4,34.1,17z M33,20.8c-0.6,0.7-1.7,0.8-2.4,0.2c-0.1-0.1-0.1-0.1-0.2-0.2
		c-0.6-0.8-0.6-1.9,0-2.7c0.6-0.7,1.7-0.8,2.4-0.2c0.1,0.1,0.1,0.1,0.2,0.2C33.6,19,33.6,20,33,20.8z"/>
	<path class="st1" d="M27.3,20.6c-0.2,0.3-0.4,0.5-0.7,0.6c-0.2,0.1-0.5,0.2-0.7,0.2c-0.5,0-1-0.2-1.3-0.6C24.2,20.5,24,20,24,19.5
		c0-0.6,0.2-1.1,0.6-1.5c0.3-0.3,0.7-0.4,1.2-0.4c0.2,0,0.5,0,0.7,0.1c0.3,0.1,0.5,0.3,0.7,0.5l0,0l1.1-1l0,0
		c-0.3-0.4-0.6-0.7-1-0.9c-0.5-0.2-1-0.3-1.5-0.3c-0.8,0-1.6,0.3-2.2,0.9c-0.7,0.7-1.1,1.7-1.1,2.6c0,0.8,0.3,1.7,0.8,2.3
		c0.6,0.8,1.5,1.2,2.5,1.2c0.6,0,1.1-0.1,1.6-0.4c0.4-0.3,0.7-0.6,1-1l0,0L27.3,20.6L27.3,20.6z"/>
	<polygon class="st1" points="20.8,16.2 19.5,19 18.2,16.2 16.5,16.2 18.7,20.7 18.7,22.8 20.2,22.8 20.2,20.7 22.5,16.2 	"/>
	<path class="st1" d="M13.2,16.2l-2.3,6.6h1.5l0.4-1.3h2.6l0.4,1.3h1.5l-2.3-6.6H13.2z M13.4,20l0.8-2.3L15,20H13.4z"/>
	<path class="st1" d="M11.2,18.6c0-0.6-0.2-1.1-0.5-1.5l0,0c-0.2-0.3-0.5-0.5-0.9-0.7c-0.3-0.1-0.6-0.2-1-0.2H6v6.6h1.5V21h1.4
		c0.4,0,0.8-0.1,1.1-0.3c0.4-0.2,0.8-0.6,1-1.1C11.2,19.3,11.2,19,11.2,18.6z M9.4,19.4L9.4,19.4c-0.2,0.1-0.4,0.1-0.6,0.1H7.4v-1.9
		h1.3c0.2,0,0.4,0,0.6,0.1c0.2,0.1,0.3,0.2,0.4,0.3c0.1,0.2,0.1,0.3,0.1,0.5C9.8,18.9,9.7,19.3,9.4,19.4z"/>
</g>
</svg>
