<?xml version="1.0" encoding="utf-8"?>
<!-- Generator: Adobe Illustrator 27.9.6, SVG Export Plug-In . SVG Version: 9.03 Build 54986)  -->
<svg version="1.1" id="kakao_copy" xmlns="http://www.w3.org/2000/svg" xmlns:xlink="http://www.w3.org/1999/xlink" x="0px" y="0px"
	 viewBox="0 0 40 40" style="enable-background:new 0 0 40 40;" xml:space="preserve">
<style type="text/css">
	.st0{fill:#F8E049;}
	.st1{fill-rule:evenodd;clip-rule:evenodd;fill:#371C1D;}
	.st2{fill-rule:evenodd;clip-rule:evenodd;fill:#F8E049;}
</style>
<path id="box" class="st0" d="M5,0h30c2.8,0,5,2.2,5,5v30c0,2.8-2.2,5-5,5H5c-2.8,0-5-2.2-5-5V5C0,2.2,2.2,0,5,0z"/>
<path class="st1" d="M20,8C12.8,8,7,12.6,7,18.3c0,3.7,2.5,7,6.2,8.8c-0.3,1-1,3.7-1.1,4.3c-0.2,0.7,0.3,0.7,0.5,0.5
	c0.2-0.2,3.6-2.4,5-3.4c0.8,0.1,1.6,0.2,2.4,0.2c7.2,0,13-4.6,13-10.3S27.2,8,20,8"/>
<g>
	<path class="st2" d="M15.8,15.8c0-0.3-0.3-0.6-0.6-0.6c-0.9,0-4.1,0-4.1,0c-0.4,0-0.6,0.4-0.6,0.7c0,0.3,0.3,0.6,0.6,0.6l0,0h1.3
		c0,0,0,3.7,0,4.6c0,0.6,1.4,0.6,1.4,0l0-4.5c0,0,0.5,0,1.3,0C15.5,16.5,15.8,16.2,15.8,15.8z"/>
	<path class="st2" d="M18.3,15.6c-0.2-0.3-0.5-0.4-0.9-0.4c-0.3,0-0.6,0.1-0.8,0.4l0,0c-0.3,0.7-1.5,4.2-1.9,5.1
		c-0.3,0.7,1,1.2,1.2,0.5l0.3-0.9h2.5c0,0.3,0.1,0.6,0.2,0.9c0.3,0.7,1.5,0.2,1.3-0.5C19.8,19.7,18.5,16.1,18.3,15.6z M16.7,19
		l0.8-2.4l0.7,2.4H16.7z"/>
	<path class="st2" d="M23.9,20.1c-0.6,0-1.8,0-1.8,0s0-3.5,0-4.4c-0.1-0.4-0.4-0.7-0.8-0.6c-0.3,0.1-0.6,0.3-0.6,0.6l0,0
		c0,1.2,0,5,0,5c-0.1,0.3,0.1,0.7,0.4,0.7c0,0,0.1,0,0.1,0c0.6,0,2.1,0,2.7,0S24.5,20.1,23.9,20.1z"/>
	<path class="st2" d="M29.4,20.5L27.5,18c0,0,1.3-1.4,1.8-1.9c0.3-0.3-0.6-1.2-0.9-0.9s-2.3,2.3-2.3,2.3s0-1.3,0-2
		c-0.1-0.3-0.4-0.5-0.7-0.4c-0.3-0.1-0.6,0.1-0.7,0.4l0,0c0,0.5,0,5.2,0,5.5c0,0.5,1.4,0.5,1.4,0v-1.8l0.4-0.3l1.8,2.4
		C28.6,21.8,29.7,21,29.4,20.5z"/>
</g>
</svg>
