<?xml version="1.0" encoding="utf-8"?>
<!-- Generator: Adobe Illustrator 27.9.6, SVG Export Plug-In . SVG Version: 9.03 Build 54986)  -->
<svg version="1.1" id="삼성_pass" xmlns="http://www.w3.org/2000/svg" xmlns:xlink="http://www.w3.org/1999/xlink" x="0px"
	 y="0px" viewBox="0 0 40 40" style="enable-background:new 0 0 40 40;" xml:space="preserve">
<style type="text/css">
	.st0{fill:#1E4CC6;}
	.st1{fill-rule:evenodd;clip-rule:evenodd;fill:#FFFFFF;}
</style>
<path id="box" class="st0" d="M5,0h30c2.8,0,5,2.2,5,5v30c0,2.8-2.2,5-5,5H5c-2.8,0-5-2.2-5-5V5C0,2.2,2.2,0,5,0z"/>
<line class="st1" x1="10.1" y1="20" x2="9.9" y2="20"/>
<g>
	<path class="st1" d="M18.9,22.7c-0.6-0.6-1.4-0.9-2.3-1c-2,0.2-3.5,1.9-3.3,3.9c0.1,1.8,1.6,3.2,3.3,3.3c0.8,0,1.7-0.3,2.3-1v1h1.6
		v-7.2h-1.6V22.7z M18.4,26.8L18.4,26.8c-0.4,0.4-0.9,0.6-1.5,0.6c-0.5,0-1-0.2-1.4-0.6c-0.7-0.8-0.7-2,0-2.9
		c0.4-0.4,0.9-0.6,1.4-0.6c1.1,0,2,0.9,2,2.1C18.9,26,18.7,26.4,18.4,26.8z"/>
	<path class="st1" d="M9.9,20H7v9h1.7v-2.6h1.2c1.8-0.1,3.1-1.6,3-3.4C12.8,21.4,11.5,20.1,9.9,20z M9.8,24.8H8.7v-3.2h1.1
		c0.9,0,1.6,0.7,1.6,1.6S10.6,24.8,9.8,24.8z"/>
	<path class="st1" d="M24.5,24.7c-1.3-0.2-1.7-0.5-1.7-0.8s0.2-0.7,1.1-0.7c0.6,0,1.1,0.3,1.4,0.8l1.4-0.7h0c-0.7-1.1-2-1.7-3.3-1.5
		c-1.2,0-2.2,1-2.3,2.2c0,1,1.2,1.7,2.5,1.9s1.5,0.6,1.5,0.8S25,27.5,24,27.5c-0.7,0-1.2-0.4-1.6-1l-1.5,0.7
		c0.6,1.1,1.8,1.8,3.1,1.8c1.5,0,2.8-0.9,2.8-2.2S25.9,24.9,24.5,24.7z"/>
	<path class="st1" d="M30.7,24.7c-1.3-0.2-1.7-0.5-1.7-0.8s0.2-0.7,1.1-0.7c0.6,0,1.1,0.3,1.4,0.8l1.4-0.7h0c-0.7-1.1-2-1.7-3.3-1.5
		c-1.2,0-2.2,1-2.3,2.2c0,1,1.2,1.7,2.5,1.9s1.5,0.6,1.5,0.8s-0.2,0.7-1.3,0.7c-0.7,0-1.2-0.4-1.6-1l-1.5,0.7
		c0.6,1.1,1.8,1.8,3.1,1.8c1.5,0,2.8-0.9,2.8-2.2S32.1,24.9,30.7,24.7z"/>
</g>
<g>
	<polygon class="st1" points="28.5,15 28.5,15 27.6,12.1 26.3,12.1 26.3,15.8 27.2,15.8 27.1,12.8 27.1,12.8 28.1,15.8 29.4,15.8 
		29.4,12.1 28.5,12.1 	"/>
	<polygon class="st1" points="11,12.1 10.3,15.9 11.3,15.9 11.8,12.5 11.8,12.5 12.3,15.9 13.3,15.9 12.6,12.1 	"/>
	<polygon class="st1" points="16.6,12.1 16.1,15 16.1,15 15.7,12.1 14.1,12.1 14.1,15.9 15,15.9 15,12.5 15,12.5 15.7,15.9 
		16.6,15.9 17.2,12.5 17.2,12.5 17.3,15.9 18.2,15.9 18.1,12.1 	"/>
	<path class="st1" d="M8,13.1c0-0.1,0-0.1,0-0.2c0-0.2,0.2-0.3,0.3-0.2c0.2,0,0.3,0.1,0.3,0.3c0,0,0,0,0,0.1v0.2h0.9v-0.3
		c0-0.6-0.5-1-1.1-1c-0.1,0-0.1,0-0.2,0c-0.6-0.1-1.2,0.3-1.3,0.8c0,0.2,0,0.3,0,0.5c0.2,0.8,1.5,1,1.7,1.5l0,0c0,0.1,0,0.2,0,0.3
		c0,0.2-0.2,0.3-0.4,0.3C8.2,15.3,8,15.2,8,15c0,0,0,0,0,0v-0.4H7v0.3c0.2,0.8,0.9,1.2,1.7,1c0.4-0.1,0.8-0.4,1-0.8
		c0-0.2,0-0.4,0-0.6C9.5,13.8,8.1,13.5,8,13.1z"/>
	<path class="st1" d="M20.1,13.1c0-0.1,0-0.1,0-0.2c0-0.2,0.2-0.3,0.3-0.2c0.2,0,0.3,0.1,0.3,0.3c0,0,0,0,0,0.1v0.2h0.9V13
		c0-0.6-0.5-1-1.1-1c-0.1,0-0.1,0-0.2,0c-0.6-0.1-1.1,0.2-1.3,0.8c0,0.2,0,0.3,0,0.5c0.1,0.8,1.5,1,1.6,1.5h0c0,0.1,0,0.2,0,0.3
		c0,0.2-0.2,0.3-0.4,0.2c-0.2,0-0.3-0.1-0.4-0.3c0,0,0,0,0,0v-0.4h-1v0.3c0.2,0.7,0.9,1.2,1.7,1c0.4-0.1,0.8-0.4,1-0.8
		c0-0.2,0-0.4,0-0.6C21.6,13.8,20.2,13.5,20.1,13.1z"/>
	<path class="st1" d="M24.3,14.9c0,0,0,0.1,0,0.1c0,0.2-0.2,0.3-0.4,0.3l0,0c-0.2,0-0.3-0.1-0.4-0.3c0,0,0-0.1,0-0.1v-2.8h-0.9v2.7
		c0,0.1,0,0.2,0,0.2c0.1,0.4,0.4,0.7,0.8,0.8c0.7,0.2,1.5-0.1,1.7-0.8c0,0,0-0.2,0-0.2v-2.7h-0.9V14.9z"/>
	<path class="st1" d="M31.7,13.8v0.5h0.4v0.5c0,0,0,0.1,0,0.1c0,0.2-0.2,0.3-0.4,0.3l0,0c-0.2,0-0.3-0.1-0.4-0.3c0,0,0-0.1,0-0.1
		v-1.7c0-0.1,0-0.1,0-0.2c0-0.2,0.2-0.3,0.4-0.3c0.2,0,0.3,0.1,0.4,0.3c0,0,0,0.1,0,0.1v0.2H33v-0.1c0-0.1,0-0.2,0-0.2
		c-0.1-0.4-0.4-0.7-0.8-0.8c-0.7-0.3-1.5,0.1-1.8,0.8c0,0.1,0,0.2,0,0.2v1.6c0,0.1,0,0.1,0,0.2c0.1,0.4,0.4,0.7,0.8,0.8
		c0.7,0.3,1.5-0.1,1.8-0.8c0-0.1,0-0.2,0-0.2v-1H31.7z"/>
</g>
</svg>
