<?xml version="1.0" encoding="utf-8"?>
<!-- Generator: Adobe Illustrator 27.9.6, SVG Export Plug-In . SVG Version: 9.03 Build 54986)  -->
<svg version="1.1" id="신한은행" xmlns="http://www.w3.org/2000/svg" xmlns:xlink="http://www.w3.org/1999/xlink" x="0px"
	 y="0px" viewBox="0 0 40 40" style="enable-background:new 0 0 40 40;" xml:space="preserve">
<style type="text/css">
	.st0{fill:#0046FF;}
	.st1{fill-rule:evenodd;clip-rule:evenodd;fill:#FFFFFF;}
</style>
<path id="box" class="st0" d="M5,0h30c2.8,0,5,2.2,5,5v30c0,2.8-2.2,5-5,5H5c-2.8,0-5-2.2-5-5V5C0,2.2,2.2,0,5,0z"/>
<g>
	<path class="st1" d="M7.4,30.5c0.4-0.2,0.7-0.6,1-0.9c0.1,0.2,0.2,0.3,0.4,0.4c0.2,0.1,0.3,0.3,0.5,0.4c0.2,0.1,0.5,0.3,0.7,0.3
		c0.1,0.1,0.2,0,0.3-0.1l0.3-0.6c-0.2-0.1-0.4-0.2-0.6-0.3c-0.2-0.1-0.4-0.2-0.6-0.4c-0.2-0.1-0.3-0.3-0.4-0.5
		c-0.1-0.2-0.2-0.4-0.2-0.6v-0.9H7.7c0,0-0.1,0-0.1,0.1c0,0,0,0.1,0,0.1c0.1,0.1,0.1,0.1,0.1,0.2c0,0.1,0,0.2,0,0.3v0.3
		c0,0.2,0,0.4-0.1,0.6c-0.1,0.2-0.2,0.4-0.4,0.5c-0.2,0.2-0.4,0.3-0.6,0.4c-0.2,0.1-0.4,0.2-0.7,0.3l0.3,0.6c0,0,0.1,0.1,0.1,0.1
		l0,0c0.1,0,0.2,0,0.3-0.1c0.1,0,0.2-0.1,0.3-0.2C7.2,30.6,7.3,30.6,7.4,30.5z"/>
	<path class="st1" d="M8.4,32.9L8.4,32.9c-0.1-0.1-0.1-0.2-0.1-0.3v-1.3H7.1c0,0-0.1,0-0.1,0.1c0,0,0,0.1,0,0.1
		c0.1,0.1,0.1,0.1,0.1,0.2c0,0.1,0,0.2,0,0.3v0.7c0,0.2,0,0.4,0.1,0.5c0.1,0.1,0.1,0.3,0.3,0.3c0.1,0.1,0.3,0.1,0.4,0.2
		c0.2,0,0.4,0.1,0.6,0h3.9V33H8.8C8.6,33,8.5,32.9,8.4,32.9z"/>
	<path class="st1" d="M11.2,27.7c0,0.1,0,0.2,0,0.3v3.6h1.1v0v-4.3h-1.2c0,0-0.1,0-0.1,0.1c0,0,0,0.1,0,0.1
		C11.1,27.5,11.1,27.6,11.2,27.7z"/>
	<path class="st1" d="M15.4,32.9c-0.1-0.1-0.1-0.2-0.1-0.3v-1h-1.2c0,0-0.1,0-0.1,0.1c0,0,0,0.1,0,0.1c0,0.1,0.1,0.1,0.1,0.2
		c0,0.1,0,0.1,0,0.2v0.5c0,0.2,0,0.4,0.1,0.5h0c0.1,0.1,0.1,0.3,0.3,0.3c0.1,0.1,0.3,0.1,0.4,0.2c0.2,0,0.4,0.1,0.6,0h3.8V33h-3.6
		C15.6,33,15.5,32.9,15.4,32.9z"/>
	<path class="st1" d="M14.5,31c0.5,0.2,1.1,0.2,1.6,0c0.2-0.1,0.4-0.2,0.6-0.3c0.2-0.1,0.3-0.3,0.4-0.5c0.1-0.2,0.1-0.4,0.1-0.6
		c0-0.2,0-0.3-0.1-0.5c-0.1-0.1-0.2-0.3-0.3-0.4h0.7v-0.8h-1.6v-0.8h-1.2c-0.1,0-0.1,0-0.1,0.1c0,0,0,0.1,0.1,0.1
		c0.1,0.1,0.1,0.1,0.1,0.2c0,0.1,0,0.2,0,0.3v0.1h-1.7v0.8h0.7c-0.1,0.1-0.2,0.3-0.3,0.4l0,0c-0.1,0.2-0.1,0.3-0.1,0.5
		c0,0.2,0,0.4,0.1,0.6c0.1,0.2,0.2,0.4,0.4,0.5C14.1,30.8,14.3,30.9,14.5,31z M14.7,28.9c0.3-0.3,0.8-0.3,1.1,0c0,0,0,0,0,0
		c0.1,0.2,0.2,0.4,0.2,0.6c0,0.2-0.1,0.4-0.2,0.6c-0.3,0.3-0.8,0.3-1.1,0c0,0,0,0,0,0c-0.1-0.2-0.2-0.4-0.2-0.6
		C14.5,29.3,14.6,29.1,14.7,28.9z"/>
	<path class="st1" d="M19.3,27.3L19.3,27.3l-1.2,0c0,0-0.1,0-0.1,0.1c0,0,0,0.1,0,0.1c0.1,0.1,0.1,0.1,0.1,0.2c0,0.1,0,0.2,0,0.3
		v3.7h1.1v-2h0.8v-0.8h-0.8V27.3z"/>
	<path class="st1" d="M21.7,29.7c0.3,0.1,0.5,0.2,0.8,0.3c0.8,0.1,1.6,0.1,2.3,0c0.3-0.1,0.6-0.2,0.8-0.3c0.2-0.1,0.4-0.3,0.5-0.5
		c0.1-0.2,0.2-0.4,0.2-0.6c0-0.2-0.1-0.4-0.2-0.6c-0.1-0.2-0.3-0.4-0.5-0.5c-0.3-0.1-0.5-0.2-0.8-0.3c-0.8-0.1-1.6-0.1-2.3,0
		c-0.3,0.1-0.6,0.2-0.8,0.3c-0.2,0.1-0.4,0.3-0.5,0.5c-0.1,0.2-0.2,0.4-0.2,0.6c0,0.2,0.1,0.4,0.2,0.6
		C21.3,29.4,21.5,29.6,21.7,29.7z M22.5,28.2c0.7-0.3,1.6-0.3,2.3,0c0.2,0.1,0.3,0.3,0.3,0.5c0,0.2-0.1,0.4-0.3,0.5
		c-0.8,0.2-1.6,0.2-2.3,0c-0.2-0.1-0.3-0.3-0.3-0.5C22.2,28.5,22.3,28.3,22.5,28.2z"/>
	<path class="st1" d="M22.6,33c-0.1,0-0.2,0-0.3,0c-0.1-0.1-0.1-0.2-0.1-0.2v-1h-1.2c0,0-0.1,0-0.1,0.1c0,0,0,0.1,0,0.1
		c0,0.1,0.1,0.1,0.1,0.2c0,0.1,0,0.1,0,0.2v0.7c0,0.1,0,0.3,0.1,0.4c0,0.1,0.1,0.2,0.2,0.3c0.1,0.1,0.3,0.1,0.4,0.1
		c0.2,0,0.4,0,0.6,0h4V33l0,0H22.6z"/>
	<rect x="20.3" y="30.5" class="st1" width="6.8" height="0.8"/>
	<path class="st1" d="M30,30.8c0.2-0.1,0.4-0.2,0.5-0.3c0.1-0.1,0.3-0.3,0.3-0.5c0.1-0.2,0.1-0.4,0.1-0.6c0-0.1,0-0.3-0.1-0.4
		c0-0.1-0.1-0.2-0.2-0.4h0.5v-0.8h-1.3v-0.7h-1.2c0,0-0.1,0-0.1,0.1c0,0.1,0,0.1,0,0.1c0.1,0.1,0.1,0.1,0.1,0.2c0,0.1,0,0.2,0,0.3v0
		h-1.5v0.8h0.6c-0.1,0.1-0.1,0.2-0.2,0.4v0c0,0.1-0.1,0.3-0.1,0.4c0,0.2,0,0.4,0.1,0.6c0.1,0.2,0.2,0.3,0.3,0.5
		c0.2,0.1,0.3,0.2,0.5,0.3C29.1,30.9,29.6,30.9,30,30.8z M28.8,29.9c-0.1-0.1-0.1-0.2-0.1-0.2c0-0.1,0-0.2,0-0.3c0-0.1,0-0.2,0-0.3
		c0-0.1,0.1-0.2,0.1-0.2c0.1-0.1,0.1-0.1,0.2-0.2c0.2-0.1,0.4-0.1,0.6,0c0.1,0,0.2,0.1,0.2,0.2c0.1,0.1,0.1,0.2,0.1,0.2
		c0,0.1,0,0.2,0,0.3c0,0.1,0,0.2,0,0.3c0,0.1-0.1,0.2-0.1,0.2c-0.1,0.1-0.1,0.1-0.2,0.2c-0.2,0.1-0.4,0.1-0.6,0
		C29,30,28.9,30,28.8,29.9z"/>
	<path class="st1" d="M33,27.3v1.3h-0.5v-1.3h-1.1h0c0,0-0.1,0-0.1,0.1c0,0.1,0,0.1,0,0.1c0,0.1,0.1,0.1,0.1,0.2c0,0.1,0,0.2,0,0.3
		v2.8h1v-1.3H33v1.5h1v-3.6H33z"/>
	<path class="st1" d="M33.3,31.5c-1.2-0.5-2.6-0.5-3.8,0c-0.4,0.2-0.6,0.6-0.6,1.1h0c0,0.2,0.1,0.4,0.2,0.6c0.1,0.2,0.3,0.4,0.5,0.5
		c0.3,0.1,0.5,0.2,0.8,0.3C30.7,34,31,34,31.4,34c0.4,0,0.7,0,1.1-0.1c0.3-0.1,0.6-0.2,0.8-0.3c0.2-0.1,0.4-0.3,0.5-0.5
		c0.1-0.2,0.2-0.4,0.2-0.6C34,32.1,33.7,31.7,33.3,31.5z M32.8,32.8c-0.1,0.1-0.1,0.2-0.2,0.2c-0.1,0.1-0.3,0.1-0.4,0.1
		c-0.4,0.1-0.9,0.1-1.3,0c-0.2,0-0.3-0.1-0.4-0.1c-0.1,0-0.2-0.1-0.2-0.2C30,32.7,30,32.6,30,32.5c0-0.1,0-0.2,0.1-0.3
		c0.1-0.1,0.1-0.2,0.2-0.2c0.1-0.1,0.3-0.1,0.4-0.1c0.4-0.1,0.9-0.1,1.3,0c0.2,0,0.3,0.1,0.4,0.1c0.1,0,0.2,0.1,0.2,0.2
		c0.1,0.1,0.1,0.2,0.1,0.3C32.9,32.6,32.8,32.7,32.8,32.8z"/>
</g>
<path class="st1" d="M20,7c-0.1,0-0.2,0-0.4,0c-4.4,0.2-7.8,3.9-7.6,8.4c0.2,4.4,3.9,7.8,8.4,7.6c4.4-0.2,7.8-3.9,7.6-8.4
	C27.8,10.4,24.3,7,20,7z M18.6,21.9L18.6,21.9c-0.1,0-0.3,0-0.4,0c-1.1-0.1-2.1-0.5-2.9-1.2c-0.8-0.7-1.4-1.6-1.6-2.7
	c-0.3-0.9-0.4-2,0.1-1.9c0.3,0.3,0.5,0.7,0.6,1c0.2,0.3,0.4,0.6,0.7,0.8c0.1,0.1,0.4-0.6,0.8-1c0.3-0.2,0.5-0.3,0.6,0.4
	c0.1,0.8-0.1,1.7,0.1,1.7c0.2,0,0.7-0.2,1.7-0.3c0.4,0,0.6,0,0.2,0.6c-0.3,0.4-0.6,0.8-1,1.1c0.9,0.8,2,0.7,2,1.1
	C19.5,21.8,19.1,21.9,18.6,21.9z M23.5,21.5c-0.8,0.5-1.7,0.8-2.6,0.8h0c-0.1,0-0.2-0.1-0.3-0.2c0-0.1,0.1-0.2,0.3-0.2
	c2.4-0.5,1.7-2,0.8-2.8c-0.4-0.3-3.7-3.2-3.7-3.2c-3.2-2.7-2.9-4.9-2.9-4.9c0.2-2.6,2.5-3.3,4.2-3.1c0.1,0,0.3,0.1,0.3,0.2
	c0,0,0,0.1,0,0.1c-0.1,0.1-0.2,0.2-0.3,0.2c-0.5,0-1,0.1-1.4,0.3c-1.4,0.9-1,2.6,0.9,4.3c0.2,0.2,0.5,0.5,0.7,0.7c0,0,0.4,0.3,1.1,1
	v0c1.4,1.3,2.2,2,2.2,2C25.3,18.9,24.5,20.9,23.5,21.5z M25,12.7c-0.8,0.6-1.6,0.3-1.9-0.8c0-0.4-0.4-0.8-0.8-0.7
	c-0.1,0-0.1,0-0.2,0c-0.4,0.2-0.2,0.9,0.1,1.6c0.3,0.4,0.2,1-0.2,1.4c-0.2,0.2-0.5,0.2-0.7,0.2c-0.1,0-0.1,0-0.1,0
	c-0.5-0.1-0.9-0.5-1-0.9c-0.1-0.3-0.1-0.7,0-1v0c0.1-0.7,0.3-1.4,0.6-2c0.4-0.9-0.5-1.5-0.4-1.8c0.2-0.5,0.8,0.1,1.5,0.2
	c0.6,0,1,0,1.5,0.1c0.6,0,1.2,0.3,1.7,0.7c0.3,0.4-0.2,0.8-0.7,0.5c-0.4-0.2-0.9-0.1-0.6,0.4c0.2,0.3,0.6,0.5,0.9,0.5
	c0.5,0.1,0.9,0.5,0.8,1.1C25.5,12.3,25.3,12.5,25,12.7z"/>
</svg>
