<?xml version="1.0" encoding="utf-8"?>
<!-- Generator: Adobe Illustrator 27.9.6, SVG Export Plug-In . SVG Version: 9.03 Build 54986)  -->
<svg version="1.1" id="pass" xmlns="http://www.w3.org/2000/svg" xmlns:xlink="http://www.w3.org/1999/xlink" x="0px" y="0px"
	 viewBox="0 0 40 40" style="enable-background:new 0 0 40 40;" xml:space="preserve">
<style type="text/css">
	.st0{fill:#FF3A4A;}
	.st1{fill-rule:evenodd;clip-rule:evenodd;fill:#FFFFFF;}
	.st2{fill:#FFFFFF;}
</style>
<path id="box" class="st0" d="M5,0h30c2.8,0,5,2.2,5,5v30c0,2.8-2.2,5-5,5H5c-2.8,0-5-2.2-5-5V5C0,2.2,2.2,0,5,0z"/>
<g>
	<path class="st1" d="M8.9,10.1c-2,0-2.9,0-2.9,0v10.8h1.6v-3.3h1.5c1.3,0,2.3-1,2.3-2.3c0,0,0-0.1,0-0.1v-2.8
		C11.4,12.4,11.6,10.1,8.9,10.1z M9.8,12.7v2.2c0.1,0.5-0.3,0.9-0.7,1c-0.1,0-0.1,0-0.2,0H7.6v-4.1c0,0,0.3,0,1.2,0
		C9.4,11.8,9.8,12.2,9.8,12.7C9.8,12.7,9.8,12.7,9.8,12.7z"/>
	<path class="st1" d="M14.1,10.1l-1.8,10.8H14l0.3-1.9h2l0.3,1.9h1.8l-1.9-10.8H14.1z M14.5,17.4l0.8-5l0.8,5H14.5z"/>
	<path class="st1" d="M24.1,15.7c-1.2-1.1-2.6-1.7-2.6-2.9c-0.1-0.6,0.3-1.1,0.8-1.2s1.1,0.3,1.2,0.8c0,0.1,0,0.1,0,0.2l0,0.8h1.7
		c-0.1-0.7,0.5-3.1-2.5-3.3c-3.5-0.1-3.7,3.5-2.2,5.1c0.7,0.8,2.9,1.7,2.9,3c0.2,0.5-0.1,1.1-0.7,1.3s-1.1-0.1-1.3-0.7
		c0-0.1,0-0.2,0-0.3v-0.7h-1.8c-0.1,0.6,0,1.3,0.2,1.9c0.4,0.8,1.1,1.4,2,1.4c1.9,0.3,3.4-0.9,3.3-2.7
		C25.2,17.5,25.6,17.2,24.1,15.7z"/>
	<path class="st1" d="M31.3,15.7c-1.2-1.1-2.6-1.7-2.6-2.9c-0.1-0.6,0.3-1.1,0.8-1.2s1.1,0.3,1.2,0.8c0,0.1,0,0.1,0,0.2l0,0.8h1.7
		C32.4,12.6,33,10.2,30,10c-3.5-0.1-3.7,3.5-2.2,5.1c0.7,0.8,2.9,1.7,2.9,3c0.2,0.5-0.1,1.1-0.7,1.3s-1.1-0.1-1.3-0.7
		c0-0.1,0-0.2,0-0.3v-0.7H27c-0.1,0.6,0,1.3,0.2,1.9c0.4,0.8,1.1,1.4,2,1.4c1.9,0.3,3.4-0.9,3.3-2.7C32.4,17.5,32.8,17.2,31.3,15.7z
		"/>
</g>
<g>
	<polygon class="st2" points="10,24.8 8.4,24.8 8.4,24.3 8.2,24.3 8.2,24.8 6.6,24.8 6.6,25 10,25 	"/>
	<polygon class="st2" points="6.4,27.3 7.5,27.3 7.5,28.6 7.7,28.6 7.7,27.3 9,27.3 9,28.6 9.2,28.6 9.2,27.3 10.3,27.3 10.3,27.1 
		6.4,27.1 	"/>
	<path class="st2" d="M7,26c0,0.4,0.5,0.7,1.3,0.7c0.8,0,1.3-0.2,1.3-0.7c0-0.4-0.5-0.7-1.3-0.7C7.5,25.3,7,25.6,7,26z M9.4,26
		c0,0.3-0.4,0.5-1.1,0.5c-0.7,0-1.1-0.2-1.1-0.5c0-0.3,0.4-0.5,1.1-0.5C9,25.5,9.4,25.7,9.4,26z"/>
	<path class="st2" d="M11.1,27.3L11.1,27.3l0-2.2h1.4v-0.2h-1.6v2.6h0.3c0.7,0,1.1,0,1.7-0.1l0-0.2C12.3,27.3,11.9,27.3,11.1,27.3z"
		/>
	<polygon class="st2" points="14.1,26.1 13.3,26.1 13.3,24.4 13.1,24.4 13.1,28.4 13.3,28.4 13.3,26.3 14.1,26.3 14.1,28.6 
		14.3,28.6 14.3,24.3 14.1,24.3 	"/>
	<polygon class="st2" points="17.3,25.8 18.3,25.8 18.3,27.5 18.5,27.5 18.5,24.3 18.3,24.3 18.3,25.6 17.3,25.6 	"/>
	<polygon class="st2" points="16.1,27.2 15.8,27.2 15.8,28.5 18.7,28.5 18.7,28.3 16.1,28.3 	"/>
	<path class="st2" d="M16.3,25.7c0.2,0.5,0.6,0.9,1.1,1.1l0.1-0.2c-0.6-0.2-1.1-0.8-1.1-1.3v-0.3h1v-0.2h-2.3v0.2h1v0.3
		c0,0.7-0.5,1.2-1.1,1.4l0.1,0.2C15.7,26.7,16.1,26.3,16.3,25.7z"/>
	<polygon class="st2" points="22,24.9 20.8,24.9 20.8,24.3 20.6,24.3 20.6,24.9 19.4,24.9 19.4,25.1 22,25.1 	"/>
	<polygon class="st2" points="22.6,24.3 22.4,24.3 22.4,28.6 22.6,28.6 22.6,26.4 23.4,26.4 23.4,26.2 22.6,26.2 	"/>
	<path class="st2" d="M20.8,27.5V27c0.5,0,0.9-0.3,0.9-0.8c0-0.5-0.4-0.8-1-0.8c-0.6,0-1,0.3-1,0.8c0,0.4,0.3,0.7,0.9,0.8v0.5
		c-0.5,0-0.9,0-1.3,0l0,0.2c0.8,0,1.8,0,2.7-0.2l0-0.2C21.7,27.4,21.2,27.5,20.8,27.5z M19.9,26.2c0-0.3,0.3-0.6,0.8-0.6
		c0.5,0,0.8,0.2,0.8,0.6c0,0.3-0.3,0.6-0.8,0.6C20.2,26.8,19.9,26.5,19.9,26.2z"/>
	<rect x="28.1" y="24.3" class="st2" width="0.2" height="3.2"/>
	<polygon class="st2" points="25.9,27.2 25.6,27.2 25.6,28.5 28.5,28.5 28.5,28.3 25.9,28.3 	"/>
	<path class="st2" d="M27.1,25.7c0-0.6-0.5-1-1.1-1c-0.6,0-1.1,0.4-1.1,1c0,0.6,0.5,1,1.1,1C26.7,26.7,27.1,26.3,27.1,25.7z
		 M25.2,25.7c0-0.5,0.4-0.8,0.9-0.8c0.5,0,0.9,0.4,0.9,0.8c0,0.5-0.4,0.8-0.9,0.8C25.6,26.5,25.2,26.2,25.2,25.7z"/>
	<path class="st2" d="M29.4,25.9l0.1,0.2c0.6-0.1,1.4-0.4,1.6-0.9c0.2,0.5,1,0.8,1.6,0.9l0.1-0.2c-0.7-0.1-1.6-0.5-1.6-1.1v-0.1h1.5
		v-0.2h-3.2v0.2H31v0.1C31,25.4,30.1,25.8,29.4,25.9z"/>
	<path class="st2" d="M31.1,27.1c-0.9,0-1.5,0.3-1.5,0.8c0,0.5,0.6,0.8,1.5,0.8c0.9,0,1.5-0.3,1.5-0.8C32.6,27.4,32,27.1,31.1,27.1z
		 M31.1,28.4c-0.7,0-1.2-0.2-1.2-0.6c0-0.4,0.5-0.6,1.2-0.6c0.7,0,1.2,0.2,1.2,0.6C32.3,28.2,31.8,28.4,31.1,28.4z"/>
	<rect x="29.2" y="26.4" class="st2" width="3.9" height="0.2"/>
</g>
</svg>
