<svg xmlns="http://www.w3.org/2000/svg" xml:space="preserve" id="a" x="0" y="0" style="enable-background:new 0 0 24 24" version="1.1" viewBox="0 0 24 24"><style>.st2{fill:#fff}</style><circle cx="12" cy="12" r="12" style="fill:#c93c5d"/><g style="enable-background:new"><path d="M9.2 8.8v4.1c0 1.4-1.1 2.3-2.6 2.3S4 14.3 4 12.9V8.8h1.3v4c0 .7.5 1.3 1.3 1.3s1.3-.5 1.3-1.3v-4h1.3zM10.3 8.8h2.5c1.5 0 2.3.8 2.3 2.1 0 .9-.4 1.5-1.1 1.8l1.4 2.5h-1.5l-1.2-2.3h-1v2.3h-1.3V8.8zm2.2 3c.8 0 1.2-.3 1.2-1 0-.6-.4-1-1.2-1h-.9v2h.9zM16 8.8h1.3V14H20v1.1h-4V8.8z" class="st2"/></g></svg>