<svg xmlns="http://www.w3.org/2000/svg" xml:space="preserve" id="kakao" x="0" y="0" style="enable-background:new 0 0 24 24" version="1.1" viewBox="0 0 24 24"><style>.st1{fill-rule:evenodd;clip-rule:evenodd;fill:#f8e049}</style><path d="M12 3C6.5 3 2 6.5 2 10.7c0 2.8 1.9 5.2 4.7 6.6-.2.8-.8 2.8-.9 3.2-.1.5.2.5.4.4.2-.1 2.7-1.8 3.8-2.6.6.1 1.2.1 1.9.1 5.5 0 10-3.5 10-7.7S17.5 3 12 3" style="fill-rule:evenodd;clip-rule:evenodd;fill:#371c1d"/><path d="M8.7 8.8c0-.2-.2-.4-.4-.4H5.2c-.3 0-.5.2-.5.5s.2.5.5.5h1v3.4c0 .5 1.1.5 1.1 0V9.4h1c.2-.1.4-.3.4-.6zM15 12.1h-1.4V8.8c-.1-.3-.4-.5-.7-.5-.2 0-.4.2-.5.5v3.7c-.1.2.1.5.3.6h2.2c.5 0 .6-1 .1-1zM19.2 12.4l-1.4-1.9 1.4-1.4c.2-.2-.5-.9-.7-.7-.2.2-1.8 1.7-1.8 1.7V8.6c-.1-.2-.3-.4-.5-.3-.2-.1-.5.1-.5.3v4.1c0 .4 1.1.4 1.1 0v-1.4l.3-.2 1.4 1.8c.1.5 1-.2.7-.5zM10.7 8.7c-.2-.2-.4-.3-.7-.3-.2 0-.5.1-.6.3-.2.5-1.2 3.1-1.5 3.8-.2.5.7.9.9.4l.2-.7h2c0 .2 0 .5.2.7.2.5 1.2.2 1-.4-.3-.8-1.3-3.5-1.5-3.8zm-1.3 2.6.6-1.8.6 1.8H9.4z" class="st1"/></svg>