<svg xmlns="http://www.w3.org/2000/svg" xmlns:xlink="http://www.w3.org/1999/xlink" xml:space="preserve" id="Layer_1" x="0" y="0" style="enable-background:new 0 0 24 24" version="1.1" viewBox="0 0 24 24"><style>.st0{clip-path:url(#SVGID_00000076588603758438560570000000024319705278965139_)}</style><defs><path id="SVGID_1_" d="M16.2 2H7.8C4.6 2 2 4.6 2 7.8v8.4C2 19.4 4.6 22 7.8 22h8.4c3.2 0 5.8-2.6 5.8-5.8V7.8C22 4.6 19.4 2 16.2 2m4 14.4c0 2.1-1.7 3.8-3.8 3.8H7.7c-2.1 0-3.8-1.7-3.8-3.8V7.7c0-2.1 1.7-3.8 3.8-3.8h8.7c2.1 0 3.8 1.7 3.8 3.8v8.7zM12 6.9c-2.9 0-5.2 2.3-5.2 5.2 0 2.9 2.3 5.2 5.2 5.2s5.2-2.3 5.2-5.2c0-2.9-2.3-5.2-5.2-5.2m0 8.5c-1.9 0-3.4-1.5-3.4-3.4s1.5-3.4 3.4-3.4 3.4 1.5 3.4 3.4-1.5 3.4-3.4 3.4m5.3-9.9c-.7 0-1.2.5-1.2 1.2s.5 1.2 1.2 1.2 1.2-.5 1.2-1.2c.1-.7-.5-1.2-1.2-1.2.1 0 .1 0 0 0z"/></defs><clipPath id="SVGID_00000065784193786925252100000003444981249256079232_"><use xlink:href="#SVGID_1_" style="overflow:visible"/></clipPath><g style="clip-path:url(#SVGID_00000065784193786925252100000003444981249256079232_)"><path d="M12-8c11 0 20 9 20 20s-9 20-20 20-20-9-20-20S1-8 12-8z" style="fill:#ee2f2a"/><image xlink:href="E84B49AD.png" width="40" height="40" style="overflow:visible;enable-background:new" transform="matrix(1.05 0 0 1.05 -9 -9)"/></g></svg>