<svg xmlns="http://www.w3.org/2000/svg" width="40" height="40"><rect width="40" height="40" rx="20" ry="20" style="fill:#ee2f2a"/><path d="M1640.86 2194.57a2.675 2.675 0 0 0-1.9-1.92c-1.68-.46-8.4-.46-8.4-.46s-6.73 0-8.41.46a2.71 2.71 0 0 0-1.9 1.92 30.617 30.617 0 0 0 0 10.46 2.727 2.727 0 0 0 1.9 1.92c1.68.45 8.41.45 8.41.45s6.72 0 8.4-.45a2.692 2.692 0 0 0 1.9-1.92 30.617 30.617 0 0 0 0-10.46Zm-12.5 8.44v-6.42l5.62 3.21Z" data-name="youtube" style="fill:#fff;fill-rule:evenodd" transform="translate(-1610 -2180)"/></svg>