<svg xmlns="http://www.w3.org/2000/svg" xmlns:xlink="http://www.w3.org/1999/xlink" xml:space="preserve" id="a" x="0" y="0" style="enable-background:new 0 0 359.1 220" version="1.1" viewBox="0 0 359.1 220"><style>.st0{clip-path:url(#SVGID_00000128455053185258721310000007903437347101885846_)}</style><defs><path id="SVGID_1_" d="M0 0h359.1v220H0z"/></defs><clipPath id="SVGID_00000034805924929430181640000006213736225189691525_"><use xlink:href="#SVGID_1_" style="overflow:visible"/></clipPath><g style="clip-path:url(#SVGID_00000034805924929430181640000006213736225189691525_)"><path d="M291.8 150.1c61.2 0 110.8 49.6 110.8 110.8v.2c0 61.2-49.6 110.8-110.8 110.8S181 322.3 181 261.1v-.2c0-61.2 49.6-110.8 110.8-110.8z" style="opacity:2.000000e-02;fill-rule:evenodd;clip-rule:evenodd;fill:#11223e;stroke:#c93c5d;stroke-width:40;enable-background:new"/><path d="M354.2-1.1C415.4-1.1 465 48.5 465 109.7v.2c0 61.2-49.6 110.8-110.8 110.8s-110.8-49.6-110.8-110.8v-.2C243.4 48.5 293-1.1 354.2-1.1z" style="opacity:2.000000e-02;fill-rule:evenodd;clip-rule:evenodd;stroke:#c93c5d;stroke-width:40;enable-background:new"/><path d="m70.2 40.8 142.1-142.1c11.7-11.7 30.7-11.7 42.4 0s11.7 30.7 0 42.4l-142 142.1C101 94.9 82 94.9 70.3 83.2c-11.8-11.7-11.8-30.7-.1-42.4z" style="fill-rule:evenodd;clip-rule:evenodd;fill:#ebf2f5"/><path d="M99 115.5 230.5-16c2.7-2.7 7.2-2.7 9.9 0s2.7 7.2 0 9.9L108.9 125.4c-2.7 2.7-7.2 2.7-9.9 0s-2.7-7.2 0-9.9z" style="fill-rule:evenodd;clip-rule:evenodd;fill:#f6edef"/></g></svg>