<svg xmlns="http://www.w3.org/2000/svg" xmlns:xlink="http://www.w3.org/1999/xlink" xml:space="preserve" id="a" x="0" y="0" style="enable-background:new 0 0 1919.1 290" version="1.1" viewBox="0 0 1919.1 290"><style>.st5,.st7{fill-rule:evenodd;clip-rule:evenodd;fill:#f5f0f0}.st7{fill:#f6edef}</style><defs><path id="SVGID_1_" d="M0 0h1919.1v290H0z"/></defs><clipPath id="SVGID_00000150086157554769657090000012583264878257648514_"><use xlink:href="#SVGID_1_" style="overflow:visible"/></clipPath><g style="clip-path:url(#SVGID_00000150086157554769657090000012583264878257648514_)"><path d="M1176.8 197.1c61.2 0 110.8 49.6 110.8 110.8v.2c0 61.2-49.6 110.8-110.8 110.8S1066 369.3 1066 308.1v-.2c0-61.2 49.6-110.8 110.8-110.8z" style="opacity:2.000000e-02;fill-rule:evenodd;clip-rule:evenodd;fill:#11223e;stroke:#c93c5d;stroke-width:40;enable-background:new"/><path d="M1273.2 152.9c61.2 0 110.8 49.6 110.8 110.8v.2c0 61.2-49.6 110.8-110.8 110.8s-110.8-49.6-110.8-110.8v-.2c0-61.2 49.6-110.8 110.8-110.8z" style="opacity:2.000000e-02;fill-rule:evenodd;clip-rule:evenodd;stroke:#c93c5d;stroke-width:40;enable-background:new"/><path d="M804.2 186.7c-72.1 0-130.8-58.7-130.8-130.8v-.2c0-72.1 58.7-130.8 130.8-130.8S935-16.4 935 55.7v.2c0 72.1-58.7 130.8-130.8 130.8zm0-221.8c-50.1 0-90.8 40.7-90.8 90.8v.2c0 50.1 40.7 90.8 90.8 90.8S895 105.9 895 55.9v-.2c0-50.1-40.7-90.8-90.8-90.8z" style="fill:#ebf2f5"/><path d="m-220.3 239.1 193-193c39.6-39.6 103.9-39.6 143.5 0s39.6 103.9 0 143.5l-193 193c-39.6 39.6-103.9 39.6-143.5 0s-39.6-103.8 0-143.5z" style="opacity:2.000000e-02;fill-rule:evenodd;clip-rule:evenodd;fill:#11223e;enable-background:new"/><path d="M-175.1 449.5 76.6 197.8c15.6-15.6 41-15.6 56.6 0s15.6 41 0 56.6l-251.7 251.7c-15.6 15.6-40.9 15.6-56.6 0-15.7-15.7-15.7-41 0-56.6zM149.3 262.5l69.3-69.3c3.9-3.9 10.2-3.9 14.1 0 3.9 3.9 3.9 10.2 0 14.1l-69.3 69.3c-3.9 3.9-10.2 3.9-14.1 0-3.9-3.9-3.9-10.2 0-14.1z" class="st5"/><path d="m1767.2 161.8 142.1-142.1C1921 8 1940 8 1951.7 19.7s11.7 30.7 0 42.4l-142.1 142.1c-11.7 11.7-30.7 11.7-42.4 0s-11.7-30.7 0-42.4z" style="fill-rule:evenodd;clip-rule:evenodd;fill:#ebf2f5"/><path d="M1777 115.5 1908.5-16c2.7-2.7 7.2-2.7 9.9 0s2.7 7.2 0 9.9l-131.5 131.5c-2.7 2.7-7.2 2.7-9.9 0s-2.7-7.2 0-9.9zM1789 255.5 1920.5 124c2.7-2.7 7.2-2.7 9.9 0s2.7 7.2 0 9.9l-131.5 131.5c-2.7 2.7-7.2 2.7-9.9 0s-2.7-7.2 0-9.9z" class="st7"/></g></svg>